<svg xmlns="http://www.w3.org/2000/svg" width="24" height="24" fill="currentColor" viewBox="0 0 24 24">
  <g clip-path="url(#a)">
    <path d="M9.75 18.75c-1.24 0-2.25 1.01-2.25 2.25 0 1.241 1.01 2.25 2.25 2.25S12 22.242 12 21c0-1.24-1.01-2.25-2.25-2.25Zm0 3a.75.75 0 1 1 0-1.5.75.75 0 0 1 0 1.5Zm9.001-3c-1.24 0-2.25 1.01-2.25 2.25 0 1.241 1.01 2.25 2.25 2.25s2.25-1.009 2.25-2.25c0-1.24-1.01-2.25-2.25-2.25Zm0 3a.75.75 0 1 1 0-1.5.75.75 0 0 1 0 1.5Zm5.075-17.73a.745.745 0 0 0-.575-.27H5.622L4.97 1.306A.748.748 0 0 0 4.245.75H.75a.75.75 0 0 0 0 1.5h2.92l3.856 14.444a.748.748 0 0 0 .724.556h12a.75.75 0 0 0 0-1.5H8.827l-.44-1.647 13.398-.603a.75.75 0 0 0 .704-.615l1.5-8.25a.748.748 0 0 0-.162-.615Zm-2.705 8.008-13.132.592-1.966-7.37h16.33l-1.232 6.778Z"/>
    <path d="M18.751 6.75a.75.75 0 0 0-.75.75v3a.75.75 0 0 0 1.5 0v-3a.75.75 0 0 0-.75-.75Zm-4.5 0a.75.75 0 0 0-.75.75v3a.75.75 0 0 0 1.5 0v-3a.75.75 0 0 0-.75-.75Zm-4.501 0A.75.75 0 0 0 9 7.5v3a.75.75 0 0 0 1.5 0v-3a.75.75 0 0 0-.75-.75Z"/>
  </g>
  <defs>
    <clipPath id="a">
      <path d="M0 0h24v24H0z"/>
    </clipPath>
  </defs>
</svg>
