<svg xmlns="http://www.w3.org/2000/svg" width="20" height="22" fill="currentColor" viewBox="0 0 20 22">
  <g clip-path="url(#a)">
    <path d="M17.813 0H2.188A1.946 1.946 0 0 0 .234 1.934v18.132c0 1.067.877 1.934 1.954 1.934h15.624a1.946 1.946 0 0 0 1.954-1.934V1.934A1.946 1.946 0 0 0 17.813 0Zm.65 20.066a.648.648 0 0 1-.65.645H2.188a.649.649 0 0 1-.652-.645V1.934a.65.65 0 0 1 .651-.645h15.626c.359 0 .65.29.65.645v18.132Z"/>
    <path d="M16.51 2.578H3.489a.648.648 0 0 0-.651.645v5.242c0 .356.291.644.65.644H16.51c.36 0 .65-.288.65-.644V3.223a.648.648 0 0 0-.65-.645Zm-.651 5.242H4.14V3.867h11.719V7.82Zm-9.766 2.578H3.49a.648.648 0 0 0-.651.645v2.578c0 .356.291.645.65.645h2.605c.36 0 .651-.289.651-.645v-2.578a.648.648 0 0 0-.65-.645Zm-.65 2.579H4.14v-1.29h1.302v1.29Zm.65 2.578H3.49a.648.648 0 0 0-.651.644v2.578c0 .356.291.645.65.645h2.605c.36 0 .651-.289.651-.645V16.2a.648.648 0 0 0-.65-.644Zm-.65 2.578H4.14v-1.29h1.302v1.29Zm5.859-7.735H8.698a.648.648 0 0 0-.651.645v2.578c0 .356.291.645.65.645h2.605c.36 0 .651-.289.651-.645v-2.578a.648.648 0 0 0-.65-.645Zm-.651 2.579H9.349v-1.29h1.302v1.29Zm.651 2.578H8.698a.648.648 0 0 0-.651.644v2.578c0 .356.291.645.65.645h2.605c.36 0 .651-.289.651-.645V16.2a.648.648 0 0 0-.65-.644Zm-.651 2.578H9.349v-1.29h1.302v1.29Zm5.86-7.735h-2.604a.648.648 0 0 0-.651.645v7.734c0 .356.291.645.65.645h2.605c.36 0 .651-.289.651-.645v-7.734a.648.648 0 0 0-.65-.645Zm-.651 7.735h-1.302v-6.445h1.302v6.445Z"/>
  </g>
  <defs>
    <clipPath id="a">
      <path d="M0 0h20v22H0z"/>
    </clipPath>
  </defs>
</svg>
