<svg xmlns="http://www.w3.org/2000/svg" width="18" height="18" fill="currentColor" viewBox="0 0 18 18">
  <g clip-path="url(#a)">
    <path d="M9.08 15.5a6.482 6.482 0 0 0 4.577-1.889 6.44 6.44 0 0 0 1.896-4.56 6.44 6.44 0 0 0-1.896-4.562A6.483 6.483 0 0 0 9.081 2.6c-1.717 0-3.363.68-4.577 1.89a6.439 6.439 0 0 0 0 9.122A6.483 6.483 0 0 0 9.081 15.5Zm0 1.29a7.789 7.789 0 0 1-5.49-2.266A7.738 7.738 0 0 1 1.313 9.05 7.717 7.717 0 0 1 3.59 3.577 7.768 7.768 0 0 1 9.081 1.31a7.78 7.78 0 0 1 5.491 2.267 7.727 7.727 0 0 1 2.275 5.473 7.727 7.727 0 0 1-2.275 5.473 7.78 7.78 0 0 1-5.491 2.268Z"/>
    <path d="m4.637 15.35 1.121.646-.97 1.676a.645.645 0 0 1-.646.32.648.648 0 0 1-.558-.727.643.643 0 0 1 .083-.238l.97-1.676Zm8.888 0-1.121.646.97 1.676a.644.644 0 0 0 .647.32.648.648 0 0 0 .557-.727.643.643 0 0 0-.082-.238l-.971-1.676ZM9.08 9.05h3.236a.648.648 0 0 1 .647.645.644.644 0 0 1-.647.646H8.434a.648.648 0 0 1-.647-.646V5.18a.644.644 0 0 1 .647-.645.648.648 0 0 1 .647.645v3.87ZM.556 5.024A3.217 3.217 0 0 1 .965.96 3.24 3.24 0 0 1 5.043.554l-.948.945a1.947 1.947 0 0 0-2.21.377 1.933 1.933 0 0 0-.379 2.203l-.948.945H.556Zm16.893 0A3.217 3.217 0 0 0 17.04.962a3.24 3.24 0 0 0-4.076-.408l.948.945a1.948 1.948 0 0 1 2.21.377A1.933 1.933 0 0 1 16.5 4.08l.95.945Z"/>
  </g>
  <defs>
    <clipPath id="a">
      <path d="M0 0h18v18H0z"/>
    </clipPath>
  </defs>
</svg>
