<svg xmlns="http://www.w3.org/2000/svg" width="44" height="40" fill="currentColor" viewBox="0 0 44 40">
  <path d="M41.8 21.482h-.88l-.829-3.764a3.686 3.686 0 0 0-1.28-2.092 3.62 3.62 0 0 0-2.298-.811h-8.646l-.008-9.66a1.315 1.315 0 0 0-.058-.273A2295.15 2295.15 0 0 1 25.586.407.729.729 0 0 0 24.933 0h-22a.711.711 0 0 0-.652.407S.073 4.874.066 4.882c-.03.088-.049.18-.059.274L0 34.815a2.24 2.24 0 0 0 .646 1.57c.412.416.971.65 1.554.652h4.899a5.164 5.164 0 0 0 1.892 2.16 5.09 5.09 0 0 0 5.485 0 5.164 5.164 0 0 0 1.892-2.16h14.205a5.152 5.152 0 0 0 1.888 2.16 5.08 5.08 0 0 0 5.478 0 5.152 5.152 0 0 0 1.888-2.16H41.8a2.195 2.195 0 0 0 1.554-.653 2.24 2.24 0 0 0 .646-1.57v-11.11a2.24 2.24 0 0 0-.646-1.57 2.196 2.196 0 0 0-1.554-.652Zm-11-5.186h5.713c.5-.002.988.17 1.379.487.39.317.662.76.77 1.254l.755 3.445h-7.884a.73.73 0 0 1-.518-.217.745.745 0 0 1-.215-.524v-4.445ZM24.479 1.482l1.466 2.962H17.49l-.491-2.962h7.48Zm-12.122 0h3.153l.491 2.962h-4.136l.492-2.962Zm-.624 4.444h4.4v6.207l-1.848-.94a.703.703 0 0 0-.652-.008l-1.9.956V5.926ZM3.388 1.482h7.48l-.491 2.962H1.92l1.467-2.962ZM1.467 18.519h6.6a.73.73 0 0 0 .518-.217.744.744 0 0 0 .215-.524v-.74L12.709 20 8.8 22.963v-.74a.744.744 0 0 0-.215-.524.73.73 0 0 0-.518-.218h-6.6v-2.963Zm0 4.444h5.866v1.482a.729.729 0 0 0 .404.659.661.661 0 0 0 .33.081.75.75 0 0 0 .44-.148l5.866-4.444a.739.739 0 0 0 .294-.593.745.745 0 0 0-.294-.593l-5.866-4.444a.73.73 0 0 0-.77-.067.72.72 0 0 0-.404.66v1.481H1.467V5.926h8.8v7.407a.746.746 0 0 0 .344.63.739.739 0 0 0 .712.037l2.632-1.319 2.582 1.312a.727.727 0 0 0 .97-.3.747.747 0 0 0 .093-.36V5.926h8.8v20.74H1.467v-3.703Zm5.192 12.593H2.2a.73.73 0 0 1-.519-.217.744.744 0 0 1-.214-.524v-.74h5.192a4.65 4.65 0 0 0 0 1.48Zm5.074 2.963a3.64 3.64 0 0 1-2.037-.625 3.696 3.696 0 0 1-1.35-1.662 3.739 3.739 0 0 1 .795-4.036 3.655 3.655 0 0 1 1.877-1.014 3.633 3.633 0 0 1 2.118.211c.67.28 1.243.755 1.646 1.364a3.73 3.73 0 0 1-.456 4.677 3.636 3.636 0 0 1-2.593 1.085Zm4.635-5.926a5.163 5.163 0 0 0-1.892-2.16 5.09 5.09 0 0 0-5.485 0 5.163 5.163 0 0 0-1.892 2.16H1.467v-4.445H26.4v4.445H16.368Zm13.757 2.962H16.808a4.71 4.71 0 0 0 0-1.48h13.317a4.71 4.71 0 0 0 0 1.48ZM35.2 38.52a3.64 3.64 0 0 1-2.037-.625 3.696 3.696 0 0 1-1.35-1.662 3.739 3.739 0 0 1 .794-4.036 3.633 3.633 0 0 1 3.996-.803c.67.28 1.243.755 1.646 1.364a3.73 3.73 0 0 1-.456 4.677A3.648 3.648 0 0 1 35.2 38.52Zm7.333-3.704a.744.744 0 0 1-.215.524.73.73 0 0 1-.518.217h-1.525a4.722 4.722 0 0 0 0-1.482h2.258v.74Zm0-5.185H41.8a.73.73 0 0 1-.518-.217.744.744 0 0 1-.215-.524v-.74c0-.197.077-.386.215-.525a.73.73 0 0 1 .518-.217h.733v2.223Zm0-3.704H41.8a2.196 2.196 0 0 0-1.554.653 2.24 2.24 0 0 0-.646 1.57v.74a2.24 2.24 0 0 0 .646 1.57c.412.416.971.65 1.554.652h.733v1.482h-2.706a5.151 5.151 0 0 0-1.888-2.16 5.08 5.08 0 0 0-5.478 0 5.151 5.151 0 0 0-1.888 2.16h-2.706V16.296h1.466v4.445a2.24 2.24 0 0 0 .647 1.57c.412.416.97.65 1.553.652H41.8a.73.73 0 0 1 .519.217.744.744 0 0 1 .214.524v2.222Z"/>
  <path d="M30.067 25.926h1.467a.73.73 0 0 0 .519-.217.745.745 0 0 0 0-1.048.73.73 0 0 0-.519-.217h-1.467a.73.73 0 0 0-.518.217.744.744 0 0 0 0 1.048.73.73 0 0 0 .518.217Zm5.133 6.667c-.435 0-.86.13-1.222.374a2.218 2.218 0 0 0-.81.998 2.243 2.243 0 0 0 .476 2.421 2.18 2.18 0 0 0 2.398.482c.402-.168.745-.453.987-.818a2.238 2.238 0 0 0-.273-2.806 2.189 2.189 0 0 0-1.556-.651Zm0 2.963a.728.728 0 0 1-.678-.457.748.748 0 0 1 .16-.808.73.73 0 0 1 1.251.524.744.744 0 0 1-.215.524.73.73 0 0 1-.518.217Zm-23.467-2.963c-.435 0-.86.13-1.222.374a2.217 2.217 0 0 0-.81.998 2.243 2.243 0 0 0 .477 2.421 2.18 2.18 0 0 0 2.398.482c.401-.168.745-.453.986-.818a2.238 2.238 0 0 0-.273-2.806 2.189 2.189 0 0 0-1.556-.651Zm0 2.963a.728.728 0 0 1-.677-.457.748.748 0 0 1 .159-.808.73.73 0 0 1 1.252.524.744.744 0 0 1-.215.524.73.73 0 0 1-.519.217Z"/>
</svg>
