<svg xmlns="http://www.w3.org/2000/svg" width="35" height="40" fill="currentColor" viewBox="0 0 35 40">
  <path d="M33.654 27.453V18a1.997 1.997 0 0 0-.593-1.413A2.035 2.035 0 0 0 31.635 16h-4.712V.667a.663.663 0 0 0-.197-.472A.676.676 0 0 0 26.25 0H7.404c-.179 0-.35.07-.476.195a.663.663 0 0 0-.197.472V16H3.365c-.892 0-1.748.351-2.38.976A3.317 3.317 0 0 0 0 19.333v17.334c0 .884.355 1.732.986 2.357a3.382 3.382 0 0 0 2.38.976h28.269a2.035 2.035 0 0 0 1.426-.587A2 2 0 0 0 33.654 38v-4.12A2.004 2.004 0 0 0 35 32v-2.667a1.993 1.993 0 0 0-.373-1.15 2.024 2.024 0 0 0-.973-.73ZM8.077 1.333h17.5v17.334H24.23V6.473a.663.663 0 0 0-.485-.64 4.014 4.014 0 0 1-1.702-1 3.96 3.96 0 0 1-1.01-1.686.666.666 0 0 0-.646-.48h-7.122a.677.677 0 0 0-.646.48 3.96 3.96 0 0 1-1.01 1.685 4.01 4.01 0 0 1-1.702 1.001.673.673 0 0 0-.485.64v12.194H8.077V1.333Zm14.808 5.614v11.72H10.769V6.947a5.343 5.343 0 0 0 1.793-1.171A5.284 5.284 0 0 0 13.744 4h6.166c.268.665.67 1.27 1.182 1.776a5.344 5.344 0 0 0 1.793 1.17ZM1.932 17.92a2.05 2.05 0 0 1 1.433-.587h3.366v1.334H3.365c-.178 0-.35.07-.476.195a.664.664 0 0 0 0 .943.676.676 0 0 0 .476.195h26.923c.179 0 .35-.07.476-.195a.664.664 0 0 0 0-.943.676.676 0 0 0-.476-.195h-3.365v-1.334h4.712c.178 0 .35.07.476.196a.664.664 0 0 1 .197.471v3.333H3.365c-.399 0-.788-.118-1.12-.337A2.008 2.008 0 0 1 1.5 20.1a1.986 1.986 0 0 1 .43-2.18ZM32.308 38a.663.663 0 0 1-.197.471.677.677 0 0 1-.476.196H3.365a2.035 2.035 0 0 1-1.426-.588 1.996 1.996 0 0 1-.593-1.412V21.98a3.335 3.335 0 0 0 2.02.687h28.942v4.666h-5.385a2.035 2.035 0 0 0-1.426.588 1.996 1.996 0 0 0-.593 1.412V32c.001.53.215 1.038.593 1.413.378.374.891.585 1.426.587h5.385v4Zm1.346-6a.663.663 0 0 1-.197.471.676.676 0 0 1-.476.196h-6.058a.677.677 0 0 1-.476-.196.664.664 0 0 1-.197-.471v-2.667a.66.66 0 0 1 .197-.471.677.677 0 0 1 .476-.195h6.058c.178 0 .35.07.476.195a.664.664 0 0 1 .197.471V32Z"/>
  <path d="M28.27 30h-.673c-.179 0-.35.07-.476.195a.663.663 0 0 0 0 .943.676.676 0 0 0 .476.195h.673c.178 0 .35-.07.476-.195A.664.664 0 0 0 28.27 30ZM6.057 36H4.71a.677.677 0 0 1-.476-.196.663.663 0 0 1-.197-.471V34a.663.663 0 0 0-.198-.472A.676.676 0 0 0 2.69 34v1.333c0 .53.213 1.04.592 1.414a2.03 2.03 0 0 0 1.428.586h1.346c.178 0 .35-.07.476-.195a.663.663 0 0 0 0-.943.676.676 0 0 0-.476-.195Zm10.77-26c.179 0 .35-.07.476-.195a.664.664 0 0 0 .197-.471v-2a.664.664 0 0 0-.197-.472.676.676 0 0 0-.952 0 .664.664 0 0 0-.197.472v2c0 .176.071.346.197.471a.677.677 0 0 0 .476.195Z"/>
</svg>
