<svg xmlns="http://www.w3.org/2000/svg" width="18" height="14" fill="currentColor" viewBox="0 0 18 14">
  <path d="M15.75 0H2.25C1.653 0 1.081.257.659.713A2.54 2.54 0 0 0 0 2.435v9.13c0 .646.237 1.265.659 1.722.422.456.994.713 1.591.713h13.5c.597 0 1.169-.257 1.591-.713A2.54 2.54 0 0 0 18 11.565v-9.13a2.54 2.54 0 0 0-.659-1.722A2.167 2.167 0 0 0 15.75 0Zm1.125 11.565c0 .323-.119.633-.33.861a1.084 1.084 0 0 1-.795.357H2.25c-.298 0-.585-.129-.796-.357a1.27 1.27 0 0 1-.329-.86V2.434c0-.323.119-.633.33-.861.21-.228.497-.357.795-.357h13.5c.298 0 .584.129.796.357.21.228.329.538.329.86v9.131Z"/>
  <path d="M15.62 3.27a.574.574 0 0 0-.17-.152.531.531 0 0 0-.623.066L9 8.346 3.166 3.184a.557.557 0 0 0-.194-.129.523.523 0 0 0-.446.032.573.573 0 0 0-.178.154.657.657 0 0 0-.05.698c.04.071.092.133.154.182L8.64 9.6c.1.09.228.14.36.14a.537.537 0 0 0 .354-.14l6.186-5.48a.644.644 0 0 0 .079-.852Zm-2.288 4.82a.542.542 0 0 0-.397-.178.541.541 0 0 0-.396.177.613.613 0 0 0-.124.198.653.653 0 0 0 .124.667l2.25 2.434a.526.526 0 0 0 .796-.003.653.653 0 0 0-.003-.861l-2.25-2.435Zm-8.646 0-2.25 2.434a.635.635 0 0 0-.166.43.631.631 0 0 0 .163.431c.105.115.248.18.397.18.15 0 .293-.063.399-.177l2.25-2.434a.652.652 0 0 0 0-.864.542.542 0 0 0-.397-.178.542.542 0 0 0-.396.177Z"/>
</svg>
