<svg xmlns="http://www.w3.org/2000/svg" width="20" height="18" fill="currentColor" viewBox="0 0 20 18">
  <path d="M6.79.278c1.08 0 1.995.713 2.305 1.693h9.328a.728.728 0 0 1 0 1.454H9.095A2.421 2.421 0 0 1 6.79 5.117a2.422 2.422 0 0 1-2.306-1.692H1.577a.727.727 0 1 1 0-1.454h2.907A2.422 2.422 0 0 1 6.79.278Zm0 1.454a.967.967 0 0 0-.966.966.966.966 0 1 0 .966-.966Zm5.593 4.848c1.08 0 1.996.714 2.306 1.693h3.734a.728.728 0 0 1 0 1.454h-3.734a2.422 2.422 0 0 1-2.306 1.692 2.421 2.421 0 0 1-2.305-1.692h-8.5a.727.727 0 1 1 0-1.454h8.5a2.421 2.421 0 0 1 2.305-1.693Zm0 1.455a.966.966 0 1 0 .966.966.967.967 0 0 0-.966-.966ZM6.79 12.883c1.08 0 1.995.713 2.305 1.692h9.328a.728.728 0 0 1 0 1.454H9.095a2.421 2.421 0 0 1-2.305 1.692 2.422 2.422 0 0 1-2.306-1.692H1.577a.727.727 0 1 1 0-1.454h2.907a2.422 2.422 0 0 1 2.306-1.692Zm0 1.454a.967.967 0 0 0-.966.966.966.966 0 1 0 .966-.966Z"/>
</svg>
