<svg xmlns="http://www.w3.org/2000/svg" width="44" height="44" fill="currentColor" viewBox="0 0 44 44">
  <path d="M21.998.41 0 10.82v6.718h2.993V43.59h1.833V17.538h34.348V43.59h1.833V17.538H44v-6.805L21.998.41Zm20.169 15.295H1.833V11.98l20.169-9.544 20.165 9.46v3.808Z"/>
  <path d="M20.98 24.934h-8.388v8.274h8.388v-8.274Zm-1.833 6.44h-4.721v-4.607h4.72v4.607Zm12.26-6.44H23.02v8.274h8.387v-8.274Zm-1.833 6.44h-4.721v-4.607h4.721v4.607ZM7.475 43.087h8.388v-8.274H7.475v8.274Zm1.833-6.44h4.722v4.607H9.308v-4.607Zm8.498 6.44h8.388v-8.274h-8.388v8.274Zm1.833-6.44h4.722v4.607h-4.722v-4.607Zm8.498 6.44h8.388v-8.274h-8.388v8.274Zm1.833-6.44h4.721v4.607H29.97v-4.607ZM12.482 11.803h-4.37v1.834h4.37v-1.834Zm11.702 0h-4.369v1.834h4.37v-1.834Zm11.702 0h-4.368v1.834h4.368v-1.834Z"/>
</svg>
