<svg xmlns="http://www.w3.org/2000/svg" width="59" height="44" fill="currentColor" viewBox="0 0 59 44">
  <path d="M58.61 12.167 47.188.669a.936.936 0 0 0-1.33 0l-5.71 5.749a.95.95 0 0 0 0 1.339l.57.573-1.31 1.318a2.925 2.925 0 0 1-3.28.58 8.125 8.125 0 0 0-3.354-.729 8.049 8.049 0 0 0-3.89 1 6.288 6.288 0 0 0-3.68.198c-1.11.406-2.3.154-3.106-.657l-2.35-2.367.28-.281a.95.95 0 0 0 0-1.34L14.317.305a.936.936 0 0 0-1.33 0L.275 13.102a.951.951 0 0 0 0 1.34l5.71 5.748a.937.937 0 0 0 1.33 0l.341-.343 1.658 1.67c.418.42.696.946.802 1.52a14.901 14.901 0 0 0 4.09 7.819l.313.314c-.6.636-.93 1.464-.93 2.344a3.398 3.398 0 0 0 3.385 3.406c.057 0 .113-.001.17-.004a3.413 3.413 0 0 0 .985 2.58c.64.644 1.49.998 2.393.998l.076-.002c-.02.897.31 1.8.988 2.484a3.35 3.35 0 0 0 2.393.998 3.352 3.352 0 0 0 2.548-1.165 3.125 3.125 0 0 0 3.277-.755c.317-.318.558-.694.714-1.103l.096.097c.617.62 1.426.931 2.236.931.81 0 1.62-.31 2.235-.93.328-.33.574-.72.73-1.145a3.142 3.142 0 0 0 1.858.607c.81 0 1.62-.31 2.237-.93a3.177 3.177 0 0 0 .926-2.252c0-.257-.03-.51-.09-.753a3.13 3.13 0 0 0 1.6-.869c.598-.6.926-1.4.926-2.25 0-.67-.205-1.308-.583-1.842l.754-.76a14.897 14.897 0 0 0 4.11-7.917c.09-.504.337-.973.717-1.355l2.806-2.825.493.496a.934.934 0 0 0 1.33 0l5.71-5.749a.95.95 0 0 0 0-1.338ZM6.65 18.182l-4.38-4.41 11.383-11.46 4.38 4.41-11.382 11.46Zm11.388 16.403a1.5 1.5 0 0 1-2.127 0 1.51 1.51 0 0 1-.44-1.07A1.51 1.51 0 0 1 16.973 32c.385 0 .77.148 1.064.443.586.59.586 1.55 0 2.141Zm3.547 3.572a1.488 1.488 0 0 1-1.063.443 1.49 1.49 0 0 1-1.063-.443 1.523 1.523 0 0 1 0-2.141 1.494 1.494 0 0 1 2.127 0c.586.59.586 1.55 0 2.14Zm3.457 3.48a1.489 1.489 0 0 1-1.063.444c-.402 0-.78-.158-1.063-.444a1.523 1.523 0 0 1 0-2.141 1.494 1.494 0 0 1 2.126 0c.587.59.587 1.55 0 2.141Zm15.974-7.268a1.267 1.267 0 0 1-.905.378 1.27 1.27 0 0 1-.906-.379l-9.123-9.183a.936.936 0 0 0-1.33 0 .952.952 0 0 0 0 1.339l9.828 9.893c.241.244.375.567.375.912 0 .345-.134.669-.375.912-.5.503-1.313.503-1.812 0l-1.658-1.669-.028-.029-.009-.008-7.621-7.673a.936.936 0 0 0-1.33 0 .951.951 0 0 0 0 1.34l7.646 7.697c.233.241.362.56.362.899 0 .344-.133.668-.375.911a1.276 1.276 0 0 1-1.81 0l-8.291-8.347a.936.936 0 0 0-1.33 0 .951.951 0 0 0 0 1.34l6.145 6.187.005.005c.242.243.375.566.375.91a1.286 1.286 0 0 1-1.524 1.267 3.42 3.42 0 0 0-.952-2.914 3.351 3.351 0 0 0-2.394-.999l-.075.002a3.41 3.41 0 0 0-.988-2.484 3.352 3.352 0 0 0-2.563-.994 3.413 3.413 0 0 0-.986-2.578 3.37 3.37 0 0 0-3.156-.909l-.674-.678a13.01 13.01 0 0 1-3.572-6.828 4.793 4.793 0 0 0-1.32-2.512l-1.659-1.67 9.432-9.495 2.35 2.367a4.778 4.778 0 0 0 3.395 1.396c.564 0 1.134-.098 1.684-.299.266-.098.542-.168.822-.212l-5.824 5.863a3.785 3.785 0 0 0-1.104 2.685 3.786 3.786 0 0 0 3.771 3.796c.966 0 1.932-.37 2.668-1.11l2.924-2.945.792.797.033.034.032.032h.001l.027.027 11.027 11.102c.242.243.375.567.375.911 0 .345-.133.67-.375.913Zm5.924-14.125a4.45 4.45 0 0 0-1.24 2.36 13.008 13.008 0 0 1-3.587 6.912l-.723.728-5.95-5.99a4.77 4.77 0 0 0 2.222-.343.95.95 0 0 0 .516-1.235.938.938 0 0 0-1.227-.518c-2.42.997-5.322-1.75-5.645-2.067a.794.794 0 0 0-.017-.016l-.033-.033-.03-.03-.792-.798.898-.904a.951.951 0 0 0 0-1.339.936.936 0 0 0-1.33 0l-1.56 1.571-.002.002-.002.002-3.588 3.613a1.884 1.884 0 0 1-2.675 0 1.898 1.898 0 0 1-.553-1.346c0-.51.196-.987.553-1.347l6.194-6.235a6.175 6.175 0 0 1 4.406-1.838 6.24 6.24 0 0 1 2.576.56c1.822.832 3.988.444 5.388-.966l1.31-1.318 7.697 7.75-2.806 2.825Zm5.294-2.998L42.144 7.087l4.38-4.41 10.09 10.16-4.38 4.41Z"/>
</svg>
