<svg xmlns="http://www.w3.org/2000/svg" width="50" height="50" fill="currentColor" viewBox="0 0 50 50">
  <path d="m49.859 27.042-3.334-5a.833.833 0 0 0-.691-.375h-.859a22.495 22.495 0 1 0-26.641 22.941v4.559a.833.833 0 0 0 .833.833h30a.833.833 0 0 0 .834-.833V27.483c-.03-.152-.078-.3-.142-.441Zm-4.475-3.709 2.225 3.334h-9.4l-.559-3.334h7.734ZM38.75 9.483a20.685 20.685 0 0 1 4.558 12.184h-8.317a38.025 38.025 0 0 0-1.466-9.934 24.867 24.867 0 0 0 5.224-2.25Zm-2.084 18.85v5.317l-2.1-1.058a.802.802 0 0 0-.742-.009l-2.158 1.075v-5.325h5Zm-4.85-1.666.559-3.334h3.583l.558 3.334h-4.7Zm5.817-18.459a24.33 24.33 0 0 1-4.625 1.95 19.305 19.305 0 0 0-4.7-7.658 20.74 20.74 0 0 1 9.325 5.708Zm-14.3-6.475c3.333.492 6.25 3.892 8.058 8.884-2.64.635-5.343.979-8.058 1.025V1.733Zm0 11.575a38.186 38.186 0 0 0 8.575-1.108 36.003 36.003 0 0 1 1.416 9.467h-9.991v-8.359Zm-.383 10.025h7.733l-.559 3.334h-9.4l2.226-3.334Zm-1.284-1.666h-9.992a36.007 36.007 0 0 1 1.417-9.467 38.186 38.186 0 0 0 8.575 1.108v8.359Zm0-19.934v9.909a37.138 37.138 0 0 1-8.058-1.025c1.808-4.992 4.725-8.392 8.058-8.884Zm-4.975.767a19.305 19.305 0 0 0-4.7 7.658 24.333 24.333 0 0 1-4.625-1.95A20.74 20.74 0 0 1 16.692 2.5ZM6.25 9.483a24.866 24.866 0 0 0 5.226 2.25 38.021 38.021 0 0 0-1.467 9.934H1.692A20.685 20.685 0 0 1 6.25 9.483Zm.034 26.009a20.803 20.803 0 0 1-4.575-12.159h8.308c.05 3.36.551 6.699 1.492 9.925a25.098 25.098 0 0 0-5.225 2.234ZM7.4 36.767a23.593 23.593 0 0 1 4.642-1.925 19.279 19.279 0 0 0 4.692 7.658A20.84 20.84 0 0 1 7.4 36.767Zm10.934 4.9a16.666 16.666 0 0 1-4.684-7.275 34.268 34.268 0 0 1 4.684-.825v8.1Zm.142-14.625c-.065.14-.113.289-.142.441v4.409c-1.76.175-3.503.481-5.217.916a35.465 35.465 0 0 1-1.433-9.475h9.258l-2.466 3.709Zm17.358 16.291a.833.833 0 0 0-.834.834v4.166h-1.666v-4.166a.833.833 0 0 0-.834-.834h-.724l2.391-2.866 2.392 2.866h-.725Zm12.5 5H36.667V45h1.667a.833.833 0 0 0 .641-1.367l-4.166-5a.86.86 0 0 0-1.283 0l-4.167 5A.834.834 0 0 0 30 45h1.667v3.333H20v-20h10V35a.833.833 0 0 0 1.2.75l2.992-1.483 2.934 1.475A.834.834 0 0 0 38.334 35v-6.667h10v20Z"/>
</svg>
