<svg xmlns="http://www.w3.org/2000/svg" width="18" height="18" fill="currentColor" viewBox="0 0 18 18">
  <path d="M17.942 8.012A15.097 15.097 0 0 0 9.939.037a.59.59 0 0 0-.755.337.592.592 0 0 0 .318.78A13.928 13.928 0 0 1 16.88 8.51a.591.591 0 0 0 .768.302.59.59 0 0 0 .295-.799ZM9.195 4.347A8.435 8.435 0 0 1 13.67 8.8a.59.59 0 0 0 .513.343.54.54 0 0 0 .23-.054.59.59 0 0 0 .283-.762A9.569 9.569 0 0 0 9.62 3.27a.59.59 0 0 0-.738.32.592.592 0 0 0 .313.756Zm5.684 7.023a1.364 1.364 0 0 0-2.072 0c-.484.48-.968.964-1.446 1.455a.282.282 0 0 1-.401.07c-.313-.17-.65-.307-.95-.496a14.995 14.995 0 0 1-3.624-3.31 8.634 8.634 0 0 1-1.304-2.081.296.296 0 0 1 .076-.385c.484-.473.956-.952 1.434-1.436a1.383 1.383 0 0 0 0-2.129c-.377-.384-.755-.756-1.139-1.14L4.273.734A1.47 1.47 0 0 0 3.24.268 1.485 1.485 0 0 0 2.201.74c-.49.479-.956.975-1.457 1.448a2.367 2.367 0 0 0-.738 1.597 6.803 6.803 0 0 0 .52 2.908 17.8 17.8 0 0 0 3.133 5.232 19.257 19.257 0 0 0 6.427 5.031 9.243 9.243 0 0 0 3.541 1.04h.23a2.541 2.541 0 0 0 2.013-.857c.413-.466.88-.892 1.322-1.336a1.39 1.39 0 0 0 0-2.116 321.691 321.691 0 0 0-2.313-2.318Zm1.487 3.613-.443.437c-.307.296-.62.591-.927.94a1.351 1.351 0 0 1-1.127.467h-.165a8.118 8.118 0 0 1-3.104-.916 18.3 18.3 0 0 1-6.038-4.73 16.511 16.511 0 0 1-2.95-4.883 5.619 5.619 0 0 1-.45-2.4 1.23 1.23 0 0 1 .379-.834c.306-.295.59-.59.902-.892l.59-.592a.236.236 0 0 1 .426 0c.26.255.513.515.767.775l.39.39.59.591.56.562c.219.219.207.26 0 .461l-.2.201a62.32 62.32 0 0 1-1.234 1.23 1.473 1.473 0 0 0-.325 1.679 9.45 9.45 0 0 0 1.476 2.364 16.153 16.153 0 0 0 3.919 3.548c.23.141.466.26.673.36l.318.16c.225.133.482.204.744.207a1.462 1.462 0 0 0 1.08-.485c.466-.479.938-.946 1.434-1.437a.384.384 0 0 1 .2-.136c.083.02.156.068.207.136a185.24 185.24 0 0 0 2.36 2.324c.137.207.154.26-.052.473Z"/>
</svg>
