<svg xmlns="http://www.w3.org/2000/svg" width="16" height="16" fill="currentColor" viewBox="0 0 16 16">
  <path d="M13.251 0a2.751 2.751 0 0 0-2.717 3.185L5.28 6.05A2.997 2.997 0 0 0 3.001 5a3 3 0 1 0 2.28 4.948l5.253 2.867A2.746 2.746 0 0 0 13.251 16a2.749 2.749 0 1 0 0-5.499 2.747 2.747 0 0 0-2.376 1.36L5.792 9.09c.133-.34.21-.707.21-1.092 0-.384-.076-.75-.209-1.088l5.082-2.772A2.752 2.752 0 0 0 16 2.75 2.75 2.75 0 0 0 13.251 0Zm0 1a1.75 1.75 0 1 1-.003 3.5 1.75 1.75 0 0 1 .003-3.5ZM3.001 6.002A2 2 0 1 1 1 7.998c0-1.11.902-1.996 2.001-1.996Zm10.25 5.499A1.75 1.75 0 1 1 13.25 15a1.75 1.75 0 0 1 .001-3.499Z"/>
</svg>
