<svg xmlns="http://www.w3.org/2000/svg" width="20" height="12" fill="currentColor" viewBox="0 0 20 12">
  <path d="M19.53.833c.147-.47 0-.811-.657-.811H16.69c-.55 0-.805.299-.953.619 0 0-1.123 2.733-2.69 4.505-.508.513-.741.684-1.017.684-.148 0-.339-.171-.339-.64V.81c0-.555-.17-.811-.635-.811H7.625c-.34 0-.55.256-.55.513 0 .533.783.662.868 2.156v3.248c0 .704-.125.833-.403.833-.741 0-2.542-2.755-3.622-5.893C3.708.235 3.495 0 2.944 0H.741C.106 0 0 .299 0 .62c0 .576.741 3.48 3.453 7.323 1.8 2.625 4.363 4.036 6.672 4.036 1.398 0 1.567-.32 1.567-.854V9.139c0-.64.127-.747.572-.747.318 0 .89.17 2.182 1.43C15.928 11.317 16.183 12 17.009 12h2.181c.636 0 .932-.32.763-.94-.19-.619-.91-1.515-1.843-2.583-.508-.597-1.27-1.26-1.504-1.58-.317-.427-.233-.598 0-.982-.021 0 2.648-3.8 2.923-5.083"/>
</svg>
