<svg width="388" height="360" viewBox="0 0 388 360" fill="none" xmlns="http://www.w3.org/2000/svg">
<g opacity="0.1">
<mask id="path-1-inside-1_225_7653" fill="white">
<path d="M149.309 343.004V353.475C149.309 354.504 148.533 355.369 147.506 355.479C108.817 359.597 69.1761 355.957 52.7829 353.211C51.8172 353.049 51.122 352.214 51.1195 351.239L50.7879 222.136C50.7862 221.499 51.0865 220.898 51.5981 220.515L123.378 166.753C124.098 166.214 125.09 166.211 125.813 166.748L234.111 247.118C234.647 247.515 234.952 248.15 234.927 248.814L234.772 252.983C234.711 254.616 232.831 255.507 231.52 254.524L155.471 197.504C154.158 196.52 152.277 197.414 152.219 199.049L150.732 241.082C150.694 242.171 149.796 243.034 148.702 243.034H134.476C133.329 243.034 132.41 243.978 132.446 245.119L135.37 338.291C135.403 339.326 136.215 340.17 137.253 340.245L147.426 340.986C148.487 341.064 149.309 341.944 149.309 343.004Z"/>
<path d="M213.797 0.810178C200.723 3.43156 188.593 10.0858 183.202 17.6811C180.978 20.773 180.776 21.3779 180.843 25.5452C180.978 29.9814 180.91 30.0486 178.821 30.8552C174.374 32.7372 169.724 38.7193 168.241 44.4326C167.365 47.995 168.308 52.1623 170.734 55.3214C172.621 57.8083 172.824 59.0182 171.341 59.0182C167.635 59.0182 160.289 64.6642 158.537 68.966C157.054 72.3267 157.391 80.4597 158.874 79.5187C159.211 79.3171 159.278 79.7204 159.076 80.3925C158.874 81.2663 159.615 82.3417 161.232 83.7533C162.513 84.9631 163.928 85.9041 164.198 85.9041C164.535 85.9041 165.276 86.9123 165.815 88.1222C169.05 94.8437 177.878 97.465 189.469 95.0453C192.434 94.4404 194.928 94.1043 195.062 94.2387C195.197 94.3732 194.725 95.583 193.917 96.9273C193.175 98.2716 192.569 100.154 192.569 101.027C192.569 102.842 194.725 104.388 196.343 103.783C196.949 103.582 197.151 103.716 196.949 104.052C195.13 106.942 220.94 101.095 231.52 96.2552C232.801 95.6503 233.946 95.3142 234.081 95.5158C234.418 95.7847 236.17 100.355 239.809 110.101C243.448 119.848 251.266 143.373 252.748 149.086C255.309 159.034 257.802 171.67 258.611 178.795C259.352 186.054 259.487 208.302 258.813 219.258C258.207 229.609 258.005 229.408 251.737 211.26C250.255 206.824 248.705 202.589 248.3 201.85C247.896 201.11 246.616 197.682 245.403 194.322L243.246 188.138L246.211 186.39C247.829 185.449 249.581 184.038 250.187 183.231C251.266 181.618 251.535 177.518 250.592 176.039C250.255 175.501 250.794 173.619 252.276 170.796C255.444 164.747 255.376 161.857 252.007 158.496C249.985 156.412 248.637 155.74 245.268 155.135L241.09 154.262L242.707 151.506C243.583 150.027 244.594 147.271 244.998 145.456C246.885 136.45 239.607 128.249 229.633 128.249C225.118 128.249 223.636 128.787 220.536 131.677C218.11 133.963 217.571 134.03 213.999 132.215C210.023 130.199 203.419 130.199 198.971 132.148C192.973 134.904 188.256 141.491 188.188 147.338V150.632L184.482 151.506C175.047 153.858 169.117 156.48 164.872 160.311C162.58 162.395 162.176 163.067 162.378 165.15C162.513 167.032 163.052 167.772 164.939 168.914C166.961 170.057 168.713 170.259 177.608 170.46C186.436 170.662 187.919 170.864 187.582 171.737C185.965 175.972 187.38 179.938 191.693 182.828C196.949 186.457 200.993 187.533 208.406 187.264C214.201 187.062 215.684 186.794 218.986 185.113L222.894 183.164L224.31 184.979C226.601 187.869 229.027 188.743 234.822 188.743H240.146L241.359 191.902C242.033 193.717 243.179 196.809 243.92 198.825C244.661 200.841 245.605 203.396 246.077 204.538C248.233 209.445 248.772 211.058 251.266 218.452C252.681 222.753 254.433 229.004 255.242 232.231C255.983 235.457 256.926 239.423 257.331 241.036C258.072 243.657 257.802 280.693 257.061 286.54C256.859 287.616 256.589 291.716 256.32 295.614C255.579 307.78 253.422 328.886 252.479 333.725C251.805 337.019 251.603 337.288 249.311 337.892C246.077 338.766 230.846 341.993 226.938 342.732C225.253 343.001 222.423 343.606 220.536 344.009C218.716 344.412 214.875 345.152 212.112 345.689C209.349 346.16 206.047 346.832 204.901 347.034L202.677 347.504V343.673C202.677 341.589 202.947 335.54 203.351 330.297C203.688 325.122 204.295 314.3 204.699 306.369C205.912 281.096 206.721 263.217 207.058 255.622C207.407 246.377 208.187 239.362 208.787 235.071C209.103 232.812 211.678 231.812 213.499 233.187L213.595 233.258L217.361 236.129L220.747 238.652L226.841 243.034L233.003 247.416L238.353 251.798C238.353 251.798 243.431 256.18 243.431 250.449C243.431 247.416 243.77 248.764 233.003 240.162C228.353 236.465 224.444 233.306 224.242 233.105C224.04 232.903 221.816 231.088 219.188 229.072C216.627 227.055 214.066 225.039 213.595 224.501C213.055 224.031 211.573 222.888 210.225 221.88C208.81 220.871 206.519 218.989 205.036 217.645C203.553 216.368 201.262 214.553 199.982 213.612C198.701 212.671 195.669 210.252 193.243 208.235C190.817 206.219 183.539 200.304 177.069 195.128C170.6 189.953 164.804 185.248 164.198 184.71C162.378 183.029 160.222 181.349 159.885 181.349C159.48 181.349 156.583 178.929 154.291 176.779C153.415 175.905 150.652 173.687 148.159 171.805C145.733 169.855 143.576 168.175 143.374 167.906C143.172 167.705 140.948 165.89 138.32 163.873C132.861 159.572 131.783 158.698 129.357 156.614C124.37 152.312 123.43 152.501 120.869 154.719C120.052 155.427 114.396 160.085 114.396 160.085L117.822 157.416C117.822 157.416 107.86 165.218 100.918 170.393C98.1554 172.477 95.7294 174.359 95.5272 174.628C95.325 174.829 93.9772 175.905 92.4946 177.047C91.0121 178.123 89.3947 179.4 88.8556 179.87C88.3165 180.341 87.1034 181.282 86.16 181.887C84.4078 183.03 83.4644 183.702 79.7579 186.726C78.6123 187.667 75.8493 189.818 73.6254 191.431C71.4016 193.112 69.2451 194.725 68.8407 195.128C68.0321 195.868 66.4821 197.145 59.1366 202.656C56.3736 204.807 53.9475 206.689 53.7454 206.891C53.5432 207.092 50.9824 209.042 48.0172 211.26C43.4347 214.62 39.5261 217.645 34.2022 221.88C33.6631 222.35 32.1132 223.426 30.8328 224.367C29.5523 225.24 28.2045 226.316 27.8002 226.786C27.4632 227.19 25.3068 228.87 23.0829 230.483C20.859 232.096 18.096 234.18 16.9504 235.121C13.1092 238.213 12.3005 238.818 9.94184 240.498C8.66143 241.372 6.70712 242.985 5.56149 243.993C4.48324 245.069 3.06805 246.01 2.46154 246.211C0.844182 246.749 -0.368839 249.572 0.102891 251.521C0.642012 253.605 2.19198 253.739 4.55063 251.925C5.49409 251.185 6.50495 250.58 6.77451 250.58C7.04407 250.58 9.06577 249.438 11.1549 247.959C13.244 246.548 16.2091 244.666 17.6917 243.725C19.1743 242.783 22.9481 240.364 26.1154 238.347C29.2828 236.398 33.461 233.71 35.4153 232.5C37.3022 231.29 39.3239 230.416 39.863 230.618C40.5369 230.886 40.8739 233.172 41.2108 239.624C41.413 244.329 41.8847 254.277 42.3564 261.671C42.7608 269.064 43.3673 280.088 43.7042 286.204C44.6477 303.21 45.7259 327.609 46.2651 340.984L46.6694 353.083L52.0606 354.158C56.8453 355.099 64.1234 356.242 78.0058 358.124C89.7317 359.737 106.377 360.275 132.255 359.872C159.75 359.468 167.702 359.065 183.808 357.183C188.795 356.578 195.601 355.772 198.971 355.436C202.273 355.032 208.069 354.293 211.775 353.755C215.481 353.217 220.805 352.411 223.568 352.008C228.083 351.403 232.464 350.663 244.459 348.714C246.481 348.378 250.457 347.571 253.22 347.034C255.983 346.429 259.824 345.689 261.644 345.353C264.744 344.816 287.926 340.043 292.643 338.968C296.417 338.161 311.984 334.464 329.034 330.364C332.875 329.423 340.76 327.34 351.272 324.449C353.901 323.71 359.359 322.299 363.403 321.223C367.513 320.148 373.579 318.467 376.881 317.459C380.25 316.451 383.687 315.443 384.63 315.241C387.73 314.636 388 313.964 388 307.041C388 302.605 387.73 300.252 387.191 299.782C386.383 299.177 379.172 300.857 373.511 303.008C372.77 303.277 371.085 303.815 369.805 304.218C368.524 304.621 363.066 306.301 357.674 307.982C352.283 309.662 346.218 311.477 344.196 312.015C342.175 312.552 338.536 313.628 336.11 314.367C327.619 316.989 301.404 324.651 299.045 325.189C296.889 325.659 294.867 326.197 285.904 328.751C281.524 329.961 276.267 331.238 275.526 331.238C274.919 331.238 274.111 327.138 272.83 318.131C270 298.236 269.259 281.499 269.528 246.211C269.73 213.747 269.663 214.352 273.437 206.891C275.998 201.782 280.85 194.456 286.039 187.802L288.6 184.575L297.697 184.441C305.717 184.374 307.402 184.105 312.186 182.425C317.982 180.408 320.745 178.929 324.99 175.569C327.147 173.888 328.562 173.351 331.931 173.014C339.344 172.275 348.375 167.032 351.205 161.722C353.698 157.152 350.666 150.968 344.129 147.406C340.692 145.524 340.018 145.389 333.077 145.389H325.664L324.249 142.701C323.44 141.222 322.295 139.004 321.688 137.794C319.397 133.559 313.062 129.661 308.345 129.594C304.099 129.594 297.967 133.627 294.8 138.466C294.193 139.474 292.778 140.55 291.767 140.751C288.263 141.625 284.556 143.574 282.4 145.658C279.232 148.683 276.065 155.27 275.661 159.773C275.526 161.857 274.583 165.083 273.706 166.965C272.763 168.847 272.224 170.864 272.493 171.469C273.033 172.88 275.998 174.829 276.806 174.292C277.211 174.09 277.48 174.224 277.48 174.56C277.48 175.031 279.098 175.3 281.524 175.3H285.567L284.826 177.115C284.422 178.19 284.287 180.139 284.489 181.551C284.826 183.433 284.624 184.508 283.748 185.651C283.074 186.525 282.063 187.936 281.524 188.743C280.985 189.549 279.502 191.566 278.356 193.179C277.143 194.725 276.133 196.338 276.133 196.741C276.133 197.077 275.863 197.481 275.593 197.615C275.256 197.682 274.043 199.228 272.83 200.976C271.685 202.791 270.404 204.202 270.067 204.202C269.191 204.202 269.73 170.796 270.674 165.89C271.954 159.034 274.717 151.506 277.682 146.734C281.254 141.087 286.982 132.686 289.476 129.594C297.495 119.511 296.417 120.385 301.875 119.848C308.682 119.175 316.162 117.428 325.664 114.134C330.112 112.588 335.907 110.639 338.536 109.765L343.32 108.152L347.633 109.497C352.418 111.042 357.068 110.908 364.009 109.093C374.455 106.337 383.283 99.8176 383.283 94.7765C383.283 93.2305 378.633 88.7943 374.522 86.4418C370.681 84.2237 365.357 83.2155 361.246 83.9549C359.561 84.291 358.079 84.4926 358.011 84.4254C357.944 84.291 356.731 82.409 355.316 80.1909C353.901 77.9728 351.812 75.3514 350.666 74.3432C345.881 70.1759 336.851 67.3528 330.853 68.025C327.282 68.4283 327.147 68.4283 325.058 66.0085C323.71 64.4626 322.564 63.656 322.092 63.9921C321.621 64.261 321.419 64.7987 321.621 65.1348C321.823 65.4708 321.553 65.538 321.014 65.3364C320.408 65.0675 319.801 65.3364 319.532 66.0085C319.33 66.5463 316.769 68.4283 313.871 70.1086C308.278 73.4022 304.841 76.6957 303.358 80.1909C302.886 81.4007 301.673 82.8795 300.73 83.4844C298.776 84.7615 291.497 85.8369 284.758 85.9041C280.985 85.9041 280.176 86.1057 279.839 87.1812C279.232 89.1304 274.043 94.1715 270.741 96.0535C269.057 96.9946 265.148 98.8093 262.048 100.019C252.344 103.85 248.84 108.824 252.816 113.126C256.32 116.89 268.315 119.512 282.4 119.512C287.724 119.512 290.958 119.78 290.958 120.184C290.958 121.057 288.869 124.217 283.613 131.476C281.322 134.568 279.502 137.256 279.502 137.391C279.502 137.592 279.03 138.197 278.424 138.802C277.885 139.407 275.526 142.633 273.302 145.994C271.011 149.355 268.989 152.245 268.787 152.447C268.585 152.648 267.507 154.06 266.428 155.606C265.35 157.219 264.137 158.496 263.665 158.496C263.261 158.496 262.318 156.681 261.644 154.463C260.97 152.178 260.161 150.229 259.824 150.027C259.555 149.825 259.285 149.086 259.285 148.414C259.285 147.742 258.678 145.725 257.87 143.91C257.061 142.163 255.309 137.323 253.894 133.291C252.479 129.19 250.457 123.746 249.513 121.192C248.503 118.571 246.885 114.202 245.807 111.446C244.796 108.69 243.785 105.934 243.583 105.396C242.438 102.506 240.955 97.2634 241.224 96.9946C241.359 96.7929 242.707 96.9946 244.19 97.3978C247.963 98.4733 257.6 97.7339 261.374 96.1208C263.059 95.3814 265.148 93.8355 266.091 92.6928C266.967 91.5501 268.383 89.7354 269.259 88.5927C270.404 87.114 271.415 86.5763 272.898 86.5763C274.246 86.5763 275.593 85.9041 276.941 84.5598C278.761 82.745 279.367 82.5434 283.208 82.5434C289.341 82.5434 291.228 82.0057 293.991 79.3843C295.339 78.1072 297.765 76.4941 299.315 75.8219C300.865 75.1498 302.886 73.7382 303.83 72.73C304.706 71.6546 307.738 69.3693 310.501 67.6217C321.149 61.0346 325.597 55.3214 325.529 48.2638C325.462 41.9456 322.16 37.5767 315.017 34.3504C311.647 32.8044 311.041 32.1995 310.367 29.9814C308.884 24.9403 303.628 21.3107 294.665 19.0254C288.532 17.4122 278.559 17.345 272.965 18.8237C268.989 19.9664 268.72 19.8992 266.024 18.6221C260.296 15.8663 251.468 15.1269 242.505 16.6729C238.327 17.4122 238.125 17.2778 237.451 13.1777C236.305 6.18736 232.396 2.2889 224.916 0.608534C221.142 -0.265258 218.918 -0.198044 213.797 0.810178ZM129.29 170.46C131.783 172.208 136.298 175.501 139.398 177.854C153.954 188.81 165.343 197.346 182.46 209.983C189.334 215.091 195.062 219.46 195.264 219.729C195.467 219.93 196.814 220.939 198.364 221.88C203.756 225.24 203.553 224.77 203.082 236.129C202.88 241.641 202.34 252.126 202.003 259.318C201.667 266.51 200.993 279.214 200.588 287.549C200.184 295.883 199.443 309.259 198.904 317.325C198.364 325.323 197.96 334.935 197.96 338.632C197.96 347.302 197.556 348.445 193.782 348.916C192.165 349.117 188.93 349.655 186.504 349.991C175.519 351.604 171.611 352.142 165.95 352.747C162.648 353.083 159.009 353.486 157.863 353.688C155.37 354.091 149.776 354.495 129.357 355.772C105.097 357.183 83.127 355.313 55.2275 351.818C53.5015 351.9 52.0561 350.525 52.0508 348.797L51.8584 286.742L51.7298 224.121C51.726 222.254 52.6382 220.504 54.171 219.438L58.2339 216.404C58.2339 216.404 82.9926 197.413 89.3947 192.91C91.0795 191.767 92.9664 190.356 93.5729 189.818C94.1794 189.348 97.0772 187.13 99.9749 184.979C102.94 182.828 105.434 180.879 105.636 180.677C105.838 180.475 107.051 179.534 108.331 178.661C109.612 177.787 111.162 176.577 111.768 176.039C112.375 175.434 113.52 174.493 114.396 173.956C115.205 173.418 116.553 172.41 117.294 171.805C118.103 171.132 119.114 170.393 119.451 170.057C121.338 168.578 123.561 167.234 124.168 167.234C124.505 167.234 126.864 168.713 129.29 170.46Z"/>
<path d="M140.319 251.99C139.311 253.06 139.311 255.399 139.848 276.191C140.453 298.587 140.655 303.401 141.596 322.187L142.066 331.011L158.264 330.878L174.462 330.677L174.866 324.66C175.134 321.317 175.538 314.298 175.739 308.949C176.008 303.601 176.344 297.116 176.479 294.576C176.68 291.969 177.151 283.545 177.487 275.857C177.89 268.102 178.361 259.945 178.562 257.739C178.966 254.129 178.831 253.461 177.554 252.19C176.21 250.853 175.605 250.787 158.802 250.787C142.94 250.787 141.327 250.92 140.319 251.99Z"/>
</mask>
<path d="M149.309 343.004V353.475C149.309 354.504 148.533 355.369 147.506 355.479C108.817 359.597 69.1761 355.957 52.7829 353.211C51.8172 353.049 51.122 352.214 51.1195 351.239L50.7879 222.136C50.7862 221.499 51.0865 220.898 51.5981 220.515L123.378 166.753C124.098 166.214 125.09 166.211 125.813 166.748L234.111 247.118C234.647 247.515 234.952 248.15 234.927 248.814L234.772 252.983C234.711 254.616 232.831 255.507 231.52 254.524L155.471 197.504C154.158 196.52 152.277 197.414 152.219 199.049L150.732 241.082C150.694 242.171 149.796 243.034 148.702 243.034H134.476C133.329 243.034 132.41 243.978 132.446 245.119L135.37 338.291C135.403 339.326 136.215 340.17 137.253 340.245L147.426 340.986C148.487 341.064 149.309 341.944 149.309 343.004Z" fill="#2F2F2F"/>
<path d="M213.797 0.810178C200.723 3.43156 188.593 10.0858 183.202 17.6811C180.978 20.773 180.776 21.3779 180.843 25.5452C180.978 29.9814 180.91 30.0486 178.821 30.8552C174.374 32.7372 169.724 38.7193 168.241 44.4326C167.365 47.995 168.308 52.1623 170.734 55.3214C172.621 57.8083 172.824 59.0182 171.341 59.0182C167.635 59.0182 160.289 64.6642 158.537 68.966C157.054 72.3267 157.391 80.4597 158.874 79.5187C159.211 79.3171 159.278 79.7204 159.076 80.3925C158.874 81.2663 159.615 82.3417 161.232 83.7533C162.513 84.9631 163.928 85.9041 164.198 85.9041C164.535 85.9041 165.276 86.9123 165.815 88.1222C169.05 94.8437 177.878 97.465 189.469 95.0453C192.434 94.4404 194.928 94.1043 195.062 94.2387C195.197 94.3732 194.725 95.583 193.917 96.9273C193.175 98.2716 192.569 100.154 192.569 101.027C192.569 102.842 194.725 104.388 196.343 103.783C196.949 103.582 197.151 103.716 196.949 104.052C195.13 106.942 220.94 101.095 231.52 96.2552C232.801 95.6503 233.946 95.3142 234.081 95.5158C234.418 95.7847 236.17 100.355 239.809 110.101C243.448 119.848 251.266 143.373 252.748 149.086C255.309 159.034 257.802 171.67 258.611 178.795C259.352 186.054 259.487 208.302 258.813 219.258C258.207 229.609 258.005 229.408 251.737 211.26C250.255 206.824 248.705 202.589 248.3 201.85C247.896 201.11 246.616 197.682 245.403 194.322L243.246 188.138L246.211 186.39C247.829 185.449 249.581 184.038 250.187 183.231C251.266 181.618 251.535 177.518 250.592 176.039C250.255 175.501 250.794 173.619 252.276 170.796C255.444 164.747 255.376 161.857 252.007 158.496C249.985 156.412 248.637 155.74 245.268 155.135L241.09 154.262L242.707 151.506C243.583 150.027 244.594 147.271 244.998 145.456C246.885 136.45 239.607 128.249 229.633 128.249C225.118 128.249 223.636 128.787 220.536 131.677C218.11 133.963 217.571 134.03 213.999 132.215C210.023 130.199 203.419 130.199 198.971 132.148C192.973 134.904 188.256 141.491 188.188 147.338V150.632L184.482 151.506C175.047 153.858 169.117 156.48 164.872 160.311C162.58 162.395 162.176 163.067 162.378 165.15C162.513 167.032 163.052 167.772 164.939 168.914C166.961 170.057 168.713 170.259 177.608 170.46C186.436 170.662 187.919 170.864 187.582 171.737C185.965 175.972 187.38 179.938 191.693 182.828C196.949 186.457 200.993 187.533 208.406 187.264C214.201 187.062 215.684 186.794 218.986 185.113L222.894 183.164L224.31 184.979C226.601 187.869 229.027 188.743 234.822 188.743H240.146L241.359 191.902C242.033 193.717 243.179 196.809 243.92 198.825C244.661 200.841 245.605 203.396 246.077 204.538C248.233 209.445 248.772 211.058 251.266 218.452C252.681 222.753 254.433 229.004 255.242 232.231C255.983 235.457 256.926 239.423 257.331 241.036C258.072 243.657 257.802 280.693 257.061 286.54C256.859 287.616 256.589 291.716 256.32 295.614C255.579 307.78 253.422 328.886 252.479 333.725C251.805 337.019 251.603 337.288 249.311 337.892C246.077 338.766 230.846 341.993 226.938 342.732C225.253 343.001 222.423 343.606 220.536 344.009C218.716 344.412 214.875 345.152 212.112 345.689C209.349 346.16 206.047 346.832 204.901 347.034L202.677 347.504V343.673C202.677 341.589 202.947 335.54 203.351 330.297C203.688 325.122 204.295 314.3 204.699 306.369C205.912 281.096 206.721 263.217 207.058 255.622C207.407 246.377 208.187 239.362 208.787 235.071C209.103 232.812 211.678 231.812 213.499 233.187L213.595 233.258L217.361 236.129L220.747 238.652L226.841 243.034L233.003 247.416L238.353 251.798C238.353 251.798 243.431 256.18 243.431 250.449C243.431 247.416 243.77 248.764 233.003 240.162C228.353 236.465 224.444 233.306 224.242 233.105C224.04 232.903 221.816 231.088 219.188 229.072C216.627 227.055 214.066 225.039 213.595 224.501C213.055 224.031 211.573 222.888 210.225 221.88C208.81 220.871 206.519 218.989 205.036 217.645C203.553 216.368 201.262 214.553 199.982 213.612C198.701 212.671 195.669 210.252 193.243 208.235C190.817 206.219 183.539 200.304 177.069 195.128C170.6 189.953 164.804 185.248 164.198 184.71C162.378 183.029 160.222 181.349 159.885 181.349C159.48 181.349 156.583 178.929 154.291 176.779C153.415 175.905 150.652 173.687 148.159 171.805C145.733 169.855 143.576 168.175 143.374 167.906C143.172 167.705 140.948 165.89 138.32 163.873C132.861 159.572 131.783 158.698 129.357 156.614C124.37 152.312 123.43 152.501 120.869 154.719C120.052 155.427 114.396 160.085 114.396 160.085L117.822 157.416C117.822 157.416 107.86 165.218 100.918 170.393C98.1554 172.477 95.7294 174.359 95.5272 174.628C95.325 174.829 93.9772 175.905 92.4946 177.047C91.0121 178.123 89.3947 179.4 88.8556 179.87C88.3165 180.341 87.1034 181.282 86.16 181.887C84.4078 183.03 83.4644 183.702 79.7579 186.726C78.6123 187.667 75.8493 189.818 73.6254 191.431C71.4016 193.112 69.2451 194.725 68.8407 195.128C68.0321 195.868 66.4821 197.145 59.1366 202.656C56.3736 204.807 53.9475 206.689 53.7454 206.891C53.5432 207.092 50.9824 209.042 48.0172 211.26C43.4347 214.62 39.5261 217.645 34.2022 221.88C33.6631 222.35 32.1132 223.426 30.8328 224.367C29.5523 225.24 28.2045 226.316 27.8002 226.786C27.4632 227.19 25.3068 228.87 23.0829 230.483C20.859 232.096 18.096 234.18 16.9504 235.121C13.1092 238.213 12.3005 238.818 9.94184 240.498C8.66143 241.372 6.70712 242.985 5.56149 243.993C4.48324 245.069 3.06805 246.01 2.46154 246.211C0.844182 246.749 -0.368839 249.572 0.102891 251.521C0.642012 253.605 2.19198 253.739 4.55063 251.925C5.49409 251.185 6.50495 250.58 6.77451 250.58C7.04407 250.58 9.06577 249.438 11.1549 247.959C13.244 246.548 16.2091 244.666 17.6917 243.725C19.1743 242.783 22.9481 240.364 26.1154 238.347C29.2828 236.398 33.461 233.71 35.4153 232.5C37.3022 231.29 39.3239 230.416 39.863 230.618C40.5369 230.886 40.8739 233.172 41.2108 239.624C41.413 244.329 41.8847 254.277 42.3564 261.671C42.7608 269.064 43.3673 280.088 43.7042 286.204C44.6477 303.21 45.7259 327.609 46.2651 340.984L46.6694 353.083L52.0606 354.158C56.8453 355.099 64.1234 356.242 78.0058 358.124C89.7317 359.737 106.377 360.275 132.255 359.872C159.75 359.468 167.702 359.065 183.808 357.183C188.795 356.578 195.601 355.772 198.971 355.436C202.273 355.032 208.069 354.293 211.775 353.755C215.481 353.217 220.805 352.411 223.568 352.008C228.083 351.403 232.464 350.663 244.459 348.714C246.481 348.378 250.457 347.571 253.22 347.034C255.983 346.429 259.824 345.689 261.644 345.353C264.744 344.816 287.926 340.043 292.643 338.968C296.417 338.161 311.984 334.464 329.034 330.364C332.875 329.423 340.76 327.34 351.272 324.449C353.901 323.71 359.359 322.299 363.403 321.223C367.513 320.148 373.579 318.467 376.881 317.459C380.25 316.451 383.687 315.443 384.63 315.241C387.73 314.636 388 313.964 388 307.041C388 302.605 387.73 300.252 387.191 299.782C386.383 299.177 379.172 300.857 373.511 303.008C372.77 303.277 371.085 303.815 369.805 304.218C368.524 304.621 363.066 306.301 357.674 307.982C352.283 309.662 346.218 311.477 344.196 312.015C342.175 312.552 338.536 313.628 336.11 314.367C327.619 316.989 301.404 324.651 299.045 325.189C296.889 325.659 294.867 326.197 285.904 328.751C281.524 329.961 276.267 331.238 275.526 331.238C274.919 331.238 274.111 327.138 272.83 318.131C270 298.236 269.259 281.499 269.528 246.211C269.73 213.747 269.663 214.352 273.437 206.891C275.998 201.782 280.85 194.456 286.039 187.802L288.6 184.575L297.697 184.441C305.717 184.374 307.402 184.105 312.186 182.425C317.982 180.408 320.745 178.929 324.99 175.569C327.147 173.888 328.562 173.351 331.931 173.014C339.344 172.275 348.375 167.032 351.205 161.722C353.698 157.152 350.666 150.968 344.129 147.406C340.692 145.524 340.018 145.389 333.077 145.389H325.664L324.249 142.701C323.44 141.222 322.295 139.004 321.688 137.794C319.397 133.559 313.062 129.661 308.345 129.594C304.099 129.594 297.967 133.627 294.8 138.466C294.193 139.474 292.778 140.55 291.767 140.751C288.263 141.625 284.556 143.574 282.4 145.658C279.232 148.683 276.065 155.27 275.661 159.773C275.526 161.857 274.583 165.083 273.706 166.965C272.763 168.847 272.224 170.864 272.493 171.469C273.033 172.88 275.998 174.829 276.806 174.292C277.211 174.09 277.48 174.224 277.48 174.56C277.48 175.031 279.098 175.3 281.524 175.3H285.567L284.826 177.115C284.422 178.19 284.287 180.139 284.489 181.551C284.826 183.433 284.624 184.508 283.748 185.651C283.074 186.525 282.063 187.936 281.524 188.743C280.985 189.549 279.502 191.566 278.356 193.179C277.143 194.725 276.133 196.338 276.133 196.741C276.133 197.077 275.863 197.481 275.593 197.615C275.256 197.682 274.043 199.228 272.83 200.976C271.685 202.791 270.404 204.202 270.067 204.202C269.191 204.202 269.73 170.796 270.674 165.89C271.954 159.034 274.717 151.506 277.682 146.734C281.254 141.087 286.982 132.686 289.476 129.594C297.495 119.511 296.417 120.385 301.875 119.848C308.682 119.175 316.162 117.428 325.664 114.134C330.112 112.588 335.907 110.639 338.536 109.765L343.32 108.152L347.633 109.497C352.418 111.042 357.068 110.908 364.009 109.093C374.455 106.337 383.283 99.8176 383.283 94.7765C383.283 93.2305 378.633 88.7943 374.522 86.4418C370.681 84.2237 365.357 83.2155 361.246 83.9549C359.561 84.291 358.079 84.4926 358.011 84.4254C357.944 84.291 356.731 82.409 355.316 80.1909C353.901 77.9728 351.812 75.3514 350.666 74.3432C345.881 70.1759 336.851 67.3528 330.853 68.025C327.282 68.4283 327.147 68.4283 325.058 66.0085C323.71 64.4626 322.564 63.656 322.092 63.9921C321.621 64.261 321.419 64.7987 321.621 65.1348C321.823 65.4708 321.553 65.538 321.014 65.3364C320.408 65.0675 319.801 65.3364 319.532 66.0085C319.33 66.5463 316.769 68.4283 313.871 70.1086C308.278 73.4022 304.841 76.6957 303.358 80.1909C302.886 81.4007 301.673 82.8795 300.73 83.4844C298.776 84.7615 291.497 85.8369 284.758 85.9041C280.985 85.9041 280.176 86.1057 279.839 87.1812C279.232 89.1304 274.043 94.1715 270.741 96.0535C269.057 96.9946 265.148 98.8093 262.048 100.019C252.344 103.85 248.84 108.824 252.816 113.126C256.32 116.89 268.315 119.512 282.4 119.512C287.724 119.512 290.958 119.78 290.958 120.184C290.958 121.057 288.869 124.217 283.613 131.476C281.322 134.568 279.502 137.256 279.502 137.391C279.502 137.592 279.03 138.197 278.424 138.802C277.885 139.407 275.526 142.633 273.302 145.994C271.011 149.355 268.989 152.245 268.787 152.447C268.585 152.648 267.507 154.06 266.428 155.606C265.35 157.219 264.137 158.496 263.665 158.496C263.261 158.496 262.318 156.681 261.644 154.463C260.97 152.178 260.161 150.229 259.824 150.027C259.555 149.825 259.285 149.086 259.285 148.414C259.285 147.742 258.678 145.725 257.87 143.91C257.061 142.163 255.309 137.323 253.894 133.291C252.479 129.19 250.457 123.746 249.513 121.192C248.503 118.571 246.885 114.202 245.807 111.446C244.796 108.69 243.785 105.934 243.583 105.396C242.438 102.506 240.955 97.2634 241.224 96.9946C241.359 96.7929 242.707 96.9946 244.19 97.3978C247.963 98.4733 257.6 97.7339 261.374 96.1208C263.059 95.3814 265.148 93.8355 266.091 92.6928C266.967 91.5501 268.383 89.7354 269.259 88.5927C270.404 87.114 271.415 86.5763 272.898 86.5763C274.246 86.5763 275.593 85.9041 276.941 84.5598C278.761 82.745 279.367 82.5434 283.208 82.5434C289.341 82.5434 291.228 82.0057 293.991 79.3843C295.339 78.1072 297.765 76.4941 299.315 75.8219C300.865 75.1498 302.886 73.7382 303.83 72.73C304.706 71.6546 307.738 69.3693 310.501 67.6217C321.149 61.0346 325.597 55.3214 325.529 48.2638C325.462 41.9456 322.16 37.5767 315.017 34.3504C311.647 32.8044 311.041 32.1995 310.367 29.9814C308.884 24.9403 303.628 21.3107 294.665 19.0254C288.532 17.4122 278.559 17.345 272.965 18.8237C268.989 19.9664 268.72 19.8992 266.024 18.6221C260.296 15.8663 251.468 15.1269 242.505 16.6729C238.327 17.4122 238.125 17.2778 237.451 13.1777C236.305 6.18736 232.396 2.2889 224.916 0.608534C221.142 -0.265258 218.918 -0.198044 213.797 0.810178ZM129.29 170.46C131.783 172.208 136.298 175.501 139.398 177.854C153.954 188.81 165.343 197.346 182.46 209.983C189.334 215.091 195.062 219.46 195.264 219.729C195.467 219.93 196.814 220.939 198.364 221.88C203.756 225.24 203.553 224.77 203.082 236.129C202.88 241.641 202.34 252.126 202.003 259.318C201.667 266.51 200.993 279.214 200.588 287.549C200.184 295.883 199.443 309.259 198.904 317.325C198.364 325.323 197.96 334.935 197.96 338.632C197.96 347.302 197.556 348.445 193.782 348.916C192.165 349.117 188.93 349.655 186.504 349.991C175.519 351.604 171.611 352.142 165.95 352.747C162.648 353.083 159.009 353.486 157.863 353.688C155.37 354.091 149.776 354.495 129.357 355.772C105.097 357.183 83.127 355.313 55.2275 351.818C53.5015 351.9 52.0561 350.525 52.0508 348.797L51.8584 286.742L51.7298 224.121C51.726 222.254 52.6382 220.504 54.171 219.438L58.2339 216.404C58.2339 216.404 82.9926 197.413 89.3947 192.91C91.0795 191.767 92.9664 190.356 93.5729 189.818C94.1794 189.348 97.0772 187.13 99.9749 184.979C102.94 182.828 105.434 180.879 105.636 180.677C105.838 180.475 107.051 179.534 108.331 178.661C109.612 177.787 111.162 176.577 111.768 176.039C112.375 175.434 113.52 174.493 114.396 173.956C115.205 173.418 116.553 172.41 117.294 171.805C118.103 171.132 119.114 170.393 119.451 170.057C121.338 168.578 123.561 167.234 124.168 167.234C124.505 167.234 126.864 168.713 129.29 170.46Z" fill="#2F2F2F"/>
<path d="M140.319 251.99C139.311 253.06 139.311 255.399 139.848 276.191C140.453 298.587 140.655 303.401 141.596 322.187L142.066 331.011L158.264 330.878L174.462 330.677L174.866 324.66C175.134 321.317 175.538 314.298 175.739 308.949C176.008 303.601 176.344 297.116 176.479 294.576C176.68 291.969 177.151 283.545 177.487 275.857C177.89 268.102 178.361 259.945 178.562 257.739C178.966 254.129 178.831 253.461 177.554 252.19C176.21 250.853 175.605 250.787 158.802 250.787C142.94 250.787 141.327 250.92 140.319 251.99Z" fill="#2F2F2F"/>
<path d="M149.309 343.004V353.475C149.309 354.504 148.533 355.369 147.506 355.479C108.817 359.597 69.1761 355.957 52.7829 353.211C51.8172 353.049 51.122 352.214 51.1195 351.239L50.7879 222.136C50.7862 221.499 51.0865 220.898 51.5981 220.515L123.378 166.753C124.098 166.214 125.09 166.211 125.813 166.748L234.111 247.118C234.647 247.515 234.952 248.15 234.927 248.814L234.772 252.983C234.711 254.616 232.831 255.507 231.52 254.524L155.471 197.504C154.158 196.52 152.277 197.414 152.219 199.049L150.732 241.082C150.694 242.171 149.796 243.034 148.702 243.034H134.476C133.329 243.034 132.41 243.978 132.446 245.119L135.37 338.291C135.403 339.326 136.215 340.17 137.253 340.245L147.426 340.986C148.487 341.064 149.309 341.944 149.309 343.004Z" stroke="white" stroke-width="2" mask="url(#path-1-inside-1_225_7653)"/>
<path d="M213.797 0.810178C200.723 3.43156 188.593 10.0858 183.202 17.6811C180.978 20.773 180.776 21.3779 180.843 25.5452C180.978 29.9814 180.91 30.0486 178.821 30.8552C174.374 32.7372 169.724 38.7193 168.241 44.4326C167.365 47.995 168.308 52.1623 170.734 55.3214C172.621 57.8083 172.824 59.0182 171.341 59.0182C167.635 59.0182 160.289 64.6642 158.537 68.966C157.054 72.3267 157.391 80.4597 158.874 79.5187C159.211 79.3171 159.278 79.7204 159.076 80.3925C158.874 81.2663 159.615 82.3417 161.232 83.7533C162.513 84.9631 163.928 85.9041 164.198 85.9041C164.535 85.9041 165.276 86.9123 165.815 88.1222C169.05 94.8437 177.878 97.465 189.469 95.0453C192.434 94.4404 194.928 94.1043 195.062 94.2387C195.197 94.3732 194.725 95.583 193.917 96.9273C193.175 98.2716 192.569 100.154 192.569 101.027C192.569 102.842 194.725 104.388 196.343 103.783C196.949 103.582 197.151 103.716 196.949 104.052C195.13 106.942 220.94 101.095 231.52 96.2552C232.801 95.6503 233.946 95.3142 234.081 95.5158C234.418 95.7847 236.17 100.355 239.809 110.101C243.448 119.848 251.266 143.373 252.748 149.086C255.309 159.034 257.802 171.67 258.611 178.795C259.352 186.054 259.487 208.302 258.813 219.258C258.207 229.609 258.005 229.408 251.737 211.26C250.255 206.824 248.705 202.589 248.3 201.85C247.896 201.11 246.616 197.682 245.403 194.322L243.246 188.138L246.211 186.39C247.829 185.449 249.581 184.038 250.187 183.231C251.266 181.618 251.535 177.518 250.592 176.039C250.255 175.501 250.794 173.619 252.276 170.796C255.444 164.747 255.376 161.857 252.007 158.496C249.985 156.412 248.637 155.74 245.268 155.135L241.09 154.262L242.707 151.506C243.583 150.027 244.594 147.271 244.998 145.456C246.885 136.45 239.607 128.249 229.633 128.249C225.118 128.249 223.636 128.787 220.536 131.677C218.11 133.963 217.571 134.03 213.999 132.215C210.023 130.199 203.419 130.199 198.971 132.148C192.973 134.904 188.256 141.491 188.188 147.338V150.632L184.482 151.506C175.047 153.858 169.117 156.48 164.872 160.311C162.58 162.395 162.176 163.067 162.378 165.15C162.513 167.032 163.052 167.772 164.939 168.914C166.961 170.057 168.713 170.259 177.608 170.46C186.436 170.662 187.919 170.864 187.582 171.737C185.965 175.972 187.38 179.938 191.693 182.828C196.949 186.457 200.993 187.533 208.406 187.264C214.201 187.062 215.684 186.794 218.986 185.113L222.894 183.164L224.31 184.979C226.601 187.869 229.027 188.743 234.822 188.743H240.146L241.359 191.902C242.033 193.717 243.179 196.809 243.92 198.825C244.661 200.841 245.605 203.396 246.077 204.538C248.233 209.445 248.772 211.058 251.266 218.452C252.681 222.753 254.433 229.004 255.242 232.231C255.983 235.457 256.926 239.423 257.331 241.036C258.072 243.657 257.802 280.693 257.061 286.54C256.859 287.616 256.589 291.716 256.32 295.614C255.579 307.78 253.422 328.886 252.479 333.725C251.805 337.019 251.603 337.288 249.311 337.892C246.077 338.766 230.846 341.993 226.938 342.732C225.253 343.001 222.423 343.606 220.536 344.009C218.716 344.412 214.875 345.152 212.112 345.689C209.349 346.16 206.047 346.832 204.901 347.034L202.677 347.504V343.673C202.677 341.589 202.947 335.54 203.351 330.297C203.688 325.122 204.295 314.3 204.699 306.369C205.912 281.096 206.721 263.217 207.058 255.622C207.407 246.377 208.187 239.362 208.787 235.071C209.103 232.812 211.678 231.812 213.499 233.187L213.595 233.258L217.361 236.129L220.747 238.652L226.841 243.034L233.003 247.416L238.353 251.798C238.353 251.798 243.431 256.18 243.431 250.449C243.431 247.416 243.77 248.764 233.003 240.162C228.353 236.465 224.444 233.306 224.242 233.105C224.04 232.903 221.816 231.088 219.188 229.072C216.627 227.055 214.066 225.039 213.595 224.501C213.055 224.031 211.573 222.888 210.225 221.88C208.81 220.871 206.519 218.989 205.036 217.645C203.553 216.368 201.262 214.553 199.982 213.612C198.701 212.671 195.669 210.252 193.243 208.235C190.817 206.219 183.539 200.304 177.069 195.128C170.6 189.953 164.804 185.248 164.198 184.71C162.378 183.029 160.222 181.349 159.885 181.349C159.48 181.349 156.583 178.929 154.291 176.779C153.415 175.905 150.652 173.687 148.159 171.805C145.733 169.855 143.576 168.175 143.374 167.906C143.172 167.705 140.948 165.89 138.32 163.873C132.861 159.572 131.783 158.698 129.357 156.614C124.37 152.312 123.43 152.501 120.869 154.719C120.052 155.427 114.396 160.085 114.396 160.085L117.822 157.416C117.822 157.416 107.86 165.218 100.918 170.393C98.1554 172.477 95.7294 174.359 95.5272 174.628C95.325 174.829 93.9772 175.905 92.4946 177.047C91.0121 178.123 89.3947 179.4 88.8556 179.87C88.3165 180.341 87.1034 181.282 86.16 181.887C84.4078 183.03 83.4644 183.702 79.7579 186.726C78.6123 187.667 75.8493 189.818 73.6254 191.431C71.4016 193.112 69.2451 194.725 68.8407 195.128C68.0321 195.868 66.4821 197.145 59.1366 202.656C56.3736 204.807 53.9475 206.689 53.7454 206.891C53.5432 207.092 50.9824 209.042 48.0172 211.26C43.4347 214.62 39.5261 217.645 34.2022 221.88C33.6631 222.35 32.1132 223.426 30.8328 224.367C29.5523 225.24 28.2045 226.316 27.8002 226.786C27.4632 227.19 25.3068 228.87 23.0829 230.483C20.859 232.096 18.096 234.18 16.9504 235.121C13.1092 238.213 12.3005 238.818 9.94184 240.498C8.66143 241.372 6.70712 242.985 5.56149 243.993C4.48324 245.069 3.06805 246.01 2.46154 246.211C0.844182 246.749 -0.368839 249.572 0.102891 251.521C0.642012 253.605 2.19198 253.739 4.55063 251.925C5.49409 251.185 6.50495 250.58 6.77451 250.58C7.04407 250.58 9.06577 249.438 11.1549 247.959C13.244 246.548 16.2091 244.666 17.6917 243.725C19.1743 242.783 22.9481 240.364 26.1154 238.347C29.2828 236.398 33.461 233.71 35.4153 232.5C37.3022 231.29 39.3239 230.416 39.863 230.618C40.5369 230.886 40.8739 233.172 41.2108 239.624C41.413 244.329 41.8847 254.277 42.3564 261.671C42.7608 269.064 43.3673 280.088 43.7042 286.204C44.6477 303.21 45.7259 327.609 46.2651 340.984L46.6694 353.083L52.0606 354.158C56.8453 355.099 64.1234 356.242 78.0058 358.124C89.7317 359.737 106.377 360.275 132.255 359.872C159.75 359.468 167.702 359.065 183.808 357.183C188.795 356.578 195.601 355.772 198.971 355.436C202.273 355.032 208.069 354.293 211.775 353.755C215.481 353.217 220.805 352.411 223.568 352.008C228.083 351.403 232.464 350.663 244.459 348.714C246.481 348.378 250.457 347.571 253.22 347.034C255.983 346.429 259.824 345.689 261.644 345.353C264.744 344.816 287.926 340.043 292.643 338.968C296.417 338.161 311.984 334.464 329.034 330.364C332.875 329.423 340.76 327.34 351.272 324.449C353.901 323.71 359.359 322.299 363.403 321.223C367.513 320.148 373.579 318.467 376.881 317.459C380.25 316.451 383.687 315.443 384.63 315.241C387.73 314.636 388 313.964 388 307.041C388 302.605 387.73 300.252 387.191 299.782C386.383 299.177 379.172 300.857 373.511 303.008C372.77 303.277 371.085 303.815 369.805 304.218C368.524 304.621 363.066 306.301 357.674 307.982C352.283 309.662 346.218 311.477 344.196 312.015C342.175 312.552 338.536 313.628 336.11 314.367C327.619 316.989 301.404 324.651 299.045 325.189C296.889 325.659 294.867 326.197 285.904 328.751C281.524 329.961 276.267 331.238 275.526 331.238C274.919 331.238 274.111 327.138 272.83 318.131C270 298.236 269.259 281.499 269.528 246.211C269.73 213.747 269.663 214.352 273.437 206.891C275.998 201.782 280.85 194.456 286.039 187.802L288.6 184.575L297.697 184.441C305.717 184.374 307.402 184.105 312.186 182.425C317.982 180.408 320.745 178.929 324.99 175.569C327.147 173.888 328.562 173.351 331.931 173.014C339.344 172.275 348.375 167.032 351.205 161.722C353.698 157.152 350.666 150.968 344.129 147.406C340.692 145.524 340.018 145.389 333.077 145.389H325.664L324.249 142.701C323.44 141.222 322.295 139.004 321.688 137.794C319.397 133.559 313.062 129.661 308.345 129.594C304.099 129.594 297.967 133.627 294.8 138.466C294.193 139.474 292.778 140.55 291.767 140.751C288.263 141.625 284.556 143.574 282.4 145.658C279.232 148.683 276.065 155.27 275.661 159.773C275.526 161.857 274.583 165.083 273.706 166.965C272.763 168.847 272.224 170.864 272.493 171.469C273.033 172.88 275.998 174.829 276.806 174.292C277.211 174.09 277.48 174.224 277.48 174.56C277.48 175.031 279.098 175.3 281.524 175.3H285.567L284.826 177.115C284.422 178.19 284.287 180.139 284.489 181.551C284.826 183.433 284.624 184.508 283.748 185.651C283.074 186.525 282.063 187.936 281.524 188.743C280.985 189.549 279.502 191.566 278.356 193.179C277.143 194.725 276.133 196.338 276.133 196.741C276.133 197.077 275.863 197.481 275.593 197.615C275.256 197.682 274.043 199.228 272.83 200.976C271.685 202.791 270.404 204.202 270.067 204.202C269.191 204.202 269.73 170.796 270.674 165.89C271.954 159.034 274.717 151.506 277.682 146.734C281.254 141.087 286.982 132.686 289.476 129.594C297.495 119.511 296.417 120.385 301.875 119.848C308.682 119.175 316.162 117.428 325.664 114.134C330.112 112.588 335.907 110.639 338.536 109.765L343.32 108.152L347.633 109.497C352.418 111.042 357.068 110.908 364.009 109.093C374.455 106.337 383.283 99.8176 383.283 94.7765C383.283 93.2305 378.633 88.7943 374.522 86.4418C370.681 84.2237 365.357 83.2155 361.246 83.9549C359.561 84.291 358.079 84.4926 358.011 84.4254C357.944 84.291 356.731 82.409 355.316 80.1909C353.901 77.9728 351.812 75.3514 350.666 74.3432C345.881 70.1759 336.851 67.3528 330.853 68.025C327.282 68.4283 327.147 68.4283 325.058 66.0085C323.71 64.4626 322.564 63.656 322.092 63.9921C321.621 64.261 321.419 64.7987 321.621 65.1348C321.823 65.4708 321.553 65.538 321.014 65.3364C320.408 65.0675 319.801 65.3364 319.532 66.0085C319.33 66.5463 316.769 68.4283 313.871 70.1086C308.278 73.4022 304.841 76.6957 303.358 80.1909C302.886 81.4007 301.673 82.8795 300.73 83.4844C298.776 84.7615 291.497 85.8369 284.758 85.9041C280.985 85.9041 280.176 86.1057 279.839 87.1812C279.232 89.1304 274.043 94.1715 270.741 96.0535C269.057 96.9946 265.148 98.8093 262.048 100.019C252.344 103.85 248.84 108.824 252.816 113.126C256.32 116.89 268.315 119.512 282.4 119.512C287.724 119.512 290.958 119.78 290.958 120.184C290.958 121.057 288.869 124.217 283.613 131.476C281.322 134.568 279.502 137.256 279.502 137.391C279.502 137.592 279.03 138.197 278.424 138.802C277.885 139.407 275.526 142.633 273.302 145.994C271.011 149.355 268.989 152.245 268.787 152.447C268.585 152.648 267.507 154.06 266.428 155.606C265.35 157.219 264.137 158.496 263.665 158.496C263.261 158.496 262.318 156.681 261.644 154.463C260.97 152.178 260.161 150.229 259.824 150.027C259.555 149.825 259.285 149.086 259.285 148.414C259.285 147.742 258.678 145.725 257.87 143.91C257.061 142.163 255.309 137.323 253.894 133.291C252.479 129.19 250.457 123.746 249.513 121.192C248.503 118.571 246.885 114.202 245.807 111.446C244.796 108.69 243.785 105.934 243.583 105.396C242.438 102.506 240.955 97.2634 241.224 96.9946C241.359 96.7929 242.707 96.9946 244.19 97.3978C247.963 98.4733 257.6 97.7339 261.374 96.1208C263.059 95.3814 265.148 93.8355 266.091 92.6928C266.967 91.5501 268.383 89.7354 269.259 88.5927C270.404 87.114 271.415 86.5763 272.898 86.5763C274.246 86.5763 275.593 85.9041 276.941 84.5598C278.761 82.745 279.367 82.5434 283.208 82.5434C289.341 82.5434 291.228 82.0057 293.991 79.3843C295.339 78.1072 297.765 76.4941 299.315 75.8219C300.865 75.1498 302.886 73.7382 303.83 72.73C304.706 71.6546 307.738 69.3693 310.501 67.6217C321.149 61.0346 325.597 55.3214 325.529 48.2638C325.462 41.9456 322.16 37.5767 315.017 34.3504C311.647 32.8044 311.041 32.1995 310.367 29.9814C308.884 24.9403 303.628 21.3107 294.665 19.0254C288.532 17.4122 278.559 17.345 272.965 18.8237C268.989 19.9664 268.72 19.8992 266.024 18.6221C260.296 15.8663 251.468 15.1269 242.505 16.6729C238.327 17.4122 238.125 17.2778 237.451 13.1777C236.305 6.18736 232.396 2.2889 224.916 0.608534C221.142 -0.265258 218.918 -0.198044 213.797 0.810178ZM129.29 170.46C131.783 172.208 136.298 175.501 139.398 177.854C153.954 188.81 165.343 197.346 182.46 209.983C189.334 215.091 195.062 219.46 195.264 219.729C195.467 219.93 196.814 220.939 198.364 221.88C203.756 225.24 203.553 224.77 203.082 236.129C202.88 241.641 202.34 252.126 202.003 259.318C201.667 266.51 200.993 279.214 200.588 287.549C200.184 295.883 199.443 309.259 198.904 317.325C198.364 325.323 197.96 334.935 197.96 338.632C197.96 347.302 197.556 348.445 193.782 348.916C192.165 349.117 188.93 349.655 186.504 349.991C175.519 351.604 171.611 352.142 165.95 352.747C162.648 353.083 159.009 353.486 157.863 353.688C155.37 354.091 149.776 354.495 129.357 355.772C105.097 357.183 83.127 355.313 55.2275 351.818C53.5015 351.9 52.0561 350.525 52.0508 348.797L51.8584 286.742L51.7298 224.121C51.726 222.254 52.6382 220.504 54.171 219.438L58.2339 216.404C58.2339 216.404 82.9926 197.413 89.3947 192.91C91.0795 191.767 92.9664 190.356 93.5729 189.818C94.1794 189.348 97.0772 187.13 99.9749 184.979C102.94 182.828 105.434 180.879 105.636 180.677C105.838 180.475 107.051 179.534 108.331 178.661C109.612 177.787 111.162 176.577 111.768 176.039C112.375 175.434 113.52 174.493 114.396 173.956C115.205 173.418 116.553 172.41 117.294 171.805C118.103 171.132 119.114 170.393 119.451 170.057C121.338 168.578 123.561 167.234 124.168 167.234C124.505 167.234 126.864 168.713 129.29 170.46Z" stroke="white" stroke-width="2" mask="url(#path-1-inside-1_225_7653)"/>
<path d="M140.319 251.99C139.311 253.06 139.311 255.399 139.848 276.191C140.453 298.587 140.655 303.401 141.596 322.187L142.066 331.011L158.264 330.878L174.462 330.677L174.866 324.66C175.134 321.317 175.538 314.298 175.739 308.949C176.008 303.601 176.344 297.116 176.479 294.576C176.68 291.969 177.151 283.545 177.487 275.857C177.89 268.102 178.361 259.945 178.562 257.739C178.966 254.129 178.831 253.461 177.554 252.19C176.21 250.853 175.605 250.787 158.802 250.787C142.94 250.787 141.327 250.92 140.319 251.99Z" stroke="white" stroke-width="2" mask="url(#path-1-inside-1_225_7653)"/>
</g>
</svg>
