<svg width="32" height="40" viewBox="0 0 32 40" fill="none" xmlns="http://www.w3.org/2000/svg">
<path d="M16.0013 20.5128C17.0555 20.5128 17.9582 20.1275 18.7096 19.3569C19.4596 18.5876 19.8346 17.6624 19.8346 16.5812C19.8346 15.5 19.4596 14.5741 18.7096 13.8035C17.9582 13.0342 17.0555 12.6496 16.0013 12.6496C14.9471 12.6496 14.045 13.0342 13.295 13.8035C12.5436 14.5741 12.168 15.5 12.168 16.5812C12.168 17.6624 12.5436 18.5876 13.295 19.3569C14.045 20.1275 14.9471 20.5128 16.0013 20.5128ZM16.0013 39.4338C15.7457 39.4338 15.4902 39.3846 15.2346 39.2863C14.9791 39.188 14.7555 39.057 14.5638 38.8932C9.89991 34.6667 6.41797 30.7436 4.11797 27.1239C1.81797 23.5028 0.667969 20.1197 0.667969 16.9744C0.667969 12.0598 2.20961 8.14459 5.29289 5.22864C8.37489 2.31268 11.9444 0.854706 16.0013 0.854706C20.0582 0.854706 23.6277 2.31268 26.7097 5.22864C29.793 8.14459 31.3346 12.0598 31.3346 16.9744C31.3346 20.1197 30.1846 23.5028 27.8846 27.1239C25.5846 30.7436 22.1027 34.6667 17.4388 38.8932C17.2471 39.057 17.0235 39.188 16.768 39.2863C16.5124 39.3846 16.2569 39.4338 16.0013 39.4338Z" fill="#ED8B0B"/>
</svg>
