<svg width="40" height="49" viewBox="0 0 40 49" fill="none" xmlns="http://www.w3.org/2000/svg">
<path d="M20.0007 24.641C21.3184 24.641 22.4468 24.1594 23.386 23.1961C24.3235 22.2345 24.7923 21.078 24.7923 19.7265C24.7923 18.375 24.3235 17.2176 23.386 16.2544C22.4468 15.2928 21.3184 14.8119 20.0007 14.8119C18.6829 14.8119 17.5553 15.2928 16.6177 16.2544C15.6786 17.2176 15.209 18.375 15.209 19.7265C15.209 21.078 15.6786 22.2345 16.6177 23.1961C17.5553 24.1594 18.6829 24.641 20.0007 24.641ZM20.0007 48.2922C19.6812 48.2922 19.3618 48.2308 19.0423 48.1079C18.7229 47.985 18.4434 47.8212 18.2038 47.6164C12.3739 42.3333 8.02148 37.4294 5.14648 32.9048C2.27148 28.3785 0.833984 24.1496 0.833984 20.2179C0.833984 14.0748 2.76103 9.18072 6.61513 5.53577C10.4676 1.89083 14.9295 0.0683594 20.0007 0.0683594C25.0718 0.0683594 29.5337 1.89083 33.3862 5.53577C37.2403 9.18072 39.1673 14.0748 39.1673 20.2179C39.1673 24.1496 37.7298 28.3785 34.8548 32.9048C31.9798 37.4294 27.6274 42.3333 21.7975 47.6164C21.5579 47.8212 21.2784 47.985 20.959 48.1079C20.6395 48.2308 20.3201 48.2922 20.0007 48.2922Z" fill="#1E1E1E"/>
</svg>
