<svg xmlns="http://www.w3.org/2000/svg" width="60" height="60" fill="currentColor" viewBox="0 0 60 60">
  <path d="M27.5 57.462c-15.162 0-27.5-12.337-27.5-27.5 0-15.162 12.338-27.5 27.5-27.5a27.409 27.409 0 0 1 14.835 4.347 1.876 1.876 0 1 1-2.027 3.158A23.646 23.646 0 0 0 27.5 6.212c-13.095 0-23.75 10.655-23.75 23.75s10.655 23.75 23.75 23.75 23.75-10.655 23.75-23.75c0-.783-.038-1.558-.11-2.32a1.875 1.875 0 1 1 3.733-.362c.084.882.127 1.777.127 2.682 0 15.163-12.337 27.5-27.5 27.5Z"/>
  <path d="M30.624 36.212c-.48 0-.96-.183-1.325-.55l-11.25-11.25a1.876 1.876 0 0 1 2.653-2.653l9.925 9.926L56.799 5.512a1.876 1.876 0 0 1 2.653 2.652l-27.5 27.5a1.879 1.879 0 0 1-1.328.548Z"/>
</svg>
