<svg xmlns="http://www.w3.org/2000/svg" width="20" height="20" fill="currentColor" viewBox="0 0 20 20">
  <g clip-path="url(#a)">
    <path d="M7.251 2.792a.543.543 0 0 1 0 1.086H3.314a1.232 1.232 0 0 0-1.23 1.23v11.554l.007.126a1.23 1.23 0 0 0 1.223 1.104h12.44l.126-.007a1.232 1.232 0 0 0 1.104-1.223v-3.937a.543.543 0 1 1 1.086 0v3.937l-.011.237a2.32 2.32 0 0 1-2.068 2.067l-.237.012H3.314a2.319 2.319 0 0 1-2.316-2.316V5.109l.012-.237a2.32 2.32 0 0 1 2.304-2.08h3.937Z"/>
    <path d="M15.063 1.537a2.095 2.095 0 0 1 2.803.144l.52.52.144.16a2.099 2.099 0 0 1 0 2.644l-.143.16-7.91 7.908a.546.546 0 0 1-.173.117l-.066.023-3.755 1.04a.544.544 0 0 1-.668-.669l1.04-3.755.023-.066a.544.544 0 0 1 .116-.173l7.91-7.91.159-.143ZM7.117 12.948l1.972-.546-1.425-1.425-.547 1.971Zm1.055-3 1.945 1.947 6.332-6.332-1.946-1.947-6.331 6.332Zm8.926-7.499a1.009 1.009 0 0 0-1.35-.07l-.076.07-.4.399 1.946 1.946.4-.398.07-.078c.3-.37.3-.902 0-1.272l-.07-.077-.52-.52Z"/>
  </g>
  <defs>
    <clipPath id="a">
      <path d="M0 0h20v20H0z"/>
    </clipPath>
  </defs>
</svg>
