<svg xmlns="http://www.w3.org/2000/svg" width="19" height="18" fill="currentColor" viewBox="0 0 19 18">
  <path d="M18.719 1.659a.723.723 0 0 0-.627-.136l-5.584 1.432L6.904.08A.714.714 0 0 0 6.4.023l-5.846 1.5a.73.73 0 0 0-.4.266A.763.763 0 0 0 0 2.25v13.5a.767.767 0 0 0 .281.591.724.724 0 0 0 .627.136l5.584-1.432 5.604 2.876a.729.729 0 0 0 .504.056l5.846-1.5a.73.73 0 0 0 .4-.265.762.762 0 0 0 .154-.462V2.25a.766.766 0 0 0-.281-.591Zm-11.411.304 4.384 2.25v11.824l-4.384-2.25V1.963Zm-5.846.873 4.384-1.125v11.953L1.462 14.79V2.836Zm16.076 12.328-4.384 1.125V4.336l4.384-1.125v11.953Z"/>
</svg>
