<svg width="502" height="204" viewBox="0 0 502 204" fill="none" xmlns="http://www.w3.org/2000/svg">
<mask id="path-1-outside-1_368_33153" maskUnits="userSpaceOnUse" x="0" y="0" width="502" height="204" fill="black">
<rect fill="white" width="502" height="204"/>
<path d="M111.801 145.525V167.51C111.801 171.697 112.368 175.056 113.502 177.586C114.723 180.116 116.294 182.079 118.213 183.475C120.219 184.783 122.575 185.656 125.279 186.092C127.984 186.528 130.819 186.746 133.785 186.746H137.318V198H56.5781V186.746H64.168C67.2214 186.746 70.0566 186.528 72.6738 186.092C75.3783 185.656 77.6901 184.783 79.6094 183.475C81.6159 182.079 83.1862 180.116 84.3203 177.586C85.5417 175.056 86.1523 171.697 86.1523 167.51V145.525H3.58008V134.533L86.4141 6.68359H111.801V130.477H145.039V145.525H111.801ZM86.1523 80.8809C86.1523 76.9551 86.196 72.6367 86.2832 67.9258C86.3704 63.2148 86.4577 58.4167 86.5449 53.5312C86.7194 48.6458 86.8939 43.804 87.0684 39.0059C87.3301 34.1204 87.6354 29.584 87.9844 25.3965C87.3737 26.6178 86.5013 28.2754 85.3672 30.3691C84.2331 32.3757 82.9245 34.6439 81.4414 37.1738C80.0456 39.7038 78.5189 42.3646 76.8613 45.1562C75.291 47.9479 73.6771 50.696 72.0195 53.4004C70.4492 56.0176 68.9661 58.5039 67.5703 60.8594C66.1745 63.1276 64.9531 65.0469 63.9062 66.6172L22.8164 130.477H86.1523V80.8809ZM313.56 102.08C313.56 116.824 312.251 130.258 309.634 142.385C307.104 154.511 303.222 164.893 297.988 173.529C292.753 182.166 286.21 188.84 278.359 193.551C270.507 198.262 261.303 200.617 250.747 200.617C239.755 200.617 230.29 198.262 222.351 193.551C214.412 188.84 207.869 182.166 202.722 173.529C197.662 164.893 193.911 154.511 191.468 142.385C189.025 130.171 187.804 116.649 187.804 101.818C187.804 86.9876 189.025 73.5527 191.468 61.5137C193.911 49.4746 197.662 39.1803 202.722 30.6309C207.869 22.0814 214.412 15.4948 222.351 10.8711C230.377 6.2474 239.93 3.93555 251.009 3.93555C261.478 3.93555 270.594 6.2474 278.359 10.8711C286.21 15.4948 292.753 22.0814 297.988 30.6309C303.222 39.1803 307.104 49.5182 309.634 61.6445C312.251 73.6836 313.56 87.1621 313.56 102.08ZM215.677 102.08C215.677 115.34 216.288 127.205 217.509 137.674C218.73 148.055 220.693 156.867 223.398 164.107C226.189 171.261 229.81 176.757 234.259 180.596C238.795 184.347 244.292 186.223 250.747 186.223C257.29 186.223 262.786 184.347 267.236 180.596C271.685 176.757 275.262 171.261 277.966 164.107C280.758 156.867 282.721 148.055 283.855 137.674C285.076 127.205 285.687 115.34 285.687 102.08C285.687 88.8197 285.076 76.9987 283.855 66.6172C282.721 56.2357 280.758 47.4681 277.966 40.3145C275.262 33.1608 271.685 27.752 267.236 24.0879C262.874 20.3366 257.465 18.4609 251.009 18.4609C244.466 18.4609 238.926 20.3366 234.39 24.0879C229.941 27.752 226.32 33.1608 223.529 40.3145C220.737 47.4681 218.73 56.2357 217.509 66.6172C216.288 76.9987 215.677 88.8197 215.677 102.08ZM465.33 145.525V167.51C465.33 171.697 465.898 175.056 467.032 177.586C468.253 180.116 469.823 182.079 471.743 183.475C473.749 184.783 476.105 185.656 478.809 186.092C481.513 186.528 484.349 186.746 487.315 186.746H490.848V198H410.108V186.746H417.698C420.751 186.746 423.586 186.528 426.204 186.092C428.908 185.656 431.22 184.783 433.139 183.475C435.146 182.079 436.716 180.116 437.85 177.586C439.071 175.056 439.682 171.697 439.682 167.51V145.525H357.11V134.533L439.944 6.68359H465.33V130.477H498.569V145.525H465.33ZM439.682 80.8809C439.682 76.9551 439.726 72.6367 439.813 67.9258C439.9 63.2148 439.987 58.4167 440.075 53.5312C440.249 48.6458 440.424 43.804 440.598 39.0059C440.86 34.1204 441.165 29.584 441.514 25.3965C440.903 26.6178 440.031 28.2754 438.897 30.3691C437.763 32.3757 436.454 34.6439 434.971 37.1738C433.575 39.7038 432.049 42.3646 430.391 45.1562C428.821 47.9479 427.207 50.696 425.549 53.4004C423.979 56.0176 422.496 58.5039 421.1 60.8594C419.704 63.1276 418.483 65.0469 417.436 66.6172L376.346 130.477H439.682V80.8809Z"/>
</mask>
<path d="M111.801 145.525V142.525H108.801V145.525H111.801ZM113.502 177.586L110.764 178.813L110.782 178.852L110.8 178.89L113.502 177.586ZM118.213 183.475L116.448 185.901L116.51 185.946L116.574 185.987L118.213 183.475ZM125.279 186.092L125.757 183.13L125.279 186.092ZM137.318 186.746H140.318V183.746H137.318V186.746ZM137.318 198V201H140.318V198H137.318ZM56.5781 198H53.5781V201H56.5781V198ZM56.5781 186.746V183.746H53.5781V186.746H56.5781ZM72.6738 186.092L72.1961 183.13L72.1884 183.131L72.1806 183.133L72.6738 186.092ZM79.6094 183.475L81.2994 185.953L81.311 185.945L81.3226 185.937L79.6094 183.475ZM84.3203 177.586L81.6187 176.282L81.6002 176.32L81.5828 176.359L84.3203 177.586ZM86.1523 145.525H89.1523V142.525H86.1523V145.525ZM3.58008 145.525H0.580078V148.525H3.58008V145.525ZM3.58008 134.533L1.06234 132.902L0.580078 133.646V134.533H3.58008ZM86.4141 6.68359V3.68359H84.7831L83.8963 5.05234L86.4141 6.68359ZM111.801 6.68359H114.801V3.68359H111.801V6.68359ZM111.801 130.477H108.801V133.477H111.801V130.477ZM145.039 130.477H148.039V127.477H145.039V130.477ZM145.039 145.525V148.525H148.039V145.525H145.039ZM86.5449 53.5312L83.5468 53.4242L83.5459 53.4509L83.5454 53.4777L86.5449 53.5312ZM87.0684 39.0059L84.0727 38.8454L84.0713 38.8711L84.0703 38.8968L87.0684 39.0059ZM87.9844 25.3965L90.974 25.6456L85.3011 24.0548L87.9844 25.3965ZM85.3672 30.3691L87.9789 31.8453L87.9922 31.8218L88.0051 31.798L85.3672 30.3691ZM81.4414 37.1738L78.8533 35.6567L78.8335 35.6904L78.8147 35.7246L81.4414 37.1738ZM76.8613 45.1562L74.2818 43.6246L74.2638 43.6548L74.2466 43.6855L76.8613 45.1562ZM72.0195 53.4004L69.4617 51.8327L69.4543 51.8448L69.4471 51.8569L72.0195 53.4004ZM67.5703 60.8594L70.1253 62.4317L70.1384 62.4103L70.1512 62.3888L67.5703 60.8594ZM63.9062 66.6172L61.4101 64.9531L61.3966 64.9734L61.3834 64.9939L63.9062 66.6172ZM22.8164 130.477L20.2935 128.853L17.3187 133.477H22.8164V130.477ZM86.1523 130.477V133.477H89.1523V130.477H86.1523ZM111.801 145.525H108.801V167.51H111.801H114.801V145.525H111.801ZM111.801 167.51H108.801C108.801 171.924 109.392 175.752 110.764 178.813L113.502 177.586L116.239 176.359C115.344 174.36 114.801 171.47 114.801 167.51H111.801ZM113.502 177.586L110.8 178.89C112.197 181.784 114.061 184.165 116.448 185.901L118.213 183.475L119.977 181.048C118.526 179.993 117.249 178.448 116.204 176.282L113.502 177.586ZM118.213 183.475L116.574 185.987C118.979 187.556 121.742 188.56 124.802 189.054L125.279 186.092L125.757 183.13C123.407 182.751 121.46 182.011 119.852 180.962L118.213 183.475ZM125.279 186.092L124.802 189.054C127.676 189.517 130.672 189.746 133.785 189.746V186.746V183.746C130.966 183.746 128.291 183.539 125.757 183.13L125.279 186.092ZM133.785 186.746V189.746H137.318V186.746V183.746H133.785V186.746ZM137.318 186.746H134.318V198H137.318H140.318V186.746H137.318ZM137.318 198V195H56.5781V198V201H137.318V198ZM56.5781 198H59.5781V186.746H56.5781H53.5781V198H56.5781ZM56.5781 186.746V189.746H64.168V186.746V183.746H56.5781V186.746ZM64.168 186.746V189.746C67.3625 189.746 70.3647 189.518 73.167 189.051L72.6738 186.092L72.1806 183.133C69.7486 183.538 67.0802 183.746 64.168 183.746V186.746ZM72.6738 186.092L73.1515 189.054C76.2134 188.56 78.9568 187.55 81.2994 185.953L79.6094 183.475L77.9194 180.996C76.4234 182.016 74.5431 182.752 72.1961 183.13L72.6738 186.092ZM79.6094 183.475L81.3226 185.937C83.834 184.19 85.7314 181.772 87.0578 178.813L84.3203 177.586L81.5828 176.359C80.641 178.46 79.3977 179.967 77.8962 181.012L79.6094 183.475ZM84.3203 177.586L87.022 178.89C88.5121 175.804 89.1523 171.946 89.1523 167.51H86.1523H83.1523C83.1523 171.448 82.5713 174.308 81.6187 176.282L84.3203 177.586ZM86.1523 167.51H89.1523V145.525H86.1523H83.1523V167.51H86.1523ZM86.1523 145.525V142.525H3.58008V145.525V148.525H86.1523V145.525ZM3.58008 145.525H6.58008V134.533H3.58008H0.580078V145.525H3.58008ZM3.58008 134.533L6.09782 136.164L88.9318 8.31484L86.4141 6.68359L83.8963 5.05234L1.06234 132.902L3.58008 134.533ZM86.4141 6.68359V9.68359H111.801V6.68359V3.68359H86.4141V6.68359ZM111.801 6.68359H108.801V130.477H111.801H114.801V6.68359H111.801ZM111.801 130.477V133.477H145.039V130.477V127.477H111.801V130.477ZM145.039 130.477H142.039V145.525H145.039H148.039V130.477H145.039ZM145.039 145.525V142.525H111.801V145.525V148.525H145.039V145.525ZM86.1523 80.8809H89.1523C89.1523 76.9768 89.1957 72.6773 89.2827 67.9813L86.2832 67.9258L83.2837 67.8702C83.1962 72.5962 83.1523 76.9333 83.1523 80.8809H86.1523ZM86.2832 67.9258L89.2827 67.9813C89.3699 63.2697 89.4572 58.4709 89.5444 53.5848L86.5449 53.5312L83.5454 53.4777C83.4582 58.3625 83.3709 63.16 83.2837 67.8702L86.2832 67.9258ZM86.5449 53.5312L89.543 53.6383C89.7175 48.7535 89.8919 43.9124 90.0664 39.1149L87.0684 39.0059L84.0703 38.8968C83.8958 43.6957 83.7213 48.5381 83.5468 53.4242L86.5449 53.5312ZM87.0684 39.0059L90.0641 39.1663C90.3244 34.3058 90.6279 29.7993 90.974 25.6456L87.9844 25.3965L84.9947 25.1473C84.643 29.3687 84.3357 33.935 84.0727 38.8454L87.0684 39.0059ZM87.9844 25.3965L85.3011 24.0548C84.7119 25.2331 83.8574 26.8576 82.7293 28.9403L85.3672 30.3691L88.0051 31.798C89.1452 29.6932 90.0355 28.0025 90.6677 26.7381L87.9844 25.3965ZM85.3672 30.3691L82.7555 28.893C81.6309 30.8827 80.3304 33.1369 78.8533 35.6567L81.4414 37.1738L84.0295 38.691C85.5185 36.1509 86.8353 33.8686 87.9789 31.8453L85.3672 30.3691ZM81.4414 37.1738L78.8147 35.7246C77.4359 38.2237 75.9251 40.8569 74.2818 43.6246L76.8613 45.1562L79.4409 46.6879C81.1127 43.8722 82.6553 41.1838 84.0681 38.6231L81.4414 37.1738ZM76.8613 45.1562L74.2466 43.6855C72.6945 46.4448 71.0995 49.1605 69.4617 51.8327L72.0195 53.4004L74.5773 54.9681C76.2547 52.2314 77.8876 49.451 79.4761 46.627L76.8613 45.1562ZM72.0195 53.4004L69.4471 51.8569C67.8742 54.4783 66.3884 56.9693 64.9894 59.33L67.5703 60.8594L70.1512 62.3888C71.5439 60.0385 73.0242 57.5569 74.592 54.9439L72.0195 53.4004ZM67.5703 60.8594L65.0153 59.2871C63.6315 61.5358 62.4305 63.4225 61.4101 64.9531L63.9062 66.6172L66.4024 68.2813C67.4757 66.6713 68.7175 64.7194 70.1253 62.4317L67.5703 60.8594ZM63.9062 66.6172L61.3834 64.9939L20.2935 128.853L22.8164 130.477L25.3393 132.1L66.4291 68.2405L63.9062 66.6172ZM22.8164 130.477V133.477H86.1523V130.477V127.477H22.8164V130.477ZM86.1523 130.477H89.1523V80.8809H86.1523H83.1523V130.477H86.1523ZM309.634 142.385L306.702 141.752L306.699 141.762L306.697 141.772L309.634 142.385ZM202.722 173.529L200.133 175.046L200.139 175.055L200.145 175.065L202.722 173.529ZM191.468 142.385L188.526 142.973L188.527 142.977L191.468 142.385ZM202.722 30.6309L200.152 29.0835L200.146 29.0932L200.14 29.1029L202.722 30.6309ZM222.351 10.8711L220.853 8.2716L220.847 8.27515L220.841 8.27872L222.351 10.8711ZM278.359 10.8711L276.824 13.4487L276.83 13.4524L276.836 13.4562L278.359 10.8711ZM309.634 61.6445L306.697 62.2572L306.7 62.2695L306.702 62.2818L309.634 61.6445ZM217.509 137.674L214.529 138.021L214.53 138.024L217.509 137.674ZM223.398 164.107L220.587 165.157L220.595 165.178L220.603 165.198L223.398 164.107ZM234.259 180.596L232.299 182.867L232.323 182.888L232.347 182.908L234.259 180.596ZM267.236 180.596L269.169 182.889L269.182 182.878L269.195 182.867L267.236 180.596ZM277.966 164.107L275.167 163.028L275.163 163.037L275.16 163.047L277.966 164.107ZM283.855 137.674L280.875 137.326L280.874 137.337L280.872 137.348L283.855 137.674ZM283.855 66.6172L280.872 66.943L280.874 66.9554L280.875 66.9677L283.855 66.6172ZM277.966 40.3145L275.16 41.3753L275.165 41.3902L275.171 41.4051L277.966 40.3145ZM267.236 24.0879L265.279 26.3624L265.304 26.3833L265.328 26.4037L267.236 24.0879ZM234.39 24.0879L236.297 26.4037L236.302 26.3998L234.39 24.0879ZM217.509 66.6172L214.53 66.2667L217.509 66.6172ZM313.56 102.08H310.56C310.56 116.649 309.266 129.868 306.702 141.752L309.634 142.385L312.566 143.018C315.236 130.649 316.56 116.998 316.56 102.08H313.56ZM309.634 142.385L306.697 141.772C304.222 153.638 300.445 163.686 295.422 171.974L297.987 173.529L300.553 175.084C305.998 166.099 309.987 155.384 312.571 142.997L309.634 142.385ZM297.987 173.529L295.422 171.974C290.414 180.238 284.207 186.543 276.815 190.978L278.359 193.551L279.902 196.123C288.214 191.136 295.092 184.094 300.553 175.084L297.987 173.529ZM278.359 193.551L276.815 190.978C269.497 195.369 260.844 197.617 250.747 197.617V200.617V203.617C261.762 203.617 271.517 201.154 279.902 196.123L278.359 193.551ZM250.747 200.617V197.617C240.19 197.617 231.276 195.358 223.882 190.971L222.351 193.551L220.82 196.131C229.303 201.165 239.32 203.617 250.747 203.617V200.617ZM222.351 193.551L223.882 190.971C216.411 186.538 210.213 180.24 205.299 171.993L202.722 173.529L200.145 175.065C205.525 184.092 212.413 191.142 220.82 196.131L222.351 193.551ZM202.722 173.529L205.31 172.013C200.452 163.721 196.801 153.667 194.409 141.792L191.468 142.385L188.527 142.977C191.02 155.355 194.871 166.064 200.133 175.046L202.722 173.529ZM191.468 142.385L194.41 141.796C192.012 129.809 190.804 116.488 190.804 101.818H187.804H184.804C184.804 116.81 186.038 130.533 188.526 142.973L191.468 142.385ZM187.804 101.818H190.804C190.804 87.1483 192.012 73.9175 194.408 62.1102L191.468 61.5137L188.528 60.9171C186.038 73.188 184.804 86.827 184.804 101.818H187.804ZM191.468 61.5137L194.408 62.1102C196.799 50.3248 200.449 40.361 205.304 32.1588L202.722 30.6309L200.14 29.1029C194.875 37.9996 191.022 48.6244 188.528 60.9171L191.468 61.5137ZM202.722 30.6309L205.292 32.1782C210.202 24.0224 216.394 17.8119 223.861 13.4635L222.351 10.8711L220.841 8.27872C212.43 13.1777 205.536 20.1404 200.152 29.0835L202.722 30.6309ZM222.351 10.8711L223.848 13.4706C231.337 9.15644 240.352 6.93555 251.009 6.93555V3.93555V0.935547C239.507 0.935547 229.417 3.33836 220.853 8.2716L222.351 10.8711ZM251.009 3.93555V6.93555C261.024 6.93555 269.593 9.14275 276.824 13.4487L278.359 10.8711L279.894 8.29352C271.596 3.35204 261.931 0.935547 251.009 0.935547V3.93555ZM278.359 10.8711L276.836 13.4562C284.223 17.8061 290.425 24.0243 295.429 32.1973L297.987 30.6309L300.546 29.0644C295.081 20.1385 288.197 13.1835 279.881 8.28603L278.359 10.8711ZM297.987 30.6309L295.429 32.1973C300.447 40.393 304.222 50.3917 306.697 62.2572L309.634 61.6445L312.571 61.0318C309.986 48.6448 305.997 37.9677 300.546 29.0644L297.987 30.6309ZM309.634 61.6445L306.702 62.2818C309.266 74.0732 310.56 87.3332 310.56 102.08H313.56H316.56C316.56 86.991 315.237 73.294 312.566 61.0072L309.634 61.6445ZM215.677 102.08H212.677C212.677 115.429 213.291 127.412 214.529 138.021L217.509 137.674L220.489 137.326C219.284 126.998 218.677 115.252 218.677 102.08H215.677ZM217.509 137.674L214.53 138.024C215.77 148.567 217.775 157.628 220.587 165.157L223.398 164.107L226.208 163.058C223.611 156.105 221.691 147.544 220.488 137.323L217.509 137.674ZM223.398 164.107L220.603 165.198C223.52 172.672 227.383 178.626 232.299 182.867L234.259 180.596L236.219 178.324C232.236 174.888 228.859 169.85 226.192 163.017L223.398 164.107ZM234.259 180.596L232.347 182.908C237.475 187.148 243.666 189.223 250.747 189.223V186.223V183.223C244.917 183.223 240.116 181.546 236.171 178.284L234.259 180.596ZM250.747 186.223V189.223C257.904 189.223 264.111 187.154 269.169 182.889L267.236 180.596L265.302 178.302C261.461 181.54 256.676 183.223 250.747 183.223V186.223ZM267.236 180.596L269.195 182.867C274.12 178.618 277.943 172.653 280.772 165.168L277.966 164.107L275.16 163.047C272.581 169.869 269.249 174.896 265.276 178.324L267.236 180.596ZM277.966 164.107L280.765 165.187C283.676 157.637 285.684 148.556 286.837 138L283.855 137.674L280.872 137.348C279.757 147.554 277.839 156.096 275.167 163.028L277.966 164.107ZM283.855 137.674L286.834 138.021C288.072 127.412 288.687 115.429 288.687 102.08H285.687H282.687C282.687 115.252 282.08 126.998 280.875 137.326L283.855 137.674ZM285.687 102.08H288.687C288.687 88.732 288.072 76.7905 286.834 66.2667L283.855 66.6172L280.875 66.9677C282.08 77.2069 282.687 88.9073 282.687 102.08H285.687ZM283.855 66.6172L286.837 66.2914C285.684 55.735 283.676 46.6932 280.761 39.2238L277.966 40.3145L275.171 41.4051C277.84 48.243 279.757 56.7364 280.872 66.943L283.855 66.6172ZM277.966 40.3145L280.772 39.2536C277.941 31.7652 274.107 25.8603 269.143 21.7721L267.236 24.0879L265.328 26.4037C269.263 29.6436 272.582 34.5564 275.16 41.3753L277.966 40.3145ZM267.236 24.0879L269.192 21.8133C264.218 17.5363 258.089 15.4609 251.009 15.4609V18.4609V21.4609C256.841 21.4609 261.529 23.1368 265.279 26.3624L267.236 24.0879ZM251.009 18.4609V15.4609C243.851 15.4609 237.613 17.5298 232.478 21.776L234.39 24.0879L236.302 26.3998C240.24 23.1434 245.081 21.4609 251.009 21.4609V18.4609ZM234.39 24.0879L232.483 21.7721C227.528 25.8526 223.652 31.7457 220.734 39.2238L223.529 40.3145L226.323 41.4051C228.988 34.5759 232.353 29.6513 236.297 26.4037L234.39 24.0879ZM223.529 40.3145L220.734 39.2238C217.823 46.6833 215.771 55.7161 214.53 66.2667L217.509 66.6172L220.488 66.9677C221.69 56.7552 223.651 48.2529 226.323 41.4051L223.529 40.3145ZM217.509 66.6172L214.53 66.2667C213.291 76.7905 212.677 88.732 212.677 102.08H215.677H218.677C218.677 88.9073 219.284 77.2069 220.488 66.9677L217.509 66.6172ZM465.33 145.525V142.525H462.33V145.525H465.33ZM467.032 177.586L464.294 178.813L464.312 178.852L464.33 178.89L467.032 177.586ZM471.743 183.475L469.978 185.901L470.04 185.946L470.104 185.987L471.743 183.475ZM478.809 186.092L479.287 183.13L478.809 186.092ZM490.848 186.746H493.848V183.746H490.848V186.746ZM490.848 198V201H493.848V198H490.848ZM410.108 198H407.108V201H410.108V198ZM410.108 186.746V183.746H407.108V186.746H410.108ZM426.204 186.092L425.726 183.13L425.718 183.131L425.71 183.133L426.204 186.092ZM433.139 183.475L434.829 185.953L434.841 185.945L434.852 185.937L433.139 183.475ZM437.85 177.586L435.148 176.282L435.13 176.32L435.112 176.359L437.85 177.586ZM439.682 145.525H442.682V142.525H439.682V145.525ZM357.11 145.525H354.11V148.525H357.11V145.525ZM357.11 134.533L354.592 132.902L354.11 133.646V134.533H357.11ZM439.944 6.68359V3.68359H438.313L437.426 5.05234L439.944 6.68359ZM465.33 6.68359H468.33V3.68359H465.33V6.68359ZM465.33 130.477H462.33V133.477H465.33V130.477ZM498.569 130.477H501.569V127.477H498.569V130.477ZM498.569 145.525V148.525H501.569V145.525H498.569ZM440.075 53.5312L437.077 53.4242L437.076 53.4509L437.075 53.4777L440.075 53.5312ZM440.598 39.0059L437.602 38.8454L437.601 38.8711L437.6 38.8968L440.598 39.0059ZM441.514 25.3965L444.504 25.6456L438.831 24.0548L441.514 25.3965ZM438.897 30.3691L441.509 31.8453L441.522 31.8218L441.535 31.798L438.897 30.3691ZM434.971 37.1738L432.383 35.6567L432.363 35.6904L432.344 35.7246L434.971 37.1738ZM430.391 45.1562L427.811 43.6246L427.794 43.6548L427.776 43.6855L430.391 45.1562ZM425.549 53.4004L422.991 51.8327L422.984 51.8448L422.977 51.8569L425.549 53.4004ZM421.1 60.8594L423.655 62.4317L423.668 62.4103L423.681 62.3888L421.1 60.8594ZM417.436 66.6172L414.94 64.9531L414.926 64.9734L414.913 64.9939L417.436 66.6172ZM376.346 130.477L373.823 128.853L370.848 133.477H376.346V130.477ZM439.682 130.477V133.477H442.682V130.477H439.682ZM465.33 145.525H462.33V167.51H465.33H468.33V145.525H465.33ZM465.33 167.51H462.33C462.33 171.924 462.922 175.752 464.294 178.813L467.032 177.586L469.769 176.359C468.873 174.36 468.33 171.47 468.33 167.51H465.33ZM467.032 177.586L464.33 178.89C465.727 181.784 467.591 184.165 469.978 185.901L471.743 183.475L473.507 181.048C472.055 179.993 470.779 178.448 469.733 176.282L467.032 177.586ZM471.743 183.475L470.104 185.987C472.509 187.556 475.272 188.56 478.331 189.054L478.809 186.092L479.287 183.13C476.937 182.751 474.99 182.011 473.381 180.962L471.743 183.475ZM478.809 186.092L478.331 189.054C481.206 189.517 484.202 189.746 487.315 189.746V186.746V183.746C484.496 183.746 481.821 183.539 479.287 183.13L478.809 186.092ZM487.315 186.746V189.746H490.848V186.746V183.746H487.315V186.746ZM490.848 186.746H487.848V198H490.848H493.848V186.746H490.848ZM490.848 198V195H410.108V198V201H490.848V198ZM410.108 198H413.108V186.746H410.108H407.108V198H410.108ZM410.108 186.746V189.746H417.698V186.746V183.746H410.108V186.746ZM417.698 186.746V189.746C420.892 189.746 423.894 189.518 426.697 189.051L426.204 186.092L425.71 183.133C423.278 183.538 420.61 183.746 417.698 183.746V186.746ZM426.204 186.092L426.681 189.054C429.743 188.56 432.487 187.55 434.829 185.953L433.139 183.475L431.449 180.996C429.953 182.016 428.073 182.752 425.726 183.13L426.204 186.092ZM433.139 183.475L434.852 185.937C437.364 184.19 439.261 181.772 440.588 178.813L437.85 177.586L435.112 176.359C434.171 178.46 432.927 179.967 431.426 181.012L433.139 183.475ZM437.85 177.586L440.552 178.89C442.042 175.804 442.682 171.946 442.682 167.51H439.682H436.682C436.682 171.448 436.101 174.308 435.148 176.282L437.85 177.586ZM439.682 167.51H442.682V145.525H439.682H436.682V167.51H439.682ZM439.682 145.525V142.525H357.11V145.525V148.525H439.682V145.525ZM357.11 145.525H360.11V134.533H357.11H354.11V145.525H357.11ZM357.11 134.533L359.628 136.164L442.461 8.31484L439.944 6.68359L437.426 5.05234L354.592 132.902L357.11 134.533ZM439.944 6.68359V9.68359H465.33V6.68359V3.68359H439.944V6.68359ZM465.33 6.68359H462.33V130.477H465.33H468.33V6.68359H465.33ZM465.33 130.477V133.477H498.569V130.477V127.477H465.33V130.477ZM498.569 130.477H495.569V145.525H498.569H501.569V130.477H498.569ZM498.569 145.525V142.525H465.33V145.525V148.525H498.569V145.525ZM439.682 80.8809H442.682C442.682 76.9768 442.725 72.6773 442.812 67.9813L439.813 67.9258L436.813 67.8702C436.726 72.5962 436.682 76.9333 436.682 80.8809H439.682ZM439.813 67.9258L442.812 67.9813C442.9 63.2697 442.987 58.4709 443.074 53.5848L440.075 53.5312L437.075 53.4777C436.988 58.3625 436.901 63.16 436.813 67.8702L439.813 67.9258ZM440.075 53.5312L443.073 53.6383C443.247 48.7535 443.422 43.9124 443.596 39.1149L440.598 39.0059L437.6 38.8968C437.426 43.6957 437.251 48.5381 437.077 53.4242L440.075 53.5312ZM440.598 39.0059L443.594 39.1663C443.854 34.3058 444.158 29.7993 444.504 25.6456L441.514 25.3965L438.524 25.1473C438.173 29.3687 437.865 33.935 437.602 38.8454L440.598 39.0059ZM441.514 25.3965L438.831 24.0548C438.242 25.2331 437.387 26.8576 436.259 28.9403L438.897 30.3691L441.535 31.798C442.675 29.6932 443.565 28.0025 444.197 26.7381L441.514 25.3965ZM438.897 30.3691L436.285 28.893C435.161 30.8827 433.86 33.1369 432.383 35.6567L434.971 37.1738L437.559 38.691C439.048 36.1509 440.365 33.8686 441.509 31.8453L438.897 30.3691ZM434.971 37.1738L432.344 35.7246C430.966 38.2237 429.455 40.8569 427.811 43.6246L430.391 45.1562L432.971 46.6879C434.642 43.8722 436.185 41.1838 437.598 38.6231L434.971 37.1738ZM430.391 45.1562L427.776 43.6855C426.224 46.4448 424.629 49.1605 422.991 51.8327L425.549 53.4004L428.107 54.9681C429.784 52.2314 431.417 49.451 433.006 46.627L430.391 45.1562ZM425.549 53.4004L422.977 51.8569C421.404 54.4783 419.918 56.9693 418.519 59.33L421.1 60.8594L423.681 62.3888C425.074 60.0385 426.554 57.5569 428.122 54.9439L425.549 53.4004ZM421.1 60.8594L418.545 59.2871C417.161 61.5358 415.96 63.4225 414.94 64.9531L417.436 66.6172L419.932 68.2813C421.005 66.6713 422.247 64.7194 423.655 62.4317L421.1 60.8594ZM417.436 66.6172L414.913 64.9939L373.823 128.853L376.346 130.477L378.869 132.1L419.959 68.2405L417.436 66.6172ZM376.346 130.477V133.477H439.682V130.477V127.477H376.346V130.477ZM439.682 130.477H442.682V80.8809H439.682H436.682V130.477H439.682Z" fill="#ED8B0B" mask="url(#path-1-outside-1_368_33153)"/>
</svg>
