<svg width="292" height="88" viewBox="0 0 292 88" fill="none" xmlns="http://www.w3.org/2000/svg">
<path d="M107.212 51.5862V50.295C108.468 50.2252 109.201 50.074 109.41 49.8414C109.643 49.6087 109.76 48.9806 109.76 47.957C109.76 47.8639 109.76 47.7592 109.76 47.6429C109.76 47.5266 109.76 47.4103 109.76 47.2939V34.103C109.76 33.1725 109.632 32.5676 109.376 32.2884C109.12 32.0092 108.398 31.858 107.212 31.8348V30.6483C107.537 30.6483 107.863 30.6599 108.189 30.6832C108.515 30.6832 108.84 30.6948 109.166 30.7181C109.492 30.7413 109.818 30.7646 110.143 30.7879C110.469 30.7879 110.795 30.7879 111.121 30.7879C111.563 30.7879 112.005 30.7879 112.447 30.7879C112.912 30.7646 113.378 30.7413 113.843 30.7181C113.959 30.7181 114.076 30.7181 114.192 30.7181C114.308 30.6948 114.425 30.6832 114.541 30.6832C114.89 30.6832 115.228 30.6832 115.553 30.6832C115.902 30.6599 116.251 30.6483 116.6 30.6483V31.8348C115.367 31.858 114.611 32.0092 114.332 32.2884C114.076 32.5443 113.948 33.2306 113.948 34.3473C113.948 34.3938 113.948 34.4404 113.948 34.4869C113.971 34.5334 113.983 34.58 113.983 34.6265C113.983 34.673 113.983 34.7195 113.983 34.7661C114.006 34.8126 114.018 34.8591 114.018 34.9057V39.5469C114.297 39.5469 114.564 39.5585 114.82 39.5818C115.1 39.5818 115.379 39.5818 115.658 39.5818C116.193 39.6051 116.728 39.6283 117.264 39.6516C117.822 39.6516 118.357 39.6516 118.869 39.6516C119.311 39.6516 119.765 39.6516 120.23 39.6516C120.696 39.6283 121.173 39.6167 121.661 39.6167C121.731 39.6167 121.801 39.6167 121.871 39.6167C121.964 39.5934 122.045 39.5818 122.115 39.5818C122.394 39.5818 122.673 39.5818 122.953 39.5818C123.232 39.5585 123.5 39.5469 123.755 39.5469V34.103C123.755 33.1027 123.627 32.4745 123.372 32.2186C123.116 31.9627 122.371 31.8348 121.138 31.8348V30.6483C121.324 30.6483 121.51 30.6483 121.696 30.6483C121.906 30.6483 122.115 30.6483 122.324 30.6483C122.511 30.6483 122.697 30.6599 122.883 30.6832C123.092 30.6832 123.302 30.6832 123.511 30.6832C123.907 30.6832 124.291 30.6948 124.663 30.7181C125.058 30.7181 125.442 30.7181 125.815 30.7181C126.21 30.7181 126.606 30.7181 127.001 30.7181C127.397 30.6948 127.793 30.6832 128.188 30.6832C128.374 30.6832 128.572 30.6832 128.781 30.6832C128.991 30.6599 129.189 30.6483 129.375 30.6483C129.584 30.6483 129.782 30.6483 129.968 30.6483C130.178 30.6483 130.387 30.6483 130.596 30.6483V31.8348C129.41 31.858 128.677 32.0092 128.398 32.2884C128.118 32.5443 127.979 33.1492 127.979 34.103C127.979 34.1728 127.979 34.2426 127.979 34.3124C128.002 34.3589 128.014 34.4171 128.014 34.4869C128.014 34.5567 128.014 34.6265 128.014 34.6963C128.037 34.7661 128.048 34.8359 128.048 34.9057V47.2939C128.048 47.3405 128.048 47.387 128.048 47.4335C128.048 47.48 128.037 47.5266 128.014 47.5731C128.014 47.6196 128.014 47.6545 128.014 47.6778C128.014 47.7011 128.014 47.7243 128.014 47.7476C128.014 47.8174 128.002 47.8872 127.979 47.957C127.979 48.0268 127.979 48.0849 127.979 48.1315C127.979 49.062 128.118 49.6553 128.398 49.9112C128.677 50.1671 129.41 50.295 130.596 50.295V51.5862C130.224 51.5629 129.84 51.5513 129.445 51.5513C129.049 51.528 128.653 51.5164 128.258 51.5164C127.839 51.5164 127.432 51.5164 127.036 51.5164C126.664 51.5164 126.28 51.5164 125.885 51.5164C125.512 51.5164 125.128 51.5164 124.733 51.5164C124.337 51.5164 123.953 51.5164 123.581 51.5164C123.185 51.5164 122.79 51.528 122.394 51.5513C122.022 51.5513 121.638 51.5629 121.242 51.5862V50.295C122.406 50.295 123.116 50.1787 123.372 49.9461C123.627 49.6902 123.755 49.0853 123.755 48.1315V41.3964C123.406 41.3964 123.057 41.3964 122.708 41.3964C122.359 41.3731 122.01 41.3615 121.661 41.3615C121.173 41.3615 120.696 41.3615 120.23 41.3615C119.765 41.3615 119.311 41.3615 118.869 41.3615C118.078 41.3615 117.275 41.3615 116.461 41.3615C115.646 41.3615 114.832 41.3731 114.018 41.3964V47.2939C114.018 47.3405 114.018 47.387 114.018 47.4335C114.018 47.48 114.006 47.5266 113.983 47.5731C113.983 47.6196 113.983 47.6545 113.983 47.6778C113.983 47.7011 113.983 47.7243 113.983 47.7476C113.983 47.8174 113.971 47.8872 113.948 47.957C113.948 48.0268 113.948 48.0849 113.948 48.1315C113.948 49.1318 114.087 49.7483 114.367 49.981C114.646 50.1904 115.39 50.295 116.6 50.295V51.5862C116.298 51.5629 115.984 51.5513 115.658 51.5513C115.332 51.5513 115.007 51.5397 114.681 51.5164C114.215 51.5164 113.738 51.5164 113.25 51.5164C112.784 51.5164 112.319 51.5164 111.854 51.5164C111.481 51.5164 111.097 51.5164 110.702 51.5164C110.306 51.5164 109.922 51.5164 109.55 51.5164C109.155 51.5164 108.759 51.528 108.363 51.5513C107.991 51.5513 107.607 51.5629 107.212 51.5862Z" fill="#67850B"/>
<path d="M132.796 44.5022C132.796 41.9431 133.448 40.0587 134.751 38.849C136.077 37.6392 137.857 37.0343 140.091 37.0343C140.277 37.0343 140.475 37.046 140.684 37.0692C140.893 37.0692 141.115 37.0809 141.347 37.1041C141.44 37.1274 141.545 37.139 141.661 37.139C141.778 37.139 141.882 37.1507 141.975 37.1739C143.907 37.36 145.256 38.1278 146.024 39.4771C146.792 40.8032 147.176 42.3735 147.176 44.1881C147.176 46.724 146.536 48.6433 145.256 49.9461C144 51.2489 142.069 51.9003 139.462 51.9003C137.136 51.9003 135.425 51.2838 134.332 50.0508C133.261 48.8177 132.726 47.1078 132.726 44.921C132.726 44.8977 132.726 44.8744 132.726 44.8512C132.75 44.8046 132.761 44.7581 132.761 44.7116C132.761 44.6883 132.761 44.6651 132.761 44.6418C132.784 44.6185 132.796 44.5953 132.796 44.572C132.796 44.5487 132.796 44.5255 132.796 44.5022ZM142.988 45.8283C142.988 45.712 142.988 45.584 142.988 45.4444C142.988 45.3048 142.999 45.1536 143.023 44.9908C143.023 44.8512 143.023 44.7232 143.023 44.6069C143.023 44.4673 143.023 44.3277 143.023 44.1881C143.023 44.1416 143.023 44.1067 143.023 44.0835C143.023 44.0369 143.023 43.9904 143.023 43.9439C143.023 43.7112 143.011 43.4786 142.988 43.2459C142.988 43.0133 142.976 42.7806 142.953 42.548C142.883 41.6174 142.685 40.7566 142.359 39.9657C142.034 39.1747 141.487 38.7094 140.719 38.5698C140.672 38.5698 140.614 38.5698 140.544 38.5698C140.475 38.5465 140.405 38.5349 140.335 38.5349C140.242 38.5349 140.149 38.5349 140.056 38.5349C139.963 38.5349 139.881 38.5349 139.811 38.5349C138.857 38.5349 138.171 38.9188 137.752 39.6865C137.357 40.4309 137.101 41.2568 136.984 42.1641C136.938 42.3968 136.903 42.6411 136.88 42.897C136.88 43.1296 136.88 43.3623 136.88 43.5949C136.88 43.688 136.868 43.781 136.845 43.8741C136.845 43.9671 136.845 44.0718 136.845 44.1881C136.845 44.2812 136.833 44.3859 136.81 44.5022C136.81 44.6185 136.81 44.7349 136.81 44.8512C136.81 45.1303 136.81 45.4212 136.81 45.7236C136.833 46.026 136.868 46.3285 136.915 46.6309C137.008 47.5382 137.229 48.3757 137.578 49.1435C137.95 49.9112 138.543 50.3648 139.358 50.5044C139.428 50.5044 139.486 50.516 139.532 50.5393C139.602 50.5393 139.66 50.5393 139.707 50.5393C139.753 50.5626 139.8 50.5858 139.846 50.6091C139.916 50.6091 139.974 50.6091 140.021 50.6091C140.928 50.6091 141.592 50.2485 142.01 49.5273C142.429 48.8061 142.708 48.0151 142.848 47.1544C142.895 46.945 142.929 46.724 142.953 46.4913C142.976 46.2587 142.988 46.0377 142.988 45.8283Z" fill="#67850B"/>
<path d="M149.745 51.5862V50.3997C149.792 50.3997 149.838 50.3997 149.885 50.3997C149.954 50.3997 150.013 50.3997 150.059 50.3997C150.781 50.3532 151.258 50.2485 151.49 50.0857C151.746 49.9228 151.886 49.3994 151.909 48.5153V41.536C151.909 40.5356 151.804 39.954 151.595 39.7912C151.409 39.6283 150.815 39.5469 149.815 39.5469V38.4651C150.001 38.4418 150.187 38.4186 150.373 38.3953C150.559 38.3488 150.746 38.3139 150.932 38.2906C151.676 38.151 152.409 37.9766 153.131 37.7672C153.875 37.5578 154.597 37.3135 155.295 37.0343L155.644 37.2786V39.6516L158.401 37.488C158.657 37.3252 158.936 37.2088 159.239 37.139C159.564 37.046 159.878 36.9995 160.181 36.9995C160.297 36.9995 160.414 37.0111 160.53 37.0343C160.646 37.0343 160.763 37.046 160.879 37.0692C161.6 37.1856 162.287 37.488 162.938 37.9766C163.613 38.4418 164.067 38.9769 164.299 39.5818L167.057 37.4531C167.243 37.3368 167.476 37.2554 167.755 37.2088C168.057 37.139 168.371 37.1041 168.697 37.1041C168.814 37.1041 168.93 37.1041 169.046 37.1041C169.186 37.1041 169.314 37.1158 169.43 37.139C169.802 37.1623 170.151 37.2088 170.477 37.2786C170.803 37.3484 171.047 37.4182 171.21 37.488C171.955 37.8602 172.455 38.4069 172.711 39.1281C172.967 39.8261 173.118 40.5705 173.165 41.3615C173.165 41.4778 173.165 41.6058 173.165 41.7454C173.165 41.8617 173.165 41.978 173.165 42.0943V48.2361C173.165 49.19 173.269 49.7949 173.479 50.0508C173.712 50.2834 174.293 50.3997 175.224 50.3997V51.5862C174.945 51.5629 174.666 51.5513 174.386 51.5513C174.107 51.528 173.816 51.5164 173.514 51.5164C173.211 51.5164 172.92 51.5164 172.641 51.5164C172.362 51.5164 172.083 51.5164 171.804 51.5164C171.361 51.5164 170.919 51.5164 170.477 51.5164C170.035 51.5164 169.581 51.5397 169.116 51.5862C169.139 51.307 169.163 51.0395 169.186 50.7836C169.209 50.5277 169.232 50.2601 169.256 49.981C169.279 49.7251 169.291 49.4692 169.291 49.2132C169.314 48.9573 169.325 48.6898 169.325 48.4106V42.8621C169.325 42.8155 169.325 42.769 169.325 42.7225C169.325 42.676 169.325 42.6411 169.325 42.6178C169.302 42.0129 169.186 41.4429 168.976 40.9079C168.79 40.3728 168.36 40.0122 167.685 39.8261C167.615 39.8028 167.545 39.7912 167.476 39.7912C167.406 39.7679 167.324 39.7563 167.231 39.7563C167.161 39.7563 167.092 39.7563 167.022 39.7563C166.975 39.7563 166.929 39.7563 166.882 39.7563C166.37 39.7563 165.893 39.9075 165.451 40.2099C165.009 40.4891 164.66 40.873 164.404 41.3615V48.0966C164.404 48.1198 164.404 48.1547 164.404 48.2012C164.404 48.2245 164.404 48.2478 164.404 48.271C164.404 48.3176 164.404 48.3641 164.404 48.4106C164.404 48.4339 164.404 48.4688 164.404 48.5153C164.381 48.5851 164.369 48.6549 164.369 48.7247C164.369 48.7712 164.369 48.8178 164.369 48.8643C164.369 49.5389 164.497 49.9693 164.753 50.1554C165.032 50.3183 165.637 50.3997 166.568 50.3997V51.5862C165.917 51.5397 165.253 51.5164 164.579 51.5164C163.927 51.5164 163.264 51.5164 162.589 51.5164C161.938 51.5164 161.286 51.5164 160.635 51.5164C160.006 51.5164 159.355 51.5397 158.68 51.5862V50.3997C159.588 50.3532 160.146 50.2369 160.355 50.0508C160.565 49.8646 160.67 49.3063 160.67 48.3757V42.7225C160.67 42.6294 160.67 42.5247 160.67 42.4084C160.67 42.2921 160.658 42.1874 160.635 42.0943C160.588 41.5825 160.449 41.1056 160.216 40.6636C159.983 40.2216 159.576 39.9424 158.994 39.8261C158.948 39.8261 158.901 39.8261 158.855 39.8261C158.808 39.8261 158.75 39.8144 158.68 39.7912C158.68 39.7912 158.669 39.7912 158.645 39.7912C158.622 39.7912 158.599 39.7912 158.575 39.7912C158.506 39.7912 158.436 39.7912 158.366 39.7912C158.319 39.7679 158.273 39.7563 158.226 39.7563C157.715 39.7563 157.237 39.8959 156.795 40.175C156.353 40.4309 155.969 40.8032 155.644 41.2917V48.5153C155.644 49.3296 155.737 49.853 155.923 50.0857C156.109 50.295 156.633 50.3997 157.493 50.3997V51.5862C157.075 51.5629 156.644 51.5513 156.202 51.5513C155.76 51.528 155.318 51.5164 154.876 51.5164C154.597 51.5164 154.317 51.5164 154.038 51.5164C153.782 51.5164 153.526 51.5164 153.27 51.5164C152.991 51.5164 152.7 51.5164 152.398 51.5164C152.095 51.5164 151.804 51.5164 151.525 51.5164C151.223 51.5164 150.92 51.528 150.618 51.5513C150.315 51.5513 150.024 51.5629 149.745 51.5862Z" fill="#67850B"/>
<path d="M189.801 48.8294L190.115 49.283C190.068 49.3994 190.01 49.5273 189.94 49.6669C189.894 49.7832 189.836 49.8995 189.766 50.0159C189.696 50.1555 189.626 50.295 189.556 50.4346C189.487 50.5509 189.417 50.6673 189.347 50.7836C188.812 51.0628 188.207 51.2954 187.532 51.4815C186.857 51.6676 186.171 51.7956 185.473 51.8654C185.287 51.8886 185.1 51.9003 184.914 51.9003C184.728 51.9235 184.542 51.9352 184.356 51.9352C184.216 51.9352 184.065 51.9235 183.902 51.9003C183.763 51.9003 183.623 51.9003 183.483 51.9003C182.809 51.8305 182.134 51.7025 181.459 51.5164C180.807 51.307 180.226 51.0046 179.714 50.6091C179.016 50.074 178.469 49.3528 178.073 48.4455C177.678 47.5149 177.445 46.5378 177.375 45.5142C177.352 45.3979 177.34 45.2816 177.34 45.1652C177.34 45.0489 177.34 44.9326 177.34 44.8163C177.34 44.7232 177.34 44.6302 177.34 44.5371C177.34 44.444 177.352 44.351 177.375 44.2579C177.399 43.5367 177.515 42.8388 177.724 42.1641C177.934 41.4895 178.19 40.8962 178.492 40.3844C179.027 39.5236 179.76 38.8257 180.691 38.2906C181.622 37.7555 182.588 37.3949 183.588 37.2088C183.821 37.1856 184.042 37.1623 184.251 37.139C184.484 37.1158 184.705 37.1041 184.914 37.1041C186.334 37.1041 187.59 37.5229 188.684 38.3604C189.801 39.1747 190.359 40.5124 190.359 42.3735V42.8621C190.243 42.9551 190.103 43.0714 189.94 43.211C189.777 43.3274 189.603 43.4553 189.417 43.5949C189.277 43.688 189.138 43.781 188.998 43.8741C188.882 43.9439 188.754 44.0253 188.614 44.1183C188.358 44.2579 188.102 44.3859 187.846 44.5022C187.613 44.5953 187.392 44.6418 187.183 44.6418H181.424C181.54 45.712 181.808 46.7007 182.227 47.608C182.669 48.5153 183.437 49.1783 184.53 49.5971C184.67 49.6436 184.81 49.6902 184.949 49.7367C185.112 49.76 185.275 49.7949 185.438 49.8414C185.601 49.8646 185.752 49.8879 185.892 49.9112C186.054 49.9344 186.206 49.9461 186.345 49.9461C186.485 49.9461 186.625 49.9461 186.764 49.9461C186.927 49.9228 187.09 49.8995 187.253 49.8763C187.695 49.7832 188.137 49.6553 188.579 49.4924C189.021 49.3063 189.428 49.0853 189.801 48.8294ZM181.25 43.1761C181.552 43.1761 181.843 43.1761 182.122 43.1761C182.425 43.1761 182.727 43.1761 183.03 43.1761C183.332 43.1994 183.623 43.211 183.902 43.211C184.205 43.211 184.507 43.211 184.81 43.211C184.949 43.211 185.089 43.211 185.228 43.211C185.391 43.211 185.554 43.1994 185.717 43.1761C185.88 43.1761 186.031 43.1761 186.171 43.1761C186.334 43.1761 186.485 43.1761 186.625 43.1761V42.548C186.625 42.4317 186.625 42.3154 186.625 42.199C186.625 42.0594 186.613 41.9199 186.59 41.7803C186.543 40.966 186.334 40.2332 185.961 39.5818C185.612 38.9071 184.926 38.5698 183.902 38.5698C182.995 38.5698 182.332 38.8955 181.913 39.5469C181.517 40.1983 181.284 40.9079 181.215 41.6756C181.191 41.7919 181.18 41.9082 181.18 42.0246C181.18 42.1409 181.18 42.2572 181.18 42.3735C181.18 42.42 181.18 42.4782 181.18 42.548C181.203 42.6178 181.215 42.6876 181.215 42.7574C181.215 42.7806 181.215 42.7923 181.215 42.7923C181.215 42.7923 181.215 42.8039 181.215 42.8272C181.238 42.897 181.25 42.9668 181.25 43.0366C181.25 43.0831 181.25 43.1296 181.25 43.1761Z" fill="#67850B"/>
<path d="M201.684 51.5862V50.295C201.707 50.295 201.742 50.295 201.788 50.295C201.835 50.295 201.881 50.295 201.928 50.295C201.928 50.3183 201.928 50.3299 201.928 50.3299C201.928 50.3299 201.94 50.3299 201.963 50.3299C201.986 50.3299 202.021 50.3299 202.067 50.3299C202.114 50.3299 202.149 50.3299 202.172 50.3299C202.265 50.3299 202.358 50.3299 202.451 50.3299C202.568 50.3067 202.684 50.295 202.8 50.295C203.01 50.2718 203.208 50.2369 203.394 50.1903C203.58 50.1438 203.708 50.0973 203.778 50.0508C203.941 49.9344 204.045 49.5389 204.092 48.8643C204.162 48.1664 204.208 47.4219 204.231 46.6309C204.231 46.4913 204.231 46.3634 204.231 46.247C204.231 46.1074 204.231 45.9679 204.231 45.8283V34.9057C204.231 34.7893 204.231 34.6846 204.231 34.5916C204.231 34.4753 204.231 34.3589 204.231 34.2426C204.208 33.8006 204.162 33.3818 204.092 32.9863C204.045 32.5909 203.952 32.3466 203.813 32.2535C203.65 32.0907 203.44 31.9976 203.184 31.9743C202.952 31.9278 202.707 31.8929 202.451 31.8697C202.428 31.8697 202.393 31.8697 202.347 31.8697C202.323 31.8697 202.289 31.8697 202.242 31.8697C202.149 31.8697 202.056 31.8697 201.963 31.8697C201.893 31.8464 201.812 31.8348 201.718 31.8348V30.6483C202.067 30.6715 202.417 30.6948 202.766 30.7181C203.138 30.7181 203.51 30.7181 203.882 30.7181C204.418 30.7413 204.953 30.7646 205.488 30.7879C206.046 30.7879 206.582 30.7879 207.093 30.7879C207.978 30.7879 208.862 30.7762 209.746 30.753C210.63 30.7297 211.526 30.7064 212.434 30.6832C212.48 30.6832 212.527 30.6832 212.573 30.6832C212.62 30.6832 212.666 30.6832 212.713 30.6832C213.341 30.6832 213.958 30.6715 214.563 30.6483C215.191 30.625 215.819 30.6134 216.447 30.6134L216.831 31.067C216.785 31.7882 216.738 32.5211 216.692 33.2655C216.668 33.9867 216.657 34.7195 216.657 35.464H215.435C215.412 34.9987 215.365 34.5567 215.296 34.1379C215.249 33.7192 215.202 33.3004 215.156 32.8817C214.807 32.7886 214.446 32.7072 214.074 32.6374C213.725 32.5676 213.364 32.5094 212.992 32.4629C212.666 32.4396 212.352 32.4164 212.05 32.3931C211.747 32.3698 211.445 32.3582 211.142 32.3582C210.933 32.3582 210.723 32.3698 210.514 32.3931C210.328 32.3931 210.13 32.3931 209.921 32.3931C209.851 32.3931 209.781 32.4047 209.711 32.428C209.641 32.428 209.572 32.428 209.502 32.428C209.362 32.428 209.223 32.4396 209.083 32.4629C208.967 32.4629 208.839 32.4629 208.699 32.4629C208.676 32.6257 208.652 32.7886 208.629 32.9514C208.629 33.1143 208.629 33.2655 208.629 33.4051C208.606 33.568 208.594 33.7308 208.594 33.8937C208.594 34.0565 208.594 34.2194 208.594 34.3822V40.0006C208.687 40.0006 208.792 40.0006 208.908 40.0006C209.048 40.0006 209.188 40.0006 209.327 40.0006C209.397 40.0238 209.467 40.0354 209.537 40.0354C209.63 40.0354 209.711 40.0354 209.781 40.0354C209.851 40.0354 209.909 40.0354 209.955 40.0354C210.025 40.0354 210.095 40.0354 210.165 40.0354C210.328 40.0354 210.491 40.0354 210.654 40.0354C210.816 40.0354 210.979 40.0238 211.142 40.0006C211.608 39.9773 212.05 39.9424 212.468 39.8959C212.911 39.8261 213.26 39.7446 213.516 39.6516C213.678 39.5818 213.783 39.4422 213.83 39.2328C213.899 39.0002 213.946 38.7559 213.969 38.5C213.993 38.4069 214.004 38.3255 214.004 38.2557C214.004 38.1627 214.016 38.0696 214.039 37.9766C214.039 37.8835 214.039 37.8021 214.039 37.7323C214.039 37.6392 214.051 37.5578 214.074 37.488H215.261C215.261 37.6276 215.249 37.7788 215.226 37.9417C215.226 38.0812 215.226 38.2208 215.226 38.3604C215.202 38.8024 215.179 39.2445 215.156 39.6865C215.156 40.1052 215.156 40.5124 215.156 40.9079C215.156 41.2336 215.156 41.5825 215.156 41.9548C215.179 42.3037 215.191 42.6527 215.191 43.0017C215.214 43.211 215.226 43.432 215.226 43.6647C215.226 43.8741 215.237 44.0835 215.261 44.2928H213.969V43.56C213.969 43.4902 213.969 43.4204 213.969 43.3506C213.969 43.2576 213.958 43.1761 213.934 43.1063C213.911 42.8039 213.841 42.5247 213.725 42.2688C213.632 42.0129 213.481 41.8617 213.271 41.8152C212.992 41.7221 212.678 41.664 212.329 41.6407C211.98 41.5942 211.619 41.5593 211.247 41.536C211.107 41.536 210.968 41.536 210.828 41.536C210.712 41.536 210.584 41.536 210.444 41.536H208.594V47.6778C208.594 48.9108 208.699 49.6669 208.908 49.9461C209.118 50.202 209.758 50.3299 210.828 50.3299C210.875 50.3299 210.921 50.3299 210.968 50.3299C211.037 50.3299 211.096 50.3183 211.142 50.295C211.189 50.295 211.235 50.295 211.282 50.295C211.352 50.295 211.41 50.295 211.456 50.295V51.5862C211.014 51.5629 210.56 51.5513 210.095 51.5513C209.653 51.528 209.211 51.5164 208.769 51.5164C208.303 51.5164 207.838 51.5164 207.373 51.5164C206.931 51.5164 206.488 51.5164 206.046 51.5164C205.86 51.5164 205.674 51.5164 205.488 51.5164C205.302 51.5164 205.116 51.5164 204.93 51.5164C204.394 51.5164 203.848 51.528 203.289 51.5513C202.754 51.5513 202.219 51.5629 201.684 51.5862Z" fill="#67850B"/>
<path d="M217.795 51.5862V50.3299C218.795 50.3067 219.4 50.1904 219.61 49.981C219.819 49.7483 219.924 49.1202 219.924 48.0966V41.536C219.924 40.5589 219.843 39.9773 219.68 39.7912C219.517 39.6051 219.063 39.5004 218.318 39.4771C218.225 39.4771 218.132 39.4771 218.039 39.4771C217.969 39.4771 217.888 39.4771 217.795 39.4771V38.2906C218.749 38.1743 219.68 38.0231 220.587 37.837C221.518 37.6509 222.414 37.3717 223.275 36.9995L223.728 37.1739V40.1052C223.845 39.9889 223.949 39.8726 224.042 39.7563C224.136 39.6167 224.24 39.4771 224.357 39.3375C224.822 38.7559 225.311 38.2208 225.823 37.7323C226.358 37.2437 226.998 36.9995 227.742 36.9995C227.812 36.9995 227.893 36.9995 227.986 36.9995C228.103 36.9995 228.208 37.0111 228.301 37.0343C228.394 37.0343 228.475 37.046 228.545 37.0692C228.615 37.0692 228.685 37.0809 228.754 37.1041L228.37 41.3964L227.847 41.536C227.707 41.2103 227.486 40.9544 227.184 40.7683C226.904 40.5589 226.602 40.4426 226.276 40.4193C226.23 40.396 226.183 40.3844 226.137 40.3844C226.09 40.3844 226.044 40.3844 225.997 40.3844C225.95 40.3844 225.904 40.3844 225.857 40.3844C225.811 40.3844 225.764 40.396 225.718 40.4193C225.229 40.4658 224.775 40.7101 224.357 41.1521C223.938 41.5942 223.728 42.2107 223.728 43.0017V48.0966C223.728 49.1435 223.821 49.7716 224.008 49.981C224.217 50.1671 224.741 50.2718 225.578 50.295C225.695 50.295 225.811 50.3067 225.927 50.3299C226.067 50.3299 226.206 50.3299 226.346 50.3299V51.5862C225.997 51.5629 225.636 51.5513 225.264 51.5513C224.915 51.528 224.554 51.5164 224.182 51.5164C223.81 51.5164 223.438 51.5164 223.065 51.5164C222.716 51.5164 222.367 51.5164 222.018 51.5164C221.669 51.5164 221.32 51.5164 220.971 51.5164C220.622 51.5164 220.273 51.5164 219.924 51.5164C219.552 51.5164 219.191 51.528 218.842 51.5513C218.493 51.5513 218.144 51.5629 217.795 51.5862Z" fill="#67850B"/>
<path d="M230.983 51.5862V50.3299C231.006 50.3299 231.018 50.3299 231.018 50.3299C231.041 50.3299 231.065 50.3299 231.088 50.3299C232.088 50.3067 232.693 50.202 232.903 50.0159C233.136 49.8298 233.263 49.19 233.287 48.0966V41.1172C233.287 40.303 233.147 39.8261 232.868 39.6865C232.589 39.5469 231.972 39.4771 231.018 39.4771L231.088 38.2906C231.623 38.2441 232.147 38.1743 232.659 38.0812C233.17 37.9882 233.671 37.8835 234.159 37.7672C234.601 37.6741 235.044 37.5694 235.486 37.4531C235.928 37.3135 236.381 37.1623 236.847 36.9995L237.196 37.1739C237.173 37.8253 237.149 38.4767 237.126 39.1281C237.126 39.7563 237.126 40.3844 237.126 41.0126V48.0966C237.126 48.0966 237.126 48.1198 237.126 48.1663C237.126 48.1896 237.126 48.2129 237.126 48.2361C237.103 48.2827 237.091 48.3292 237.091 48.3757C237.091 48.399 237.091 48.4106 237.091 48.4106C237.091 49.3179 237.196 49.8646 237.405 50.0508C237.638 50.2369 238.289 50.3299 239.36 50.3299V51.5862C238.639 51.5397 237.929 51.5164 237.231 51.5164C236.533 51.5164 235.846 51.5164 235.171 51.5164C234.729 51.5164 234.264 51.5164 233.775 51.5164C233.31 51.5164 232.845 51.528 232.379 51.5513C232.147 51.5513 231.914 51.5513 231.681 51.5513C231.449 51.5513 231.216 51.5629 230.983 51.5862ZM232.903 32.4629C232.903 31.7882 233.112 31.2764 233.531 30.9275C233.95 30.5552 234.415 30.3575 234.927 30.3342C234.95 30.3342 234.962 30.3342 234.962 30.3342C234.985 30.3342 235.009 30.3342 235.032 30.3342C235.078 30.3342 235.125 30.3342 235.171 30.3342C235.218 30.3342 235.265 30.3342 235.311 30.3342C235.8 30.404 236.253 30.6134 236.672 30.9623C237.091 31.3113 237.301 31.8115 237.301 32.4629C237.301 33.1841 237.079 33.7308 236.637 34.103C236.195 34.452 235.718 34.6381 235.206 34.6614C235.183 34.6614 235.16 34.6614 235.137 34.6614C235.137 34.6614 235.125 34.6614 235.102 34.6614C234.543 34.6614 234.031 34.4753 233.566 34.103C233.124 33.7308 232.903 33.1841 232.903 32.4629Z" fill="#67850B"/>
<path d="M253.833 48.8294L254.148 49.283C254.101 49.3994 254.043 49.5273 253.973 49.6669C253.927 49.7832 253.868 49.8995 253.799 50.0159C253.729 50.1555 253.659 50.295 253.589 50.4346C253.519 50.5509 253.45 50.6673 253.38 50.7836C252.845 51.0628 252.24 51.2954 251.565 51.4815C250.89 51.6676 250.204 51.7956 249.506 51.8654C249.319 51.8886 249.133 51.9003 248.947 51.9003C248.761 51.9235 248.575 51.9352 248.389 51.9352C248.249 51.9352 248.098 51.9235 247.935 51.9003C247.795 51.9003 247.656 51.9003 247.516 51.9003C246.841 51.8305 246.167 51.7025 245.492 51.5164C244.84 51.307 244.259 51.0046 243.747 50.6091C243.049 50.074 242.502 49.3528 242.106 48.4455C241.711 47.5149 241.478 46.5378 241.408 45.5142C241.385 45.3979 241.373 45.2816 241.373 45.1652C241.373 45.0489 241.373 44.9326 241.373 44.8163C241.373 44.7232 241.373 44.6302 241.373 44.5371C241.373 44.444 241.385 44.351 241.408 44.2579C241.431 43.5367 241.548 42.8388 241.757 42.1641C241.967 41.4895 242.223 40.8962 242.525 40.3844C243.06 39.5236 243.793 38.8257 244.724 38.2906C245.655 37.7555 246.62 37.3949 247.621 37.2088C247.853 37.1856 248.075 37.1623 248.284 37.139C248.517 37.1158 248.738 37.1041 248.947 37.1041C250.367 37.1041 251.623 37.5229 252.717 38.3604C253.833 39.1747 254.392 40.5124 254.392 42.3735V42.8621C254.276 42.9551 254.136 43.0714 253.973 43.211C253.81 43.3274 253.636 43.4553 253.45 43.5949C253.31 43.688 253.17 43.781 253.031 43.8741C252.914 43.9439 252.786 44.0253 252.647 44.1183C252.391 44.2579 252.135 44.3859 251.879 44.5022C251.646 44.5953 251.425 44.6418 251.216 44.6418H245.457C245.573 45.712 245.841 46.7007 246.26 47.608C246.702 48.5153 247.47 49.1783 248.563 49.5971C248.703 49.6436 248.842 49.6902 248.982 49.7367C249.145 49.76 249.308 49.7949 249.471 49.8414C249.634 49.8646 249.785 49.8879 249.924 49.9112C250.087 49.9344 250.239 49.9461 250.378 49.9461C250.518 49.9461 250.657 49.9461 250.797 49.9461C250.96 49.9228 251.123 49.8995 251.286 49.8763C251.728 49.7832 252.17 49.6553 252.612 49.4924C253.054 49.3063 253.461 49.0853 253.833 48.8294ZM245.282 43.1761C245.585 43.1761 245.876 43.1761 246.155 43.1761C246.457 43.1761 246.76 43.1761 247.062 43.1761C247.365 43.1994 247.656 43.211 247.935 43.211C248.237 43.211 248.54 43.211 248.842 43.211C248.982 43.211 249.122 43.211 249.261 43.211C249.424 43.211 249.587 43.1994 249.75 43.1761C249.913 43.1761 250.064 43.1761 250.204 43.1761C250.366 43.1761 250.518 43.1761 250.657 43.1761V42.548C250.657 42.4317 250.657 42.3154 250.657 42.199C250.657 42.0594 250.646 41.9199 250.622 41.7803C250.576 40.966 250.367 40.2332 249.994 39.5818C249.645 38.9071 248.959 38.5698 247.935 38.5698C247.027 38.5698 246.364 38.8955 245.945 39.5469C245.55 40.1983 245.317 40.9079 245.247 41.6756C245.224 41.7919 245.213 41.9082 245.213 42.0246C245.213 42.1409 245.213 42.2572 245.213 42.3735C245.213 42.42 245.213 42.4782 245.213 42.548C245.236 42.6178 245.247 42.6876 245.247 42.7574C245.247 42.7806 245.247 42.7923 245.247 42.7923C245.247 42.7923 245.247 42.8039 245.247 42.8272C245.271 42.897 245.282 42.9668 245.282 43.0366C245.282 43.0831 245.282 43.1296 245.282 43.1761Z" fill="#67850B"/>
<path d="M256.582 51.5862V50.3997C256.605 50.3997 256.628 50.3997 256.651 50.3997C256.698 50.3997 256.733 50.3997 256.756 50.3997C257.547 50.3532 258.059 50.2485 258.292 50.0857C258.548 49.8995 258.676 49.3412 258.676 48.4106V41.536C258.676 41.5127 258.676 41.4895 258.676 41.4662C258.676 41.4429 258.676 41.4197 258.676 41.3964C258.676 41.3731 258.676 41.3615 258.676 41.3615C258.676 41.3383 258.676 41.3266 258.676 41.3266C258.652 41.2801 258.641 41.2452 258.641 41.2219C258.641 41.1754 258.641 41.1405 258.641 41.1172C258.641 40.4193 258.524 39.9889 258.292 39.8261C258.082 39.64 257.663 39.5469 257.035 39.5469H256.582V38.3953C257.047 38.3255 257.512 38.2441 257.978 38.151C258.443 38.058 258.92 37.9533 259.409 37.837C259.874 37.7206 260.339 37.5927 260.805 37.4531C261.27 37.3135 261.735 37.1739 262.201 37.0343L262.515 37.2786V39.6516L265.412 37.3833C265.645 37.2903 265.912 37.2205 266.215 37.1739C266.517 37.1274 266.82 37.1041 267.122 37.1041C267.285 37.1041 267.448 37.1158 267.611 37.139C267.774 37.139 267.936 37.1507 268.099 37.1739C268.448 37.2205 268.786 37.2903 269.112 37.3833C269.437 37.4764 269.717 37.5927 269.949 37.7323C270.577 38.1278 270.996 38.6745 271.206 39.3724C271.438 40.0471 271.578 40.745 271.625 41.4662C271.625 41.5593 271.625 41.6523 271.625 41.7454C271.625 41.8384 271.625 41.9315 271.625 42.0246C271.625 42.1176 271.625 42.2107 271.625 42.3037C271.625 42.3735 271.625 42.4433 271.625 42.5131C271.625 42.6527 271.625 42.7923 271.625 42.9319C271.625 43.0482 271.625 43.1645 271.625 43.2808C271.601 43.4902 271.59 43.6996 271.59 43.909C271.59 44.0951 271.59 44.2812 271.59 44.4673V48.3059C271.59 49.283 271.683 49.8646 271.869 50.0508C272.055 50.2369 272.602 50.3532 273.509 50.3997C273.533 50.3997 273.544 50.3997 273.544 50.3997C273.567 50.3997 273.591 50.3997 273.614 50.3997V51.5862C273.451 51.5629 273.277 51.5513 273.09 51.5513C272.928 51.5513 272.765 51.5513 272.602 51.5513C272.253 51.528 271.904 51.5164 271.555 51.5164C271.229 51.5164 270.903 51.5164 270.577 51.5164C270.089 51.5164 269.589 51.5164 269.077 51.5164C268.588 51.5164 268.088 51.5397 267.576 51.5862C267.576 51.3303 267.587 51.086 267.611 50.8534C267.634 50.5975 267.646 50.3416 267.646 50.0857C267.669 50.0391 267.681 50.0042 267.681 49.981C267.681 49.9344 267.681 49.8879 267.681 49.8414C267.704 49.5622 267.715 49.283 267.715 49.0039C267.739 48.7014 267.75 48.399 267.75 48.0966V43.2808C267.75 42.3968 267.611 41.5942 267.332 40.873C267.076 40.1518 266.401 39.7795 265.307 39.7563H265.028C264.493 39.7563 263.992 39.9191 263.527 40.2448C263.085 40.5473 262.736 40.9544 262.48 41.4662V48.6549C262.48 48.6549 262.468 48.6665 262.445 48.6898C262.445 48.7131 262.445 48.7363 262.445 48.7596C262.445 48.7829 262.434 48.8061 262.41 48.8294C262.41 48.8526 262.41 48.8643 262.41 48.8643C262.41 49.5855 262.561 50.0159 262.864 50.1554C263.19 50.295 263.655 50.3648 264.26 50.3648C264.33 50.3881 264.411 50.3997 264.504 50.3997C264.597 50.3997 264.691 50.3997 264.784 50.3997V51.5862C264.411 51.5629 264.039 51.5513 263.667 51.5513C263.294 51.528 262.922 51.5164 262.55 51.5164C262.154 51.5164 261.77 51.5164 261.398 51.5164C261.026 51.5164 260.653 51.5164 260.281 51.5164C259.979 51.5164 259.676 51.5164 259.374 51.5164C259.071 51.5164 258.757 51.5164 258.431 51.5164C258.129 51.5164 257.815 51.528 257.489 51.5513C257.186 51.5513 256.884 51.5629 256.582 51.5862Z" fill="#67850B"/>
<path d="M292 50.4695V51.5862C291.884 51.5862 291.756 51.5862 291.616 51.5862C291.5 51.5629 291.372 51.5513 291.232 51.5513C290.86 51.528 290.476 51.5164 290.08 51.5164C289.708 51.5164 289.347 51.5164 288.998 51.5164C288.51 51.5164 288.009 51.5164 287.498 51.5164C287.009 51.5164 286.509 51.5397 285.997 51.5862C286.02 51.3768 286.032 51.1791 286.032 50.993C286.055 50.7836 286.067 50.5858 286.067 50.3997C286.067 50.3299 286.067 50.2718 286.067 50.2252C286.067 50.1555 286.067 50.0857 286.067 50.0159C286.067 49.8763 286.067 49.7483 286.067 49.632C286.09 49.4924 286.101 49.3528 286.101 49.2132L283.344 51.4815C283.228 51.5513 283.088 51.6095 282.925 51.656C282.762 51.7025 282.588 51.7374 282.402 51.7607C282.262 51.784 282.123 51.7956 281.983 51.7956C281.843 51.8189 281.715 51.8305 281.599 51.8305L281.285 51.8654C279.47 51.8421 278.086 51.1558 277.132 49.8065C276.201 48.4339 275.724 46.9333 275.701 45.3048C275.701 45.2816 275.701 45.2699 275.701 45.2699C275.701 45.2467 275.701 45.2234 275.701 45.2001C275.701 45.014 275.701 44.8395 275.701 44.6767C275.724 44.4906 275.747 44.3045 275.77 44.1183C275.817 43.6996 275.898 43.2808 276.015 42.8621C276.131 42.4433 276.271 42.0478 276.433 41.6756C276.945 40.5356 277.771 39.5702 278.912 38.7792C280.075 37.9882 281.297 37.5113 282.576 37.3484C282.739 37.3251 282.902 37.3135 283.065 37.3135C283.228 37.2903 283.391 37.2786 283.554 37.2786C283.67 37.2786 283.775 37.2786 283.868 37.2786C283.984 37.2786 284.1 37.2903 284.217 37.3135C284.542 37.3368 284.868 37.3949 285.194 37.488C285.52 37.5578 285.822 37.6625 286.101 37.8021V33.9286C286.101 32.9747 286.008 32.4164 285.822 32.2535C285.659 32.0907 285.136 31.9976 284.252 31.9743C284.205 31.9743 284.147 31.9743 284.077 31.9743C284.031 31.9743 283.972 31.9743 283.903 31.9743V30.9275C284.903 30.7879 285.88 30.6017 286.834 30.3691C287.788 30.1132 288.731 29.8108 289.662 29.4618L290.115 29.741C290.092 30.2528 290.057 30.7762 290.011 31.3113C289.987 31.8231 289.964 32.3466 289.941 32.8817C289.917 33.1376 289.906 33.4051 289.906 33.6843C289.906 33.9402 289.906 34.1961 289.906 34.452V48.3757C289.906 48.399 289.894 48.4339 289.871 48.4804C289.871 48.5269 289.871 48.5851 289.871 48.6549C289.871 48.7247 289.859 48.7829 289.836 48.8294C289.836 48.8759 289.836 48.9108 289.836 48.9341C289.836 49.6087 289.964 50.0391 290.22 50.2252C290.499 50.3881 291.093 50.4695 292 50.4695ZM286.101 40.7334C285.729 40.2448 285.241 39.8261 284.636 39.4771C284.054 39.1049 283.437 38.9188 282.786 38.9188C282.716 38.9188 282.634 38.9304 282.541 38.9537C282.472 38.9537 282.39 38.9537 282.297 38.9537C282.274 38.9537 282.239 38.9653 282.192 38.9886C282.169 38.9886 282.146 38.9886 282.123 38.9886C282.076 38.9886 282.018 39.0002 281.948 39.0234C281.902 39.0234 281.855 39.0234 281.808 39.0234C281.041 39.2794 280.494 39.7679 280.168 40.4891C279.866 41.2103 279.691 41.978 279.644 42.7923C279.621 42.8853 279.61 42.99 279.61 43.1063C279.61 43.1994 279.61 43.2925 279.61 43.3855C279.61 43.432 279.61 43.4902 279.61 43.56C279.61 43.6065 279.61 43.6647 279.61 43.7345C279.633 43.9904 279.656 44.2579 279.679 44.5371C279.726 44.793 279.761 45.0373 279.784 45.2699C279.807 45.3863 279.819 45.5026 279.819 45.6189C279.842 45.7352 279.866 45.8399 279.889 45.933C280.122 46.9566 280.517 47.736 281.076 48.271C281.634 48.7829 282.216 49.0853 282.821 49.1783C282.89 49.2016 282.96 49.2132 283.03 49.2132C283.1 49.2132 283.17 49.2132 283.239 49.2132C283.984 49.2132 284.647 48.9573 285.229 48.4455C285.811 47.9337 286.101 47.2823 286.101 46.4913V40.7334Z" fill="#67850B"/>
<path d="M107.335 71.5862V70.9687C107.346 70.9687 107.362 70.9687 107.385 70.9687C107.407 70.9687 107.429 70.9687 107.451 70.9687C107.451 70.9798 107.451 70.9854 107.451 70.9854C107.451 70.9854 107.457 70.9854 107.468 70.9854C107.479 70.9854 107.496 70.9854 107.518 70.9854C107.54 70.9854 107.557 70.9854 107.568 70.9854C107.613 70.9854 107.657 70.9854 107.702 70.9854C107.757 70.9743 107.813 70.9687 107.869 70.9687C107.969 70.9576 108.063 70.9409 108.152 70.9186C108.241 70.8964 108.303 70.8741 108.336 70.8519C108.414 70.7962 108.464 70.6071 108.486 70.2844C108.52 69.9506 108.542 69.5946 108.553 69.2163C108.553 69.1495 108.553 69.0883 108.553 69.0327C108.553 68.9659 108.553 68.8992 108.553 68.8324V63.6086C108.553 63.5529 108.553 63.5029 108.553 63.4584C108.553 63.4027 108.553 63.3471 108.553 63.2915C108.542 63.08 108.52 62.8798 108.486 62.6906C108.464 62.5015 108.42 62.3846 108.353 62.3401C108.275 62.2623 108.175 62.2178 108.052 62.2066C107.941 62.1844 107.824 62.1677 107.702 62.1566C107.691 62.1566 107.674 62.1566 107.652 62.1566C107.641 62.1566 107.624 62.1566 107.602 62.1566C107.557 62.1566 107.513 62.1566 107.468 62.1566C107.435 62.1454 107.396 62.1399 107.351 62.1399V61.5724C107.518 61.5835 107.685 61.5947 107.852 61.6058C108.03 61.6058 108.208 61.6058 108.386 61.6058C108.642 61.6169 108.898 61.628 109.154 61.6392C109.421 61.6392 109.677 61.6392 109.922 61.6392C110.345 61.6392 110.768 61.6336 111.19 61.6225C111.613 61.6114 112.042 61.6002 112.476 61.5891C112.498 61.5891 112.52 61.5891 112.543 61.5891C112.565 61.5891 112.587 61.5891 112.609 61.5891C112.91 61.5891 113.205 61.5835 113.494 61.5724C113.795 61.5613 114.095 61.5557 114.395 61.5557L114.579 61.7727C114.557 62.1176 114.535 62.4681 114.512 62.8241C114.501 63.1691 114.496 63.5195 114.496 63.8756H113.911C113.9 63.6531 113.878 63.4417 113.845 63.2414C113.822 63.0411 113.8 62.8408 113.778 62.6406C113.611 62.5961 113.438 62.5571 113.26 62.5237C113.093 62.4903 112.921 62.4625 112.743 62.4403C112.587 62.4291 112.437 62.418 112.292 62.4069C112.148 62.3958 112.003 62.3902 111.858 62.3902C111.758 62.3902 111.658 62.3958 111.558 62.4069C111.469 62.4069 111.374 62.4069 111.274 62.4069C111.241 62.4069 111.207 62.4125 111.174 62.4236C111.14 62.4236 111.107 62.4236 111.074 62.4236C111.007 62.4236 110.94 62.4291 110.873 62.4403C110.818 62.4403 110.756 62.4403 110.69 62.4403C110.679 62.5182 110.667 62.5961 110.656 62.6739C110.656 62.7518 110.656 62.8241 110.656 62.8909C110.645 62.9688 110.64 63.0467 110.64 63.1246C110.64 63.2024 110.64 63.2803 110.64 63.3582V66.0452C110.684 66.0452 110.734 66.0452 110.79 66.0452C110.857 66.0452 110.923 66.0452 110.99 66.0452C111.024 66.0564 111.057 66.0619 111.09 66.0619C111.135 66.0619 111.174 66.0619 111.207 66.0619C111.241 66.0619 111.268 66.0619 111.291 66.0619C111.324 66.0619 111.357 66.0619 111.391 66.0619C111.469 66.0619 111.547 66.0619 111.625 66.0619C111.702 66.0619 111.78 66.0564 111.858 66.0452C112.081 66.0341 112.292 66.0174 112.493 65.9952C112.704 65.9618 112.871 65.9229 112.993 65.8783C113.071 65.845 113.121 65.7782 113.144 65.6781C113.177 65.5668 113.199 65.45 113.21 65.3276C113.221 65.2831 113.227 65.2441 113.227 65.2108C113.227 65.1663 113.233 65.1217 113.244 65.0772C113.244 65.0327 113.244 64.9938 113.244 64.9604C113.244 64.9159 113.249 64.877 113.26 64.8436H113.828C113.828 64.9103 113.822 64.9827 113.811 65.0606C113.811 65.1273 113.811 65.1941 113.811 65.2608C113.8 65.4722 113.789 65.6836 113.778 65.895C113.778 66.0953 113.778 66.29 113.778 66.4792C113.778 66.6349 113.778 66.8018 113.778 66.9799C113.789 67.1468 113.795 67.3137 113.795 67.4806C113.806 67.5807 113.811 67.6864 113.811 67.7977C113.811 67.8978 113.817 67.9979 113.828 68.0981H113.21V67.7476C113.21 67.7142 113.21 67.6808 113.21 67.6475C113.21 67.603 113.205 67.564 113.194 67.5306C113.182 67.386 113.149 67.2525 113.093 67.1301C113.049 67.0077 112.977 66.9354 112.876 66.9131C112.743 66.8686 112.593 66.8408 112.426 66.8297C112.259 66.8074 112.086 66.7907 111.908 66.7796C111.842 66.7796 111.775 66.7796 111.708 66.7796C111.652 66.7796 111.591 66.7796 111.524 66.7796H110.64V69.717C110.64 70.3067 110.69 70.6683 110.79 70.8018C110.89 70.9242 111.196 70.9854 111.708 70.9854C111.73 70.9854 111.752 70.9854 111.775 70.9854C111.808 70.9854 111.836 70.9798 111.858 70.9687C111.88 70.9687 111.903 70.9687 111.925 70.9687C111.958 70.9687 111.986 70.9687 112.008 70.9687V71.5862C111.797 71.5751 111.58 71.5695 111.357 71.5695C111.146 71.5584 110.935 71.5528 110.723 71.5528C110.501 71.5528 110.278 71.5528 110.055 71.5528C109.844 71.5528 109.633 71.5528 109.421 71.5528C109.332 71.5528 109.243 71.5528 109.154 71.5528C109.065 71.5528 108.976 71.5528 108.887 71.5528C108.631 71.5528 108.369 71.5584 108.102 71.5695C107.846 71.5695 107.59 71.5751 107.335 71.5862Z" fill="#2F2F2F"/>
<path d="M119.28 61.489H120.265L122.451 66.6961C122.496 66.8074 122.54 66.9187 122.585 67.0299C122.629 67.1412 122.674 67.2525 122.719 67.3637C122.752 67.4527 122.785 67.5473 122.819 67.6475C122.863 67.7365 122.902 67.831 122.936 67.9312C123.125 68.3874 123.314 68.8491 123.503 69.3164C123.703 69.7726 123.92 70.2121 124.154 70.6349C124.254 70.7907 124.382 70.8908 124.538 70.9353C124.694 70.9687 124.866 70.9965 125.055 71.0188C125.055 71.0188 125.061 71.0188 125.072 71.0188C125.083 71.0188 125.094 71.0188 125.106 71.0188V71.5862C124.927 71.5751 124.744 71.5695 124.555 71.5695C124.366 71.5584 124.176 71.5528 123.987 71.5528C123.787 71.5528 123.592 71.5528 123.403 71.5528C123.225 71.5528 123.041 71.5528 122.852 71.5528C122.652 71.5528 122.44 71.5528 122.218 71.5528C122.006 71.5528 121.795 71.5528 121.583 71.5528C121.417 71.564 121.25 71.5695 121.083 71.5695C120.927 71.5695 120.771 71.5751 120.615 71.5862V71.0188C120.938 71.0188 121.205 71.0021 121.417 70.9687C121.639 70.9353 121.75 70.8185 121.75 70.6182C121.75 70.5626 121.739 70.4847 121.717 70.3846C121.695 70.2844 121.661 70.1787 121.617 70.0675L120.849 68.1315H117.527L116.96 69.6168C116.882 69.8282 116.815 70.0229 116.759 70.201C116.715 70.3679 116.693 70.4958 116.693 70.5848C116.693 70.774 116.77 70.8908 116.926 70.9353C117.082 70.9687 117.316 70.9965 117.627 71.0188C117.661 71.0188 117.689 71.0188 117.711 71.0188C117.733 71.0188 117.761 71.0188 117.794 71.0188V71.5862C117.616 71.5751 117.433 71.5695 117.243 71.5695C117.065 71.5584 116.882 71.5528 116.693 71.5528C116.603 71.5528 116.509 71.5528 116.409 71.5528C116.32 71.5528 116.231 71.5528 116.142 71.5528C115.875 71.5528 115.607 71.5528 115.34 71.5528C115.073 71.5528 114.801 71.564 114.522 71.5862V71.0188C114.879 70.9631 115.123 70.8908 115.257 70.8018C115.402 70.7128 115.524 70.5681 115.624 70.3679C115.669 70.2677 115.719 70.1453 115.774 70.0007C115.83 69.856 115.902 69.6892 115.991 69.5C116.57 68.176 117.132 66.8464 117.677 65.5112C118.223 64.176 118.757 62.8353 119.28 61.489ZM119.146 63.8255L117.828 67.3637C117.939 67.3637 118.05 67.3693 118.161 67.3804C118.273 67.3804 118.384 67.3804 118.495 67.3804C118.607 67.3804 118.718 67.386 118.829 67.3971C118.952 67.3971 119.068 67.3971 119.18 67.3971C119.28 67.3971 119.38 67.3971 119.48 67.3971C119.58 67.3971 119.68 67.3915 119.781 67.3804C119.792 67.3804 119.803 67.3804 119.814 67.3804C119.836 67.3804 119.859 67.3804 119.881 67.3804C119.992 67.3804 120.103 67.3804 120.215 67.3804C120.337 67.3693 120.454 67.3637 120.565 67.3637L119.146 63.8255Z" fill="#2F2F2F"/>
<path d="M135.222 64.4263H134.654C134.643 63.7143 134.543 63.1858 134.354 62.8408C134.176 62.4959 133.664 62.2567 132.818 62.1232C132.751 62.112 132.679 62.1065 132.601 62.1065C132.523 62.0954 132.445 62.0842 132.367 62.0731C132.312 62.0731 132.256 62.0731 132.201 62.0731C132.145 62.062 132.089 62.0564 132.034 62.0564C131.188 62.0564 130.442 62.3068 129.797 62.8075C129.151 63.297 128.717 63.9869 128.495 64.877C128.473 64.9882 128.45 65.1051 128.428 65.2274C128.406 65.3498 128.389 65.4722 128.378 65.5946C128.356 65.6948 128.339 65.7949 128.328 65.895C128.328 65.9952 128.328 66.0953 128.328 66.1954C128.328 66.2733 128.328 66.3512 128.328 66.4291C128.339 66.4959 128.345 66.5626 128.345 66.6294C128.4 67.3637 128.601 68.0703 128.945 68.749C129.29 69.4166 129.78 69.9451 130.414 70.3345C130.737 70.5236 131.065 70.6683 131.399 70.7684C131.733 70.8574 132.073 70.9019 132.418 70.9019C132.596 70.9019 132.774 70.8908 132.952 70.8686C133.141 70.8463 133.33 70.8129 133.519 70.7684C133.842 70.7017 134.165 70.6126 134.487 70.5014C134.821 70.379 135.138 70.251 135.439 70.1175L135.639 70.2677C135.617 70.3011 135.589 70.3401 135.556 70.3846C135.533 70.4291 135.506 70.468 135.472 70.5014C135.417 70.5793 135.361 70.6572 135.305 70.735C135.261 70.8129 135.216 70.8908 135.172 70.9687C134.704 71.2357 134.193 71.4416 133.636 71.5862C133.091 71.7197 132.534 71.7976 131.967 71.8199C131.922 71.8199 131.878 71.8199 131.833 71.8199C131.8 71.8199 131.761 71.8199 131.716 71.8199C130.537 71.8199 129.43 71.5361 128.395 70.9687C127.36 70.3901 126.681 69.4944 126.358 68.2817C126.291 67.9924 126.23 67.7086 126.175 67.4305C126.13 67.1523 126.108 66.8797 126.108 66.6127C126.108 65.5891 126.369 64.6489 126.892 63.7921C127.415 62.9243 128.183 62.2678 129.196 61.8228C129.474 61.7004 129.758 61.6058 130.047 61.539C130.337 61.4612 130.626 61.4 130.915 61.3555C131.071 61.3443 131.221 61.3332 131.366 61.3221C131.511 61.3109 131.655 61.3054 131.8 61.3054C131.956 61.3054 132.112 61.3109 132.267 61.3221C132.423 61.3332 132.579 61.3443 132.735 61.3555C133.202 61.4111 133.664 61.4945 134.12 61.6058C134.588 61.7059 135.038 61.8228 135.472 61.9563C135.406 62.368 135.35 62.7796 135.305 63.1913C135.272 63.603 135.244 64.0147 135.222 64.4263Z" fill="#2F2F2F"/>
<path d="M140.977 61.489H141.962L144.148 66.6961C144.193 66.8074 144.238 66.9187 144.282 67.0299C144.327 67.1412 144.371 67.2525 144.416 67.3637C144.449 67.4527 144.482 67.5473 144.516 67.6475C144.56 67.7365 144.599 67.831 144.633 67.9312C144.822 68.3874 145.011 68.8491 145.2 69.3164C145.4 69.7726 145.617 70.2121 145.851 70.6349C145.951 70.7907 146.079 70.8908 146.235 70.9353C146.391 70.9687 146.563 70.9965 146.753 71.0188C146.753 71.0188 146.758 71.0188 146.769 71.0188C146.78 71.0188 146.791 71.0188 146.803 71.0188V71.5862C146.625 71.5751 146.441 71.5695 146.252 71.5695C146.063 71.5584 145.873 71.5528 145.684 71.5528C145.484 71.5528 145.289 71.5528 145.1 71.5528C144.922 71.5528 144.738 71.5528 144.549 71.5528C144.349 71.5528 144.137 71.5528 143.915 71.5528C143.703 71.5528 143.492 71.5528 143.28 71.5528C143.114 71.564 142.947 71.5695 142.78 71.5695C142.624 71.5695 142.468 71.5751 142.312 71.5862V71.0188C142.635 71.0188 142.902 71.0021 143.114 70.9687C143.336 70.9353 143.447 70.8185 143.447 70.6182C143.447 70.5626 143.436 70.4847 143.414 70.3846C143.392 70.2844 143.358 70.1787 143.314 70.0675L142.546 68.1315H139.224L138.657 69.6168C138.579 69.8282 138.512 70.0229 138.456 70.201C138.412 70.3679 138.39 70.4958 138.39 70.5848C138.39 70.774 138.467 70.8908 138.623 70.9353C138.779 70.9687 139.013 70.9965 139.324 71.0188C139.358 71.0188 139.386 71.0188 139.408 71.0188C139.43 71.0188 139.458 71.0188 139.491 71.0188V71.5862C139.313 71.5751 139.13 71.5695 138.94 71.5695C138.762 71.5584 138.579 71.5528 138.39 71.5528C138.301 71.5528 138.206 71.5528 138.106 71.5528C138.017 71.5528 137.928 71.5528 137.839 71.5528C137.572 71.5528 137.305 71.5528 137.037 71.5528C136.77 71.5528 136.498 71.564 136.22 71.5862V71.0188C136.576 70.9631 136.82 70.8908 136.954 70.8018C137.099 70.7128 137.221 70.5681 137.321 70.3679C137.366 70.2677 137.416 70.1453 137.471 70.0007C137.527 69.856 137.599 69.6892 137.688 69.5C138.267 68.176 138.829 66.8464 139.374 65.5112C139.92 64.176 140.454 62.8353 140.977 61.489ZM140.843 63.8255L139.525 67.3637C139.636 67.3637 139.747 67.3693 139.859 67.3804C139.97 67.3804 140.081 67.3804 140.192 67.3804C140.304 67.3804 140.415 67.386 140.526 67.3971C140.649 67.3971 140.765 67.3971 140.877 67.3971C140.977 67.3971 141.077 67.3971 141.177 67.3971C141.277 67.3971 141.378 67.3915 141.478 67.3804C141.489 67.3804 141.5 67.3804 141.511 67.3804C141.533 67.3804 141.556 67.3804 141.578 67.3804C141.689 67.3804 141.8 67.3804 141.912 67.3804C142.034 67.3693 142.151 67.3637 142.262 67.3637L140.843 63.8255Z" fill="#2F2F2F"/>
<path d="M148.222 71.5862V71.2357C148.345 71.169 148.456 71.1022 148.556 71.0355C148.656 70.9576 148.751 70.8797 148.84 70.8018C148.84 70.7462 148.84 70.6905 148.84 70.6349C148.851 70.5681 148.856 70.5014 148.856 70.4346C148.856 70.4124 148.856 70.3846 148.856 70.3512C148.868 70.3178 148.873 70.2844 148.873 70.251C148.873 70.162 148.873 70.073 148.873 69.984C148.884 69.895 148.89 69.806 148.89 69.717V63.1412C148.89 62.7407 148.829 62.4903 148.706 62.3902C148.595 62.2901 148.3 62.2233 147.822 62.1899C147.81 62.1788 147.794 62.1732 147.771 62.1732C147.749 62.1732 147.727 62.1732 147.705 62.1732V61.5724C147.838 61.5724 147.972 61.578 148.105 61.5891C148.25 61.5891 148.389 61.5947 148.523 61.6058C148.567 61.6058 148.612 61.6114 148.656 61.6225C148.712 61.6225 148.762 61.6225 148.806 61.6225C148.895 61.6225 148.984 61.628 149.073 61.6392C149.174 61.6392 149.268 61.6392 149.357 61.6392C149.413 61.6392 149.474 61.6392 149.541 61.6392C149.608 61.628 149.674 61.6225 149.741 61.6225C149.752 61.6225 149.763 61.6225 149.775 61.6225C149.786 61.6225 149.797 61.6225 149.808 61.6225C149.864 61.6114 149.919 61.6058 149.975 61.6058C150.03 61.6058 150.086 61.6058 150.142 61.6058C150.331 61.6058 150.531 61.6058 150.743 61.6058C150.965 61.5947 151.193 61.5835 151.427 61.5724C151.605 61.5724 151.783 61.5724 151.961 61.5724C152.15 61.5613 152.334 61.5557 152.512 61.5557C152.579 61.5557 152.64 61.5557 152.696 61.5557C152.751 61.5557 152.807 61.5557 152.863 61.5557C152.918 61.5557 152.974 61.5557 153.03 61.5557C153.096 61.5557 153.158 61.5557 153.213 61.5557C153.647 61.5669 154.076 61.5891 154.499 61.6225C154.921 61.6447 155.3 61.6948 155.634 61.7727C156.635 62.0397 157.37 62.5849 157.837 63.4083C158.316 64.2205 158.56 65.0939 158.571 66.0286C158.571 66.0397 158.571 66.0508 158.571 66.0619C158.571 66.0731 158.571 66.0842 158.571 66.0953C158.571 66.1621 158.571 66.2288 158.571 66.2956C158.571 66.3624 158.566 66.4291 158.555 66.4959C158.521 66.9966 158.427 67.4917 158.271 67.9812C158.126 68.4708 157.92 68.9159 157.653 69.3164C156.986 70.2733 156.129 70.8908 155.083 71.169C154.037 71.4471 152.952 71.5918 151.828 71.6029C151.772 71.6029 151.716 71.6029 151.661 71.6029C151.605 71.6029 151.549 71.6029 151.494 71.6029C151.271 71.6029 151.049 71.5973 150.826 71.5862C150.604 71.5862 150.381 71.5862 150.158 71.5862C149.936 71.5862 149.713 71.5862 149.491 71.5862C149.279 71.5862 149.068 71.5862 148.856 71.5862H148.222ZM150.976 63.5752V69.0995C150.976 69.144 150.976 69.1885 150.976 69.233C150.976 69.2775 150.976 69.3164 150.976 69.3498C150.976 69.5723 150.976 69.7949 150.976 70.0174C150.988 70.2288 151.004 70.4569 151.026 70.7017C151.082 70.7128 151.132 70.7239 151.177 70.735C151.232 70.735 151.282 70.735 151.327 70.735C151.483 70.7573 151.633 70.774 151.778 70.7851C151.933 70.7962 152.078 70.8018 152.212 70.8018C153.469 70.8018 154.482 70.4402 155.25 69.717C156.029 68.9938 156.418 67.8477 156.418 66.2789C156.418 64.7435 156.045 63.7087 155.3 63.1746C154.554 62.6294 153.597 62.3568 152.429 62.3568C152.306 62.3568 152.178 62.3624 152.045 62.3735C151.911 62.3846 151.778 62.3958 151.644 62.4069C151.544 62.4069 151.438 62.4125 151.327 62.4236C151.227 62.4347 151.127 62.4403 151.026 62.4403C151.026 62.507 151.021 62.5738 151.01 62.6406C151.01 62.6962 151.01 62.7574 151.01 62.8241C151.01 62.8353 151.01 62.8464 151.01 62.8575C151.01 62.8686 151.01 62.8798 151.01 62.8909C150.999 63.0022 150.988 63.1134 150.976 63.2247C150.976 63.336 150.976 63.4528 150.976 63.5752Z" fill="#2F2F2F"/>
<path d="M160.156 71.5862V71.2357C160.289 71.1801 160.412 71.1189 160.523 71.0521C160.634 70.9743 160.746 70.8908 160.857 70.8018C160.868 70.7128 160.874 70.6238 160.874 70.5348C160.885 70.4457 160.89 70.3512 160.89 70.251C160.901 70.162 160.907 70.073 160.907 69.984C160.907 69.895 160.907 69.806 160.907 69.717V63.3081C160.907 62.8186 160.851 62.5126 160.74 62.3902C160.629 62.2678 160.289 62.1955 159.722 62.1732V61.5724C160.022 61.5724 160.323 61.578 160.623 61.5891C160.935 61.5891 161.246 61.5891 161.558 61.5891C161.87 61.5891 162.176 61.5947 162.476 61.6058C162.788 61.6058 163.094 61.6058 163.394 61.6058C163.695 61.6058 164.001 61.6058 164.312 61.6058C164.624 61.5947 164.935 61.5891 165.247 61.5891C165.548 61.5891 165.854 61.5891 166.165 61.5891C166.477 61.578 166.783 61.5724 167.083 61.5724L167.267 61.7727C167.256 61.884 167.245 61.9952 167.233 62.1065C167.233 62.2177 167.228 62.329 167.217 62.4403C167.206 62.6628 167.189 62.8853 167.167 63.1079C167.156 63.3304 167.144 63.5529 167.133 63.7755H166.599C166.599 63.5863 166.582 63.3972 166.549 63.208C166.527 63.0077 166.493 62.8075 166.449 62.6072C166.249 62.5404 166.021 62.4903 165.765 62.457C165.52 62.4236 165.269 62.4013 165.013 62.3902C164.935 62.3902 164.858 62.3902 164.78 62.3902C164.713 62.3902 164.641 62.3902 164.563 62.3902H163.077C163.077 62.457 163.071 62.5237 163.06 62.5905C163.06 62.6461 163.055 62.7073 163.044 62.7741C163.044 62.8408 163.038 62.9076 163.027 62.9743C163.027 63.03 163.027 63.0856 163.027 63.1412C163.016 63.2748 163.005 63.4027 162.994 63.5251C162.994 63.6475 162.994 63.7754 162.994 63.909V65.9952C163.06 65.9952 163.127 65.9952 163.194 65.9952C163.272 65.9952 163.35 65.9952 163.428 65.9952C163.517 66.0063 163.6 66.0119 163.678 66.0119C163.767 66.0119 163.856 66.0119 163.945 66.0119C164.001 66.0119 164.056 66.0119 164.112 66.0119C164.168 66.0119 164.223 66.0119 164.279 66.0119C164.501 66.0007 164.713 65.9841 164.913 65.9618C165.114 65.9395 165.275 65.9117 165.397 65.8783C165.564 65.8227 165.67 65.7281 165.714 65.5946C165.77 65.4611 165.803 65.322 165.815 65.1774C165.815 65.144 165.815 65.1106 165.815 65.0772C165.826 65.0439 165.831 65.0105 165.831 64.9771C165.831 64.9549 165.831 64.9382 165.831 64.927C165.831 64.9159 165.831 64.9048 165.831 64.8937C165.831 64.8714 165.831 64.8492 165.831 64.8269C165.831 64.7935 165.831 64.7657 165.831 64.7434H166.382C166.371 64.9548 166.365 65.1718 166.365 65.3943C166.365 65.6058 166.36 65.8172 166.349 66.0286C166.349 66.3512 166.349 66.6739 166.349 66.9966C166.349 67.3192 166.349 67.6475 166.349 67.9812H165.831C165.831 67.9701 165.831 67.9646 165.831 67.9646C165.831 67.9534 165.831 67.9423 165.831 67.9312C165.831 67.8755 165.826 67.8199 165.815 67.7643C165.815 67.6975 165.815 67.6363 165.815 67.5807C165.792 67.4138 165.753 67.2636 165.698 67.1301C165.642 66.9854 165.542 66.8853 165.397 66.8297C165.275 66.7852 165.102 66.7573 164.88 66.7462C164.657 66.724 164.424 66.7073 164.179 66.6961C164.067 66.6961 163.956 66.6961 163.845 66.6961C163.734 66.6961 163.628 66.6961 163.528 66.6961H162.994V70.7017C163.071 70.7017 163.161 70.7017 163.261 70.7017C163.361 70.7017 163.467 70.7017 163.578 70.7017C163.678 70.7128 163.778 70.7184 163.878 70.7184C163.99 70.7184 164.101 70.7184 164.212 70.7184C164.223 70.7184 164.234 70.7184 164.246 70.7184C164.268 70.7184 164.29 70.7184 164.312 70.7184C164.39 70.7184 164.468 70.7184 164.546 70.7184C164.635 70.7184 164.718 70.7184 164.796 70.7184C165.119 70.7072 165.425 70.6905 165.714 70.6683C166.015 70.6349 166.254 70.5904 166.432 70.5348C166.521 70.5014 166.594 70.4124 166.649 70.2677C166.705 70.112 166.749 69.9506 166.783 69.7837C166.816 69.628 166.838 69.4833 166.85 69.3498C166.872 69.2163 166.883 69.1217 166.883 69.0661H167.451C167.428 69.411 167.4 69.7448 167.367 70.0675C167.345 70.3901 167.328 70.7072 167.317 71.0188C167.317 71.0966 167.311 71.1801 167.3 71.2691C167.3 71.347 167.3 71.4249 167.3 71.5028C167.2 71.5028 167.1 71.5083 167 71.5195C166.9 71.5195 166.799 71.525 166.699 71.5361C166.599 71.5361 166.499 71.5417 166.399 71.5528C166.299 71.5528 166.199 71.5528 166.098 71.5528C165.887 71.564 165.681 71.5751 165.481 71.5862C165.28 71.5862 165.08 71.5862 164.88 71.5862C164.635 71.5862 164.39 71.5862 164.145 71.5862C163.901 71.5751 163.656 71.5695 163.411 71.5695C163.166 71.5695 162.921 71.5695 162.676 71.5695C162.432 71.5584 162.187 71.5528 161.942 71.5528C161.641 71.5528 161.341 71.5528 161.041 71.5528C160.74 71.5528 160.445 71.564 160.156 71.5862Z" fill="#2F2F2F"/>
<path d="M174.884 68.6655H175.452C175.452 68.6989 175.452 68.7323 175.452 68.7657C175.463 68.799 175.469 68.838 175.469 68.8825C175.48 68.9492 175.485 69.0216 175.485 69.0995C175.496 69.1773 175.508 69.2608 175.519 69.3498C175.552 69.5389 175.602 69.7281 175.669 69.9173C175.736 70.1064 175.847 70.2733 176.003 70.4179C176.192 70.5737 176.409 70.7072 176.654 70.8185C176.91 70.9186 177.166 70.991 177.422 71.0355C177.533 71.0577 177.639 71.0744 177.739 71.0855C177.85 71.0966 177.956 71.1022 178.056 71.1022C178.078 71.1022 178.106 71.1022 178.139 71.1022C178.173 71.0911 178.206 71.0855 178.24 71.0855C178.262 71.0855 178.29 71.0855 178.323 71.0855C178.356 71.0744 178.384 71.0688 178.407 71.0688C178.885 71.0243 179.275 70.8352 179.575 70.5014C179.887 70.1565 180.07 69.7837 180.126 69.3832C180.137 69.3387 180.143 69.2997 180.143 69.2663C180.143 69.2218 180.143 69.1829 180.143 69.1495C180.143 69.1384 180.143 69.1273 180.143 69.1161C180.143 69.0939 180.143 69.0772 180.143 69.0661C180.131 68.7545 180.026 68.4597 179.825 68.1815C179.625 67.9034 179.33 67.6975 178.941 67.564C178.752 67.4972 178.557 67.4472 178.356 67.4138C178.156 67.3693 177.956 67.3248 177.756 67.2803C177.744 67.2803 177.733 67.2803 177.722 67.2803C177.711 67.2803 177.705 67.2803 177.705 67.2803C177.349 67.2135 176.999 67.1412 176.654 67.0633C176.32 66.9743 176.003 66.8241 175.702 66.6127C175.391 66.3902 175.157 66.1064 175.001 65.7615C174.845 65.4055 174.762 65.0439 174.751 64.6767C174.751 64.6544 174.751 64.6377 174.751 64.6266C174.751 64.6044 174.751 64.5821 174.751 64.5599C174.751 64.5154 174.751 64.4708 174.751 64.4263C174.762 64.3707 174.768 64.3206 174.768 64.2761C174.779 64.1982 174.79 64.1259 174.801 64.0592C174.812 63.9924 174.823 63.9257 174.834 63.8589C174.845 63.8367 174.851 63.8144 174.851 63.7921C174.862 63.7588 174.868 63.7309 174.868 63.7087C175.079 62.8631 175.541 62.2567 176.253 61.8895C176.965 61.5112 177.722 61.3165 178.523 61.3054C178.535 61.3054 178.546 61.3054 178.557 61.3054C178.568 61.3054 178.579 61.3054 178.59 61.3054C178.679 61.3054 178.768 61.3109 178.857 61.3221C178.946 61.3221 179.035 61.3221 179.124 61.3221C179.536 61.3666 179.937 61.4389 180.326 61.539C180.716 61.6392 181.066 61.7671 181.378 61.9229C181.367 62.0453 181.35 62.1677 181.328 62.2901C181.317 62.4125 181.305 62.5349 181.294 62.6572C181.272 62.8019 181.255 62.9521 181.244 63.1079C181.233 63.2525 181.222 63.4027 181.211 63.5585C181.2 63.6475 181.189 63.7421 181.177 63.8422C181.177 63.9312 181.172 64.0258 181.161 64.1259H180.66C180.649 64.0703 180.643 64.0202 180.643 63.9757C180.643 63.9201 180.638 63.8645 180.627 63.8088C180.627 63.7977 180.627 63.7921 180.627 63.7921C180.604 63.5696 180.571 63.3526 180.526 63.1412C180.482 62.9298 180.382 62.7518 180.226 62.6072C180.081 62.4737 179.903 62.368 179.692 62.2901C179.492 62.2122 179.286 62.1566 179.074 62.1232C178.985 62.112 178.896 62.1065 178.807 62.1065C178.729 62.0954 178.651 62.0898 178.573 62.0898H178.156C177.722 62.1232 177.36 62.2901 177.071 62.5905C176.793 62.8909 176.62 63.2191 176.554 63.5752C176.554 63.6197 176.548 63.6642 176.537 63.7087C176.537 63.7532 176.537 63.7977 176.537 63.8422C176.537 64.1537 176.643 64.4542 176.854 64.7434C177.066 65.0216 177.377 65.2219 177.789 65.3443C177.978 65.3999 178.173 65.4444 178.373 65.4778C178.573 65.5112 178.774 65.5446 178.974 65.5779C179.352 65.6336 179.725 65.7059 180.092 65.7949C180.46 65.8839 180.799 66.0397 181.111 66.2622C181.389 66.4625 181.595 66.7295 181.728 67.0633C181.873 67.386 181.956 67.7198 181.979 68.0647C181.979 68.0981 181.979 68.1315 181.979 68.1648C181.979 68.1982 181.979 68.2316 181.979 68.265C181.979 68.3317 181.973 68.404 181.962 68.4819C181.962 68.5487 181.962 68.6155 181.962 68.6822C181.951 68.749 181.94 68.8213 181.929 68.8992C181.918 68.9659 181.906 69.0327 181.895 69.0995C181.684 70.0007 181.177 70.6683 180.376 71.1022C179.586 71.525 178.735 71.7531 177.822 71.7865C177.789 71.7865 177.75 71.7865 177.705 71.7865C177.672 71.7865 177.633 71.7865 177.589 71.7865C177.533 71.7865 177.477 71.7865 177.422 71.7865C177.366 71.7865 177.31 71.7809 177.255 71.7698C176.798 71.7475 176.348 71.6808 175.903 71.5695C175.469 71.4583 175.079 71.3081 174.734 71.1189C174.79 70.7184 174.829 70.3122 174.851 69.9006C174.873 69.4889 174.884 69.0772 174.884 68.6655Z" fill="#2F2F2F"/>
<path d="M185.336 71.5862V70.9687C185.948 70.9353 186.304 70.8686 186.405 70.7684C186.516 70.6572 186.572 70.3567 186.572 69.8672C186.572 69.8115 186.572 69.7559 186.572 69.7003C186.572 69.6446 186.572 69.589 186.572 69.5334V63.2247C186.572 63.1579 186.572 63.0967 186.572 63.0411C186.572 62.9743 186.566 62.9076 186.555 62.8408C186.555 62.7852 186.549 62.7296 186.538 62.6739C186.538 62.6072 186.533 62.5404 186.521 62.4737H186.037C185.926 62.4737 185.804 62.4737 185.67 62.4737C185.548 62.4737 185.42 62.4792 185.286 62.4903C185.041 62.4903 184.802 62.507 184.568 62.5404C184.346 62.5627 184.173 62.5961 184.051 62.6406C183.973 62.6739 183.912 62.7629 183.867 62.9076C183.834 63.0411 183.812 63.1913 183.801 63.3582C183.789 63.4583 183.778 63.5529 183.767 63.6419C183.767 63.7309 183.767 63.8144 183.767 63.8923C183.767 63.9034 183.767 63.9201 183.767 63.9423C183.767 63.9646 183.767 63.9813 183.767 63.9924H183.166V63.3582C183.166 63.2136 183.161 63.0689 183.15 62.9243C183.15 62.7685 183.15 62.6127 183.15 62.457C183.15 62.4125 183.144 62.368 183.133 62.3235C183.133 62.2678 183.133 62.2122 183.133 62.1566C183.133 62.0564 183.127 61.9563 183.116 61.8561C183.116 61.756 183.116 61.6614 183.116 61.5724C183.55 61.5724 183.979 61.578 184.402 61.5891C184.836 61.5891 185.27 61.5947 185.704 61.6058C186.138 61.6169 186.572 61.628 187.006 61.6392C187.44 61.6392 187.874 61.6392 188.308 61.6392C188.564 61.6392 188.819 61.6392 189.075 61.6392C189.331 61.628 189.587 61.6225 189.843 61.6225C189.91 61.6114 189.977 61.6058 190.044 61.6058C190.11 61.6058 190.177 61.6058 190.244 61.6058C190.567 61.5947 190.884 61.5891 191.195 61.5891C191.518 61.578 191.835 61.5724 192.147 61.5724C192.125 61.7727 192.102 61.973 192.08 62.1732C192.069 62.3735 192.058 62.5738 192.047 62.7741C192.036 62.9744 192.024 63.1802 192.013 63.3916C192.013 63.5919 192.013 63.7921 192.013 63.9924H191.412C191.412 63.9813 191.412 63.9702 191.412 63.959C191.412 63.9368 191.412 63.9145 191.412 63.8923C191.401 63.8923 191.396 63.8923 191.396 63.8923C191.396 63.87 191.396 63.8533 191.396 63.8422C191.396 63.82 191.396 63.8033 191.396 63.7921V63.6086C191.396 63.5641 191.396 63.514 191.396 63.4584C191.396 63.4027 191.396 63.3526 191.396 63.3081C191.385 63.1412 191.362 62.991 191.329 62.8575C191.296 62.724 191.229 62.6406 191.129 62.6072C191.006 62.5627 190.828 62.5349 190.594 62.5237C190.372 62.5015 190.138 62.4848 189.893 62.4737C189.771 62.4737 189.649 62.4737 189.526 62.4737C189.415 62.4737 189.304 62.4737 189.192 62.4737H188.658C188.658 62.5404 188.653 62.6072 188.641 62.6739C188.641 62.7296 188.641 62.7852 188.641 62.8408C188.641 62.9076 188.636 62.9743 188.625 63.0411C188.625 63.0967 188.625 63.1579 188.625 63.2247V69.5334C188.625 69.5556 188.625 69.5779 188.625 69.6001C188.625 69.6224 188.625 69.6446 188.625 69.6669C188.625 69.6892 188.625 69.7058 188.625 69.717C188.625 69.7281 188.625 69.7392 188.625 69.7504C188.614 69.7837 188.608 69.8171 188.608 69.8505C188.608 69.8839 188.608 69.9117 188.608 69.9339C188.608 70.4124 188.675 70.7017 188.808 70.8018C188.942 70.8908 189.298 70.9464 189.877 70.9687V71.5862C189.687 71.5751 189.498 71.5695 189.309 71.5695C189.12 71.5584 188.931 71.5528 188.742 71.5528C188.552 71.5528 188.363 71.5528 188.174 71.5528C187.985 71.5528 187.796 71.5528 187.606 71.5528C187.228 71.5528 186.85 71.5528 186.471 71.5528C186.093 71.5528 185.715 71.564 185.336 71.5862Z" fill="#2F2F2F"/>
<path d="M192.541 62.1399V61.5724C192.685 61.5835 192.83 61.5947 192.975 61.6058C193.13 61.6058 193.281 61.6114 193.425 61.6225C193.581 61.6225 193.731 61.628 193.876 61.6392C194.021 61.6392 194.165 61.6392 194.31 61.6392C194.533 61.6392 194.755 61.6392 194.978 61.6392C195.2 61.628 195.428 61.6169 195.662 61.6058C195.729 61.6058 195.801 61.6058 195.879 61.6058C195.957 61.5947 196.035 61.5891 196.113 61.5891C196.258 61.5891 196.408 61.5891 196.564 61.5891C196.719 61.578 196.87 61.5724 197.014 61.5724V62.1399C196.97 62.151 196.925 62.1566 196.881 62.1566C196.836 62.1566 196.786 62.1566 196.731 62.1566C196.697 62.1566 196.664 62.1566 196.63 62.1566C196.608 62.1566 196.586 62.1566 196.564 62.1566C196.441 62.1566 196.324 62.1677 196.213 62.1899C196.113 62.2122 196.024 62.2623 195.946 62.3401C195.901 62.3958 195.868 62.5237 195.846 62.724C195.824 62.9132 195.807 63.119 195.796 63.3415C195.796 63.386 195.796 63.4305 195.796 63.475C195.796 63.5195 195.796 63.5641 195.796 63.6086C195.796 63.6308 195.796 63.6586 195.796 63.692C195.796 63.7143 195.796 63.7421 195.796 63.7755C195.796 63.8422 195.796 63.9145 195.796 63.9924C195.796 64.0592 195.801 64.1204 195.812 64.176C195.812 64.265 195.812 64.3429 195.812 64.4097C195.812 64.4764 195.812 64.5265 195.812 64.5599V67.8811C195.812 68.749 196.002 69.4555 196.38 70.0007C196.758 70.5348 197.42 70.8018 198.366 70.8018L198.45 70.7684C198.539 70.7684 198.622 70.7684 198.7 70.7684C198.789 70.7573 198.878 70.7462 198.967 70.735C199.335 70.6683 199.685 70.5403 200.019 70.3512C200.353 70.162 200.603 69.8894 200.77 69.5334C200.859 69.3331 200.92 69.0939 200.954 68.8157C200.998 68.5264 201.032 68.2316 201.054 67.9312C201.054 67.7865 201.054 67.6474 201.054 67.5139C201.065 67.3693 201.071 67.2302 201.071 67.0967V64.0592C201.071 63.9702 201.071 63.8756 201.071 63.7755C201.071 63.6642 201.065 63.5529 201.054 63.4417C201.043 63.208 201.02 62.991 200.987 62.7908C200.954 62.5794 200.898 62.4347 200.82 62.3568C200.776 62.2901 200.703 62.2456 200.603 62.2233C200.514 62.1899 200.42 62.1677 200.319 62.1566C200.264 62.1454 200.214 62.1399 200.169 62.1399C200.125 62.1399 200.08 62.1399 200.036 62.1399H199.769V61.5724C199.902 61.5835 200.036 61.5947 200.169 61.6058C200.303 61.6058 200.442 61.6114 200.587 61.6225C200.72 61.6225 200.854 61.628 200.987 61.6392C201.121 61.6392 201.254 61.6392 201.388 61.6392C201.666 61.6392 201.939 61.6336 202.206 61.6225C202.473 61.6002 202.74 61.5835 203.007 61.5724V62.1399C202.962 62.1399 202.918 62.1454 202.873 62.1566C202.84 62.1566 202.801 62.1566 202.757 62.1566C202.745 62.1566 202.734 62.1566 202.723 62.1566C202.623 62.1566 202.528 62.1621 202.439 62.1732C202.35 62.1844 202.272 62.2178 202.206 62.2734C202.106 62.3513 202.028 62.5237 201.972 62.7908C201.927 63.0467 201.9 63.3304 201.889 63.6419C201.877 63.7309 201.872 63.82 201.872 63.909C201.872 63.998 201.872 64.087 201.872 64.176C201.872 64.2761 201.872 64.3707 201.872 64.4597C201.883 64.5487 201.889 64.6322 201.889 64.7101C201.889 64.7991 201.889 64.877 201.889 64.9437C201.9 64.9994 201.905 65.0494 201.905 65.0939V67.4972C201.905 67.6196 201.905 67.7476 201.905 67.8811C201.905 68.0035 201.9 68.1315 201.889 68.265C201.877 68.6878 201.822 69.105 201.722 69.5167C201.621 69.9284 201.438 70.2955 201.171 70.6182C200.881 70.9743 200.52 71.2302 200.086 71.3859C199.652 71.5417 199.201 71.6474 198.734 71.703C198.567 71.7253 198.4 71.7364 198.233 71.7364C198.066 71.7475 197.899 71.7531 197.732 71.7531C197.554 71.7531 197.37 71.7475 197.181 71.7364C197.003 71.7364 196.82 71.7253 196.63 71.703C196.23 71.6474 195.835 71.5584 195.445 71.436C195.067 71.3136 194.739 71.1133 194.46 70.8352C194.227 70.6015 194.065 70.3289 193.976 70.0174C193.887 69.7058 193.826 69.3832 193.793 69.0494C193.782 68.9381 193.776 68.8269 193.776 68.7156C193.776 68.6043 193.77 68.4931 193.759 68.3818C193.759 68.3707 193.759 68.3595 193.759 68.3484C193.759 68.3373 193.759 68.3262 193.759 68.315V64.0592C193.759 63.959 193.759 63.8645 193.759 63.7755C193.77 63.6864 193.776 63.603 193.776 63.5251C193.776 63.4361 193.776 63.3582 193.776 63.2915C193.787 63.2247 193.793 63.1579 193.793 63.0912C193.793 62.7685 193.715 62.546 193.559 62.4236C193.403 62.3012 193.064 62.2066 192.541 62.1399Z" fill="#2F2F2F"/>
<path d="M204.152 71.5862V71.2357C204.274 71.169 204.386 71.1022 204.486 71.0355C204.586 70.9576 204.681 70.8797 204.77 70.8018C204.77 70.7462 204.77 70.6905 204.77 70.6349C204.781 70.5681 204.786 70.5014 204.786 70.4346C204.786 70.4124 204.786 70.3846 204.786 70.3512C204.797 70.3178 204.803 70.2844 204.803 70.251C204.803 70.162 204.803 70.073 204.803 69.984C204.814 69.895 204.82 69.806 204.82 69.717V63.1412C204.82 62.7407 204.758 62.4903 204.636 62.3902C204.525 62.2901 204.23 62.2233 203.751 62.1899C203.74 62.1788 203.723 62.1732 203.701 62.1732C203.679 62.1732 203.657 62.1732 203.634 62.1732V61.5724C203.768 61.5724 203.902 61.578 204.035 61.5891C204.18 61.5891 204.319 61.5947 204.452 61.6058C204.497 61.6058 204.541 61.6114 204.586 61.6225C204.642 61.6225 204.692 61.6225 204.736 61.6225C204.825 61.6225 204.914 61.628 205.003 61.6392C205.103 61.6392 205.198 61.6392 205.287 61.6392C205.343 61.6392 205.404 61.6392 205.471 61.6392C205.537 61.628 205.604 61.6225 205.671 61.6225C205.682 61.6225 205.693 61.6225 205.704 61.6225C205.715 61.6225 205.727 61.6225 205.738 61.6225C205.793 61.6114 205.849 61.6058 205.905 61.6058C205.96 61.6058 206.016 61.6058 206.072 61.6058C206.261 61.6058 206.461 61.6058 206.672 61.6058C206.895 61.5947 207.123 61.5835 207.357 61.5724C207.535 61.5724 207.713 61.5724 207.891 61.5724C208.08 61.5613 208.264 61.5557 208.442 61.5557C208.509 61.5557 208.57 61.5557 208.626 61.5557C208.681 61.5557 208.737 61.5557 208.792 61.5557C208.848 61.5557 208.904 61.5557 208.959 61.5557C209.026 61.5557 209.087 61.5557 209.143 61.5557C209.577 61.5669 210.005 61.5891 210.428 61.6225C210.851 61.6447 211.23 61.6948 211.563 61.7727C212.565 62.0397 213.299 62.5849 213.767 63.4083C214.245 64.2205 214.49 65.0939 214.501 66.0286C214.501 66.0397 214.501 66.0508 214.501 66.0619C214.501 66.0731 214.501 66.0842 214.501 66.0953C214.501 66.1621 214.501 66.2288 214.501 66.2956C214.501 66.3624 214.496 66.4291 214.485 66.4959C214.451 66.9966 214.357 67.4917 214.201 67.9812C214.056 68.4708 213.85 68.9159 213.583 69.3164C212.916 70.2733 212.059 70.8908 211.013 71.169C209.966 71.4471 208.881 71.5918 207.757 71.6029C207.702 71.6029 207.646 71.6029 207.591 71.6029C207.535 71.6029 207.479 71.6029 207.424 71.6029C207.201 71.6029 206.979 71.5973 206.756 71.5862C206.533 71.5862 206.311 71.5862 206.088 71.5862C205.866 71.5862 205.643 71.5862 205.421 71.5862C205.209 71.5862 204.998 71.5862 204.786 71.5862H204.152ZM206.906 63.5752V69.0995C206.906 69.144 206.906 69.1885 206.906 69.233C206.906 69.2775 206.906 69.3164 206.906 69.3498C206.906 69.5723 206.906 69.7949 206.906 70.0174C206.917 70.2288 206.934 70.4569 206.956 70.7017C207.012 70.7128 207.062 70.7239 207.106 70.735C207.162 70.735 207.212 70.735 207.257 70.735C207.413 70.7573 207.563 70.774 207.707 70.7851C207.863 70.7962 208.008 70.8018 208.141 70.8018C209.399 70.8018 210.412 70.4402 211.179 69.717C211.958 68.9938 212.348 67.8477 212.348 66.2789C212.348 64.7435 211.975 63.7087 211.23 63.1746C210.484 62.6294 209.527 62.3568 208.358 62.3568C208.236 62.3568 208.108 62.3624 207.975 62.3735C207.841 62.3846 207.707 62.3958 207.574 62.4069C207.474 62.4069 207.368 62.4125 207.257 62.4236C207.157 62.4347 207.056 62.4403 206.956 62.4403C206.956 62.507 206.951 62.5738 206.94 62.6406C206.94 62.6962 206.94 62.7574 206.94 62.8241C206.94 62.8353 206.94 62.8464 206.94 62.8575C206.94 62.8686 206.94 62.8798 206.94 62.8909C206.928 63.0022 206.917 63.1134 206.906 63.2247C206.906 63.336 206.906 63.4528 206.906 63.5752Z" fill="#2F2F2F"/>
<path d="M215.885 71.5862V70.9687C216.464 70.9464 216.809 70.8852 216.92 70.7851C217.043 70.685 217.104 70.4291 217.104 70.0174V63.1412C217.104 62.7184 217.043 62.4458 216.92 62.3235C216.809 62.2011 216.464 62.1399 215.885 62.1399V61.5724C216.008 61.5835 216.125 61.5947 216.236 61.6058C216.358 61.6058 216.481 61.6058 216.603 61.6058C216.781 61.6169 216.959 61.628 217.137 61.6392C217.315 61.6392 217.488 61.6392 217.655 61.6392C217.877 61.6392 218.105 61.6392 218.339 61.6392C218.573 61.628 218.807 61.6169 219.04 61.6058C219.274 61.5947 219.502 61.5891 219.725 61.5891C219.958 61.578 220.186 61.5724 220.409 61.5724V62.1399C219.83 62.1399 219.48 62.2122 219.357 62.3568C219.235 62.4904 219.174 62.8186 219.174 63.3415C219.174 63.3638 219.174 63.386 219.174 63.4083C219.174 63.4305 219.179 63.4528 219.19 63.475C219.19 63.4973 219.19 63.5195 219.19 63.5418C219.19 63.564 219.19 63.5863 219.19 63.6086V69.5334C219.19 69.5556 219.19 69.5779 219.19 69.6001C219.19 69.6224 219.19 69.6446 219.19 69.6669C219.19 69.6892 219.19 69.7058 219.19 69.717C219.19 69.7281 219.19 69.7392 219.19 69.7504C219.179 69.7837 219.174 69.8171 219.174 69.8505C219.174 69.8839 219.174 69.9117 219.174 69.9339C219.174 70.3901 219.235 70.6794 219.357 70.8018C219.491 70.9131 219.841 70.9687 220.409 70.9687V71.5862C220.231 71.5751 220.042 71.5695 219.841 71.5695C219.652 71.5584 219.463 71.5528 219.274 71.5528C219.085 71.5528 218.896 71.5528 218.706 71.5528C218.517 71.5528 218.328 71.5528 218.139 71.5528C217.772 71.5528 217.399 71.5528 217.02 71.5528C216.653 71.5528 216.275 71.564 215.885 71.5862Z" fill="#2F2F2F"/>
<path d="M221.503 66.5626C221.536 64.8046 222.076 63.4973 223.122 62.6406C224.179 61.7727 225.515 61.3388 227.128 61.3388H227.679C229.148 61.4166 230.289 61.884 231.101 62.7407C231.925 63.5863 232.336 64.7379 232.336 66.1954C232.303 67.9423 231.791 69.3053 230.801 70.2844C229.821 71.2635 228.464 71.7642 226.728 71.7865L226.644 71.7698C225.031 71.7587 223.768 71.3081 222.855 70.4179C221.943 69.5167 221.486 68.2538 221.486 66.6294L221.503 66.5626ZM227.295 62.0564H226.911C226.845 62.0564 226.772 62.062 226.694 62.0731C226.628 62.0731 226.555 62.0787 226.477 62.0898C226.188 62.1343 225.899 62.2178 225.609 62.3401C225.331 62.4625 225.081 62.6127 224.858 62.7908C224.558 63.0689 224.324 63.4083 224.157 63.8088C223.99 64.2094 223.873 64.6211 223.807 65.0439C223.773 65.2219 223.751 65.4055 223.74 65.5946C223.729 65.7726 223.723 65.9507 223.723 66.1287C223.723 66.1398 223.723 66.1565 223.723 66.1788C223.734 66.1899 223.74 66.201 223.74 66.2121C223.74 66.2344 223.74 66.2566 223.74 66.2789C223.751 66.29 223.757 66.3012 223.757 66.3123C223.757 66.5237 223.762 66.7462 223.773 66.9799C223.795 67.2024 223.829 67.4305 223.873 67.6641C224.018 68.5209 224.324 69.3053 224.791 70.0174C225.259 70.7183 225.965 71.0688 226.911 71.0688C228.002 71.0688 228.775 70.6905 229.232 69.9339C229.699 69.1662 229.972 68.3262 230.05 67.4138C230.061 67.2803 230.066 67.1468 230.066 67.0132C230.077 66.8797 230.083 66.7462 230.083 66.6127V66.4792C230.083 66.3123 230.077 66.1398 230.066 65.9618C230.055 65.7838 230.038 65.6058 230.016 65.4277C229.905 64.6377 229.638 63.9034 229.215 63.2247C228.803 62.546 228.163 62.1566 227.295 62.0564Z" fill="#2F2F2F"/>
<path d="M36.4975 83.8453V86.4049C36.4975 86.6564 36.3079 86.868 36.0568 86.8948C26.5995 87.9015 16.9096 87.0118 12.9024 86.3404C12.6664 86.3008 12.4964 86.0967 12.4958 85.8584L12.4148 54.3C12.4144 54.1442 12.4877 53.9973 12.6128 53.9036L30.1588 40.7619C30.335 40.63 30.5774 40.6294 30.7541 40.7606L57.2269 60.4066C57.3579 60.5038 57.4324 60.6588 57.4264 60.8213L57.3885 61.8403C57.3736 62.2394 56.914 62.4572 56.5935 62.2169L38.0038 48.2788C37.683 48.0382 37.223 48.2567 37.2088 48.6563L36.8455 58.9313C36.836 59.1974 36.6166 59.4082 36.3492 59.4082H32.8718C32.5915 59.4082 32.3667 59.6391 32.3755 59.9181L33.0904 82.6935C33.0983 82.9465 33.2969 83.1526 33.5505 83.1711L36.0372 83.3522C36.2967 83.3711 36.4975 83.5863 36.4975 83.8453Z" fill="#9EC720"/>
<path d="M52.2612 0.198044C49.0654 0.838825 46.1003 2.46542 44.7824 4.32205C44.2388 5.07784 44.1894 5.22571 44.2058 6.24439C44.2388 7.32879 44.2223 7.34522 43.7117 7.54238C42.6244 8.00243 41.4878 9.46473 41.1254 10.8613C40.9112 11.7321 41.1419 12.7508 41.7349 13.523C42.1961 14.1309 42.2456 14.4267 41.8832 14.4267C40.9771 14.4267 39.1816 15.8068 38.7533 16.8584C38.3909 17.6799 38.4732 19.6679 38.8356 19.4379C38.918 19.3886 38.9345 19.4872 38.8851 19.6515C38.8356 19.8651 39.0168 20.128 39.4122 20.473C39.7252 20.7688 40.0711 20.9988 40.137 20.9988C40.2194 20.9988 40.4006 21.2452 40.5324 21.541C41.3231 23.184 43.481 23.8248 46.3144 23.2333C47.0392 23.0854 47.6487 23.0033 47.6817 23.0361C47.7146 23.069 47.5993 23.3647 47.4016 23.6933C47.2204 24.022 47.0722 24.482 47.0722 24.6956C47.0722 25.1392 47.5993 25.5171 47.9947 25.3692C48.1429 25.3199 48.1923 25.3528 48.1429 25.435C47.6981 26.1415 54.0073 24.712 56.5936 23.529C56.9066 23.3812 57.1866 23.299 57.2196 23.3483C57.3019 23.414 57.7302 24.5313 58.6198 26.9137C59.5093 29.2961 61.4202 35.0467 61.7826 36.4433C62.4086 38.8749 63.0181 41.9638 63.2157 43.7054C63.3969 45.4799 63.4299 50.9183 63.2652 53.5965C63.1169 56.1267 63.0675 56.0774 61.5355 51.6413C61.1731 50.5569 60.7942 49.5218 60.6954 49.341C60.5965 49.1603 60.2835 48.3223 59.987 47.5008L59.4599 45.9892L60.1847 45.5621C60.5801 45.332 61.0084 44.987 61.1566 44.7898C61.4202 44.3955 61.4861 43.3933 61.2555 43.0318C61.1731 42.9004 61.3049 42.4403 61.6673 41.7502C62.4415 40.2715 62.425 39.565 61.6014 38.7435C61.1072 38.2341 60.7777 38.0699 59.9541 37.922L58.9328 37.7084L59.3281 37.0347C59.5423 36.6733 59.7894 35.9996 59.8882 35.556C60.3494 33.3544 58.5703 31.3499 56.1323 31.3499C55.0286 31.3499 54.6662 31.4813 53.9085 32.1878C53.3154 32.7464 53.1837 32.7629 52.3106 32.3193C51.3387 31.8263 49.7243 31.8263 48.6371 32.3028C47.171 32.9765 46.0179 34.5866 46.0014 36.0161V36.8212L45.0954 37.0347C42.7892 37.6098 41.3395 38.2506 40.3017 39.1871C39.7417 39.6964 39.6428 39.8608 39.6922 40.3701C39.7252 40.8301 39.857 41.0109 40.3182 41.2902C40.8124 41.5695 41.2407 41.6188 43.4151 41.6681C45.5731 41.7174 45.9355 41.7667 45.8532 41.9803C45.4578 43.0154 45.8037 43.9848 46.858 44.6913C48.1429 45.5785 49.1313 45.8414 50.9433 45.7757C52.36 45.7264 52.7224 45.6606 53.5296 45.2499L54.485 44.7734L54.831 45.217C55.3911 45.9235 55.9841 46.1371 57.4008 46.1371H58.7021L58.9986 46.9093C59.1634 47.353 59.4434 48.1088 59.6246 48.6017C59.8058 49.0946 60.0364 49.7189 60.1518 49.9982C60.6789 51.1976 60.8107 51.592 61.4202 53.3993C61.7661 54.4508 62.1944 55.9789 62.3921 56.7675C62.5733 57.5562 62.8039 58.5256 62.9028 58.9199C63.084 59.5607 63.0181 68.6138 62.8369 70.0432C62.7874 70.3061 62.7215 71.3083 62.6557 72.2613C62.4745 75.2352 61.9473 80.3943 61.7167 81.5772C61.552 82.3823 61.5025 82.4481 60.9425 82.5959C60.1518 82.8095 56.4289 83.5982 55.4734 83.7789C55.0616 83.8446 54.3697 83.9925 53.9085 84.0911C53.4637 84.1897 52.5247 84.3704 51.8493 84.5018C51.1739 84.6169 50.3668 84.7812 50.0867 84.8304L49.5431 84.9455V84.0089C49.5431 83.4996 49.609 82.0209 49.7079 80.7393C49.7902 79.4742 49.9385 76.8289 50.0373 74.8901C50.3338 68.7123 50.5315 64.3419 50.6139 62.4853C50.6992 60.2255 50.89 58.5106 51.0367 57.4619C51.1139 56.9096 51.7432 56.6652 52.1885 57.0011L52.2118 57.0187L53.1325 57.7205L53.9601 58.3371L55.4498 59.4082L56.956 60.4794L58.2637 61.5506C58.2637 61.5506 59.5051 62.6217 59.5051 61.221C59.5051 60.4794 59.5878 60.809 56.956 58.7063C55.8194 57.8026 54.8639 57.0304 54.8145 56.9811C54.7651 56.9318 54.2215 56.4882 53.579 55.9953C52.953 55.5024 52.3271 55.0095 52.2118 54.878C52.08 54.763 51.7176 54.4837 51.3881 54.2373C51.0422 53.9908 50.4821 53.5308 50.1197 53.2021C49.7573 52.89 49.1972 52.4463 48.8842 52.2163C48.5712 51.9863 47.8299 51.3948 47.2369 50.9019C46.6439 50.409 44.8648 48.9631 43.2834 47.698C41.702 46.4329 40.2853 45.2827 40.137 45.1513C39.6922 44.7405 39.1651 44.3298 39.0827 44.3298C38.9839 44.3298 38.2756 43.7383 37.7155 43.2125C37.5013 42.9989 36.8259 42.4567 36.2164 41.9967C35.6234 41.5202 35.0963 41.1095 35.0468 41.0437C34.9974 40.9944 34.4538 40.5508 33.8114 40.0579C32.477 39.0064 32.2135 38.7928 31.6204 38.2834C30.4014 37.2319 30.1716 37.278 29.5456 37.8202C29.346 37.9932 27.9634 39.132 27.9634 39.132L28.8008 38.4794C28.8008 38.4794 26.3655 40.3865 24.6688 41.6516C23.9934 42.161 23.4004 42.621 23.351 42.6868C23.3016 42.736 22.9721 42.9989 22.6097 43.2783C22.2473 43.5411 21.8519 43.8533 21.7201 43.9683C21.5884 44.0833 21.2919 44.3134 21.0612 44.4612C20.6329 44.7405 20.4023 44.9048 19.4963 45.6442C19.2162 45.8742 18.5409 46.4 17.9972 46.7943C17.4536 47.2051 16.9265 47.5994 16.8277 47.698C16.63 47.8787 16.2511 48.1909 14.4555 49.5382C13.7801 50.064 13.1871 50.524 13.1377 50.5733C13.0883 50.6226 12.4623 51.0991 11.7375 51.6413C10.6173 52.4628 9.66188 53.2021 8.36051 54.2373C8.22873 54.3523 7.84985 54.6152 7.53686 54.8452C7.22387 55.0588 6.89441 55.3217 6.79557 55.4367C6.71321 55.5352 6.18607 55.946 5.64246 56.3403C5.09885 56.7347 4.42345 57.244 4.14341 57.474C3.20445 58.2298 3.00677 58.3777 2.43022 58.7884C2.11723 59.002 1.63951 59.3964 1.35947 59.6428C1.0959 59.9057 0.749965 60.1357 0.601708 60.185C0.206355 60.3165 -0.0901602 61.0065 0.0251511 61.483C0.156935 61.9924 0.535815 62.0252 1.11237 61.5816C1.34299 61.4009 1.59009 61.253 1.65598 61.253C1.72187 61.253 2.21607 60.9737 2.72673 60.6122C3.23739 60.2672 3.96221 59.8071 4.32462 59.5771C4.68702 59.3471 5.60951 58.7556 6.38375 58.2627C7.15798 57.7862 8.17931 57.129 8.65703 56.8332C9.11827 56.5375 9.61246 56.3239 9.74425 56.3732C9.90898 56.4389 9.99134 56.9975 10.0737 58.5749C10.1231 59.725 10.2384 62.1567 10.3537 63.964C10.4526 65.7713 10.6008 68.4659 10.6832 69.961C10.9138 74.1179 11.1774 80.0821 11.3092 83.3517L11.408 86.3092L12.7259 86.5721C13.8955 86.8021 15.6745 87.0814 19.068 87.5415C21.9343 87.9358 26.0031 88.0672 32.3288 87.9686C39.0498 87.87 40.9936 87.7715 44.9307 87.3114C46.1497 87.1635 47.8134 86.9664 48.6371 86.8842C49.4443 86.7857 50.861 86.6049 51.767 86.4735C52.673 86.342 53.9744 86.1449 54.6498 86.0463C55.7535 85.8984 56.8242 85.7177 59.7564 85.2412C60.2506 85.159 61.2225 84.9619 61.8979 84.8304C62.5733 84.6826 63.5123 84.5018 63.957 84.4197C64.7148 84.2882 70.3815 83.1217 71.5346 82.8588C72.4571 82.6617 76.2624 81.758 80.4301 80.7557C81.369 80.5257 83.2964 80.0164 85.8662 79.3099C86.5086 79.1291 87.8429 78.7841 88.8313 78.5212C89.8362 78.2583 91.3187 77.8476 92.1259 77.6011C92.9496 77.3547 93.7897 77.1082 94.0203 77.0589C94.7781 76.911 94.844 76.7467 94.844 75.0544C94.844 73.97 94.7781 73.395 94.6463 73.28C94.4486 73.1321 92.686 73.5428 91.3023 74.0686C91.1211 74.1343 90.7093 74.2658 90.3963 74.3644C90.0833 74.4629 88.749 74.8737 87.4311 75.2844C86.1133 75.6952 84.6307 76.1388 84.1365 76.2703C83.6423 76.4017 82.7528 76.6646 82.1597 76.8453C80.0841 77.4861 73.6761 79.3592 73.0996 79.4906C72.5724 79.6056 72.0782 79.7371 69.8873 80.3614C68.8166 80.6572 67.5317 80.9693 67.3505 80.9693C67.2022 80.9693 67.0045 79.9671 66.6916 77.7654C65.9997 72.9021 65.8185 68.8109 65.8844 60.185C65.9338 52.2492 65.9173 52.3971 66.8398 50.5733C67.4658 49.3246 68.6518 47.5337 69.9203 45.9071L70.5462 45.1184L72.7701 45.0856C74.7304 45.0691 75.1422 45.0034 76.3118 44.5927C77.7285 44.0998 78.4039 43.7383 79.4417 42.9168C79.9688 42.506 80.3148 42.3746 81.1384 42.2924C82.9504 42.1117 85.1578 40.8301 85.8497 39.5321C86.4592 38.4149 85.7179 36.9033 84.12 36.0325C83.2799 35.5724 83.1152 35.5396 81.4185 35.5396H79.6064L79.2605 34.8824C79.0628 34.5209 78.7828 33.9787 78.6345 33.683C78.0744 32.6479 76.526 31.6949 75.3728 31.6785C74.335 31.6785 72.836 32.6643 72.0618 33.8473C71.9135 34.0937 71.5676 34.3566 71.3205 34.4059C70.4639 34.6195 69.5579 35.096 69.0307 35.6053C68.2565 36.3447 67.4823 37.9548 67.3834 39.0557C67.3505 39.565 67.1199 40.3537 66.9057 40.8137C66.6751 41.2738 66.5433 41.7667 66.6092 41.9145C66.741 42.2596 67.4658 42.7361 67.6635 42.6046C67.7623 42.5553 67.8282 42.5882 67.8282 42.6703C67.8282 42.7853 68.2235 42.8511 68.8166 42.8511H69.805L69.6238 43.2947C69.5249 43.5576 69.492 44.034 69.5414 44.3791C69.6238 44.8391 69.5743 45.102 69.3602 45.3813C69.1954 45.5949 68.9484 45.94 68.8166 46.1371C68.6848 46.3343 68.3224 46.8272 68.0424 47.2215C67.7458 47.5994 67.4987 47.9937 67.4987 48.0923C67.4987 48.1745 67.4328 48.2731 67.367 48.3059C67.2846 48.3223 66.9881 48.7002 66.6916 49.1274C66.4115 49.5711 66.0985 49.9161 66.0162 49.9161C65.802 49.9161 65.9338 41.7502 66.1644 40.5508C66.4774 38.8749 67.1528 37.0347 67.8776 35.8682C68.7507 34.488 70.1509 32.4343 70.7604 31.6785C72.7207 29.2139 72.4571 29.4275 73.7914 29.2961C75.4552 29.1318 77.2837 28.7046 79.6064 27.8995C80.6936 27.5216 82.1103 27.0451 82.7528 26.8315L83.9224 26.4372L84.9766 26.7658C86.1462 27.1437 87.2829 27.1108 88.9796 26.6672C91.5329 25.9936 93.6909 24.3999 93.6909 23.1676C93.6909 22.7897 92.5542 21.7053 91.5494 21.1302C90.6104 20.588 89.309 20.3416 88.3042 20.5223C87.8924 20.6045 87.53 20.6538 87.5135 20.6373C87.497 20.6045 87.2005 20.1444 86.8546 19.6022C86.5086 19.06 85.998 18.4192 85.7179 18.1728C84.5483 17.1541 82.341 16.464 80.8748 16.6283C80.0018 16.7269 79.9688 16.7269 79.4582 16.1354C79.1287 15.7575 78.8487 15.5604 78.7333 15.6425C78.618 15.7082 78.5686 15.8397 78.618 15.9218C78.6675 16.004 78.6016 16.0204 78.4698 15.9711C78.3215 15.9054 78.1733 15.9711 78.1074 16.1354C78.058 16.2669 77.432 16.7269 76.7236 17.1377C75.3564 17.9428 74.5162 18.7478 74.1538 19.6022C74.0385 19.898 73.742 20.2594 73.5114 20.4073C73.0337 20.7195 71.2546 20.9824 69.6073 20.9988C68.6848 20.9988 68.4871 21.0481 68.4048 21.311C68.2565 21.7874 66.9881 23.0197 66.1809 23.4798C65.7691 23.7098 64.8136 24.1534 64.0559 24.4491C61.6838 25.3857 60.8272 26.6015 61.7991 27.653C62.6557 28.5731 65.5879 29.2139 69.0307 29.2139C70.3321 29.2139 71.1228 29.2796 71.1228 29.3782C71.1228 29.5918 70.6121 30.364 69.3272 32.1385C68.7672 32.8943 68.3224 33.5515 68.3224 33.5844C68.3224 33.6337 68.2071 33.7815 68.0588 33.9294C67.927 34.0773 67.3505 34.8659 66.8069 35.6875C66.2468 36.509 65.7526 37.2155 65.7032 37.2648C65.6538 37.3141 65.3902 37.6591 65.1266 38.037C64.8631 38.4313 64.5665 38.7435 64.4512 38.7435C64.3524 38.7435 64.1218 38.2999 63.957 37.7577C63.7923 37.199 63.5946 36.7226 63.5123 36.6733C63.4464 36.624 63.3805 36.4433 63.3805 36.2789C63.3805 36.1146 63.2322 35.6217 63.0345 35.1781C62.8369 34.7509 62.4086 33.568 62.0626 32.5821C61.7167 31.5799 61.2225 30.249 60.9919 29.6247C60.7448 28.9839 60.3494 27.9159 60.0859 27.2423C59.8388 26.5686 59.5917 25.895 59.5423 25.7636C59.2622 25.0571 58.8998 23.7755 58.9657 23.7098C58.9986 23.6605 59.3281 23.7098 59.6905 23.8084C60.613 24.0712 62.9686 23.8905 63.8911 23.4962C64.303 23.3155 64.8136 22.9376 65.0443 22.6582C65.2584 22.3789 65.6043 21.9353 65.8185 21.656C66.0985 21.2945 66.3456 21.1631 66.708 21.1631C67.0375 21.1631 67.367 20.9988 67.6964 20.6702C68.1412 20.2266 68.2894 20.1773 69.2284 20.1773C70.7274 20.1773 71.1887 20.0458 71.8641 19.405C72.1936 19.0929 72.7866 18.6985 73.1655 18.5342C73.5443 18.3699 74.0385 18.0249 74.2692 17.7785C74.4833 17.5156 75.2246 16.9569 75.9 16.5297C78.5027 14.9196 79.59 13.523 79.5735 11.7978C79.557 10.2534 78.7498 9.18541 77.0037 8.39676C76.18 8.01886 76.0318 7.87099 75.867 7.32879C75.5046 6.09652 74.2197 5.20928 72.0288 4.65065C70.5298 4.25632 68.0918 4.23989 66.7245 4.60136C65.7526 4.88068 65.6867 4.86424 65.0278 4.55207C63.6276 3.87843 61.4696 3.69769 59.2787 4.07559C58.2574 4.25632 58.2079 4.22346 58.0432 3.22122C57.7632 1.51247 56.8077 0.55951 54.9792 0.148753C54.0567 -0.064841 53.5131 -0.0484107 52.2612 0.198044ZM31.604 41.6681C32.2135 42.0953 33.3172 42.9004 34.0749 43.4754C37.6331 46.1535 40.4171 48.2402 44.6012 51.3291C46.2815 52.5778 47.6817 53.6458 47.7311 53.7115C47.7805 53.7608 48.11 54.0072 48.4888 54.2373C49.8067 55.0588 49.7573 54.9438 49.642 57.7205C49.5925 59.0678 49.4608 61.6309 49.3784 63.3889C49.296 65.147 49.1313 68.2523 49.0325 70.2896C48.9336 72.327 48.7524 75.5966 48.6206 77.5683C48.4888 79.5235 48.39 81.873 48.39 82.7767C48.39 84.8962 48.2912 85.1755 47.3687 85.2905C46.9733 85.3398 46.1826 85.4712 45.5896 85.5534C42.9045 85.9477 41.949 86.0791 40.5653 86.227C39.7581 86.3092 38.8686 86.4078 38.5885 86.457C37.979 86.5556 36.6118 86.6542 31.6204 86.9664C25.6902 87.3114 20.3198 86.8544 13.5 86C13.0781 86.0199 12.7248 85.6839 12.7235 85.2615L12.6764 70.0925L12.645 54.7851C12.6441 54.3288 12.8671 53.901 13.2417 53.6404L14.2349 52.8989C14.2349 52.8989 20.287 48.2566 21.8519 47.1558C22.2638 46.8765 22.725 46.5314 22.8733 46.4C23.0215 46.285 23.7299 45.7428 24.4382 45.217C25.163 44.6913 25.7725 44.2148 25.8219 44.1655C25.8714 44.1162 26.1679 43.8862 26.4809 43.6726C26.7938 43.459 27.1727 43.1632 27.321 43.0318C27.4692 42.8839 27.7493 42.6539 27.9634 42.5225C28.1611 42.391 28.4906 42.1446 28.6718 41.9967C28.8694 41.8324 29.1165 41.6517 29.1989 41.5695C29.6602 41.208 30.2038 40.8794 30.352 40.8794C30.4344 40.8794 31.0109 41.2409 31.604 41.6681Z" fill="#67850B"/>
<path d="M34.3 61.5975C34.0536 61.859 34.0536 62.431 34.185 67.5134C34.3329 72.988 34.3822 74.1646 34.6122 78.7567L34.7272 80.9139L38.6867 80.8812L42.6461 80.8322L42.7447 79.3614C42.8104 78.5443 42.909 76.8283 42.9583 75.521C43.024 74.2136 43.1062 72.6284 43.139 72.0074C43.1883 71.3701 43.3033 69.311 43.3855 67.4316C43.484 65.536 43.599 63.5422 43.6483 63.0029C43.7469 62.1205 43.7141 61.9571 43.4019 61.6466C43.0733 61.3197 42.9254 61.3034 38.8181 61.3034C34.9408 61.3034 34.5465 61.3361 34.3 61.5975Z" fill="#67850B"/>
</svg>
