<svg xmlns="http://www.w3.org/2000/svg">
<defs>
<clipPath id="a">
      <path d="M0 0h24v24H0z"/>
    </clipPath>
  

    <clipPath id="a">
      <path d="M0 0h18v18H0z"/>
    </clipPath>
</defs>
<symbol id="arrow1" viewBox="0 0 16 14">
  <path d="M9.69408 0.943928C9.40118 0.651035 8.92631 0.651035 8.63342 0.943929C8.34052 1.23682 8.34052 1.7117 8.63342 2.00459L13.1864 6.55759H1.24708C0.832865 6.55759 0.497078 6.89337 0.497078 7.30759C0.497078 7.7218 0.832865 8.05759 1.24708 8.05759H13.1864L8.63342 12.6106C8.34052 12.9035 8.34052 13.3784 8.63342 13.6713C8.92631 13.9642 9.40118 13.9642 9.69408 13.6713L15.5274 7.83792C15.6681 7.69727 15.7471 7.5065 15.7471 7.30759C15.7471 7.10868 15.6681 6.91791 15.5274 6.77726L9.69408 0.943928Z"/>
</symbol>
<symbol id="arrow2" viewBox="0 0 6 5">
  <path d="M6 .5H0l3 4 3-4Z"/>
</symbol>
<symbol id="basket1" viewBox="0 0 24 24">
  <g clip-path="url(#a)">
    <path d="M9.75 18.75c-1.24 0-2.25 1.01-2.25 2.25 0 1.241 1.01 2.25 2.25 2.25S12 22.242 12 21c0-1.24-1.01-2.25-2.25-2.25Zm0 3a.75.75 0 1 1 0-1.5.75.75 0 0 1 0 1.5Zm9.001-3c-1.24 0-2.25 1.01-2.25 2.25 0 1.241 1.01 2.25 2.25 2.25s2.25-1.009 2.25-2.25c0-1.24-1.01-2.25-2.25-2.25Zm0 3a.75.75 0 1 1 0-1.5.75.75 0 0 1 0 1.5Zm5.075-17.73a.745.745 0 0 0-.575-.27H5.622L4.97 1.306A.748.748 0 0 0 4.245.75H.75a.75.75 0 0 0 0 1.5h2.92l3.856 14.444a.748.748 0 0 0 .724.556h12a.75.75 0 0 0 0-1.5H8.827l-.44-1.647 13.398-.603a.75.75 0 0 0 .704-.615l1.5-8.25a.748.748 0 0 0-.162-.615Zm-2.705 8.008-13.132.592-1.966-7.37h16.33l-1.232 6.778Z"/>
    <path d="M18.751 6.75a.75.75 0 0 0-.75.75v3a.75.75 0 0 0 1.5 0v-3a.75.75 0 0 0-.75-.75Zm-4.5 0a.75.75 0 0 0-.75.75v3a.75.75 0 0 0 1.5 0v-3a.75.75 0 0 0-.75-.75Zm-4.501 0A.75.75 0 0 0 9 7.5v3a.75.75 0 0 0 1.5 0v-3a.75.75 0 0 0-.75-.75Z"/>
  </g>
  
</symbol>
<symbol id="burger1" viewBox="0 0 18 14">
  <rect width="18" height="1.5" y=".75" fill="#fff" rx=".75"/>
  <rect width="18" height="1.5" y="6.25" fill="#fff" rx=".75"/>
  <rect width="18" height="1.5" y="11.75" fill="#fff" rx=".75"/>
</symbol>
<symbol id="chevron1" viewBox="0 0 7 11">
  <path fill-rule="evenodd" clip-rule="evenodd" d="M1.99163 0.322183C1.53601 -0.107395 0.797322 -0.107395 0.341708 0.322183C-0.113903 0.751759 -0.113903 1.44824 0.341708 1.87782L4.18342 5.5L0.341711 9.12218C-0.113903 9.55176 -0.113903 10.2482 0.341711 10.6778C0.797322 11.1074 1.53601 11.1074 1.99163 10.6778L6.65829 6.27782C7.1139 5.84824 7.1139 5.15176 6.65829 4.72218L1.99163 0.322183Z"/>
</symbol>
<symbol id="chevron2" viewBox="0 0 19 12">
  <path d="M2.42893 0.379661L9.5 7.45073L16.5711 0.379661L18.6924 2.50098L9.5 11.6934L0.307612 2.50098L2.42893 0.379661Z"/>
</symbol>
<symbol id="clock" viewBox="0 0 18 18">
  <g clip-path="url(#a)">
    <path d="M9.08 15.5a6.482 6.482 0 0 0 4.577-1.889 6.44 6.44 0 0 0 1.896-4.56 6.44 6.44 0 0 0-1.896-4.562A6.483 6.483 0 0 0 9.081 2.6c-1.717 0-3.363.68-4.577 1.89a6.439 6.439 0 0 0 0 9.122A6.483 6.483 0 0 0 9.081 15.5Zm0 1.29a7.789 7.789 0 0 1-5.49-2.266A7.738 7.738 0 0 1 1.313 9.05 7.717 7.717 0 0 1 3.59 3.577 7.768 7.768 0 0 1 9.081 1.31a7.78 7.78 0 0 1 5.491 2.267 7.727 7.727 0 0 1 2.275 5.473 7.727 7.727 0 0 1-2.275 5.473 7.78 7.78 0 0 1-5.491 2.268Z"/>
    <path d="m4.637 15.35 1.121.646-.97 1.676a.645.645 0 0 1-.646.32.648.648 0 0 1-.558-.727.643.643 0 0 1 .083-.238l.97-1.676Zm8.888 0-1.121.646.97 1.676a.644.644 0 0 0 .647.32.648.648 0 0 0 .557-.727.643.643 0 0 0-.082-.238l-.971-1.676ZM9.08 9.05h3.236a.648.648 0 0 1 .647.645.644.644 0 0 1-.647.646H8.434a.648.648 0 0 1-.647-.646V5.18a.644.644 0 0 1 .647-.645.648.648 0 0 1 .647.645v3.87ZM.556 5.024A3.217 3.217 0 0 1 .965.96 3.24 3.24 0 0 1 5.043.554l-.948.945a1.947 1.947 0 0 0-2.21.377 1.933 1.933 0 0 0-.379 2.203l-.948.945H.556Zm16.893 0A3.217 3.217 0 0 0 17.04.962a3.24 3.24 0 0 0-4.076-.408l.948.945a1.948 1.948 0 0 1 2.21.377A1.933 1.933 0 0 1 16.5 4.08l.95.945Z"/>
  </g>
  
</symbol>
<symbol id="close1" viewBox="0 0 20 20">
  <path d="M20 2.01429L17.9857 0L10 7.98571L2.01429 0L0 2.01429L7.98571 10L0 17.9857L2.01429 20L10 12.0143L17.9857 20L20 17.9857L12.0143 10L20 2.01429Z"/>
</symbol>
<symbol id="email" viewBox="0 0 18 14">
  <path d="M15.75 0H2.25C1.653 0 1.081.257.659.713A2.54 2.54 0 0 0 0 2.435v9.13c0 .646.237 1.265.659 1.722.422.456.994.713 1.591.713h13.5c.597 0 1.169-.257 1.591-.713A2.54 2.54 0 0 0 18 11.565v-9.13a2.54 2.54 0 0 0-.659-1.722A2.167 2.167 0 0 0 15.75 0Zm1.125 11.565c0 .323-.119.633-.33.861a1.084 1.084 0 0 1-.795.357H2.25c-.298 0-.585-.129-.796-.357a1.27 1.27 0 0 1-.329-.86V2.434c0-.323.119-.633.33-.861.21-.228.497-.357.795-.357h13.5c.298 0 .584.129.796.357.21.228.329.538.329.86v9.131Z"/>
  <path d="M15.62 3.27a.574.574 0 0 0-.17-.152.531.531 0 0 0-.623.066L9 8.346 3.166 3.184a.557.557 0 0 0-.194-.129.523.523 0 0 0-.446.032.573.573 0 0 0-.178.154.657.657 0 0 0-.05.698c.04.071.092.133.154.182L8.64 9.6c.1.09.228.14.36.14a.537.537 0 0 0 .354-.14l6.186-5.48a.644.644 0 0 0 .079-.852Zm-2.288 4.82a.542.542 0 0 0-.397-.178.541.541 0 0 0-.396.177.613.613 0 0 0-.124.198.653.653 0 0 0 .124.667l2.25 2.434a.526.526 0 0 0 .796-.003.653.653 0 0 0-.003-.861l-2.25-2.435Zm-8.646 0-2.25 2.434a.635.635 0 0 0-.166.43.631.631 0 0 0 .163.431c.105.115.248.18.397.18.15 0 .293-.063.399-.177l2.25-2.434a.652.652 0 0 0 0-.864.542.542 0 0 0-.397-.178.542.542 0 0 0-.396.177Z"/>
</symbol>
<symbol id="i" viewBox="0 0 6 15">
  <path d="M2.44 0a1.769 1.769 0 1 1 0 3.54A1.77 1.77 0 1 1 2.439 0Zm1.61 4.651H1.052a1.052 1.052 0 1 0 0 2.105h.105v6.136H0V15h5.204v-2.108H4.053v-8.24H4.05Z"/>
</symbol>
<symbol id="icon1" viewBox="0 0 44 44">
  <path d="M21.998.41 0 10.82v6.718h2.993V43.59h1.833V17.538h34.348V43.59h1.833V17.538H44v-6.805L21.998.41Zm20.169 15.295H1.833V11.98l20.169-9.544 20.165 9.46v3.808Z"/>
  <path d="M20.98 24.934h-8.388v8.274h8.388v-8.274Zm-1.833 6.44h-4.721v-4.607h4.72v4.607Zm12.26-6.44H23.02v8.274h8.387v-8.274Zm-1.833 6.44h-4.721v-4.607h4.721v4.607ZM7.475 43.087h8.388v-8.274H7.475v8.274Zm1.833-6.44h4.722v4.607H9.308v-4.607Zm8.498 6.44h8.388v-8.274h-8.388v8.274Zm1.833-6.44h4.722v4.607h-4.722v-4.607Zm8.498 6.44h8.388v-8.274h-8.388v8.274Zm1.833-6.44h4.721v4.607H29.97v-4.607ZM12.482 11.803h-4.37v1.834h4.37v-1.834Zm11.702 0h-4.369v1.834h4.37v-1.834Zm11.702 0h-4.368v1.834h4.368v-1.834Z"/>
</symbol>
<symbol id="icon2" viewBox="0 0 59 44">
  <path d="M58.61 12.167 47.188.669a.936.936 0 0 0-1.33 0l-5.71 5.749a.95.95 0 0 0 0 1.339l.57.573-1.31 1.318a2.925 2.925 0 0 1-3.28.58 8.125 8.125 0 0 0-3.354-.729 8.049 8.049 0 0 0-3.89 1 6.288 6.288 0 0 0-3.68.198c-1.11.406-2.3.154-3.106-.657l-2.35-2.367.28-.281a.95.95 0 0 0 0-1.34L14.317.305a.936.936 0 0 0-1.33 0L.275 13.102a.951.951 0 0 0 0 1.34l5.71 5.748a.937.937 0 0 0 1.33 0l.341-.343 1.658 1.67c.418.42.696.946.802 1.52a14.901 14.901 0 0 0 4.09 7.819l.313.314c-.6.636-.93 1.464-.93 2.344a3.398 3.398 0 0 0 3.385 3.406c.057 0 .113-.001.17-.004a3.413 3.413 0 0 0 .985 2.58c.64.644 1.49.998 2.393.998l.076-.002c-.02.897.31 1.8.988 2.484a3.35 3.35 0 0 0 2.393.998 3.352 3.352 0 0 0 2.548-1.165 3.125 3.125 0 0 0 3.277-.755c.317-.318.558-.694.714-1.103l.096.097c.617.62 1.426.931 2.236.931.81 0 1.62-.31 2.235-.93.328-.33.574-.72.73-1.145a3.142 3.142 0 0 0 1.858.607c.81 0 1.62-.31 2.237-.93a3.177 3.177 0 0 0 .926-2.252c0-.257-.03-.51-.09-.753a3.13 3.13 0 0 0 1.6-.869c.598-.6.926-1.4.926-2.25 0-.67-.205-1.308-.583-1.842l.754-.76a14.897 14.897 0 0 0 4.11-7.917c.09-.504.337-.973.717-1.355l2.806-2.825.493.496a.934.934 0 0 0 1.33 0l5.71-5.749a.95.95 0 0 0 0-1.338ZM6.65 18.182l-4.38-4.41 11.383-11.46 4.38 4.41-11.382 11.46Zm11.388 16.403a1.5 1.5 0 0 1-2.127 0 1.51 1.51 0 0 1-.44-1.07A1.51 1.51 0 0 1 16.973 32c.385 0 .77.148 1.064.443.586.59.586 1.55 0 2.141Zm3.547 3.572a1.488 1.488 0 0 1-1.063.443 1.49 1.49 0 0 1-1.063-.443 1.523 1.523 0 0 1 0-2.141 1.494 1.494 0 0 1 2.127 0c.586.59.586 1.55 0 2.14Zm3.457 3.48a1.489 1.489 0 0 1-1.063.444c-.402 0-.78-.158-1.063-.444a1.523 1.523 0 0 1 0-2.141 1.494 1.494 0 0 1 2.126 0c.587.59.587 1.55 0 2.141Zm15.974-7.268a1.267 1.267 0 0 1-.905.378 1.27 1.27 0 0 1-.906-.379l-9.123-9.183a.936.936 0 0 0-1.33 0 .952.952 0 0 0 0 1.339l9.828 9.893c.241.244.375.567.375.912 0 .345-.134.669-.375.912-.5.503-1.313.503-1.812 0l-1.658-1.669-.028-.029-.009-.008-7.621-7.673a.936.936 0 0 0-1.33 0 .951.951 0 0 0 0 1.34l7.646 7.697c.233.241.362.56.362.899 0 .344-.133.668-.375.911a1.276 1.276 0 0 1-1.81 0l-8.291-8.347a.936.936 0 0 0-1.33 0 .951.951 0 0 0 0 1.34l6.145 6.187.005.005c.242.243.375.566.375.91a1.286 1.286 0 0 1-1.524 1.267 3.42 3.42 0 0 0-.952-2.914 3.351 3.351 0 0 0-2.394-.999l-.075.002a3.41 3.41 0 0 0-.988-2.484 3.352 3.352 0 0 0-2.563-.994 3.413 3.413 0 0 0-.986-2.578 3.37 3.37 0 0 0-3.156-.909l-.674-.678a13.01 13.01 0 0 1-3.572-6.828 4.793 4.793 0 0 0-1.32-2.512l-1.659-1.67 9.432-9.495 2.35 2.367a4.778 4.778 0 0 0 3.395 1.396c.564 0 1.134-.098 1.684-.299.266-.098.542-.168.822-.212l-5.824 5.863a3.785 3.785 0 0 0-1.104 2.685 3.786 3.786 0 0 0 3.771 3.796c.966 0 1.932-.37 2.668-1.11l2.924-2.945.792.797.033.034.032.032h.001l.027.027 11.027 11.102c.242.243.375.567.375.911 0 .345-.133.67-.375.913Zm5.924-14.125a4.45 4.45 0 0 0-1.24 2.36 13.008 13.008 0 0 1-3.587 6.912l-.723.728-5.95-5.99a4.77 4.77 0 0 0 2.222-.343.95.95 0 0 0 .516-1.235.938.938 0 0 0-1.227-.518c-2.42.997-5.322-1.75-5.645-2.067a.794.794 0 0 0-.017-.016l-.033-.033-.03-.03-.792-.798.898-.904a.951.951 0 0 0 0-1.339.936.936 0 0 0-1.33 0l-1.56 1.571-.002.002-.002.002-3.588 3.613a1.884 1.884 0 0 1-2.675 0 1.898 1.898 0 0 1-.553-1.346c0-.51.196-.987.553-1.347l6.194-6.235a6.175 6.175 0 0 1 4.406-1.838 6.24 6.24 0 0 1 2.576.56c1.822.832 3.988.444 5.388-.966l1.31-1.318 7.697 7.75-2.806 2.825Zm5.294-2.998L42.144 7.087l4.38-4.41 10.09 10.16-4.38 4.41Z"/>
</symbol>
<symbol id="icon3" viewBox="0 0 50 50">
  <path d="m49.859 27.042-3.334-5a.833.833 0 0 0-.691-.375h-.859a22.495 22.495 0 1 0-26.641 22.941v4.559a.833.833 0 0 0 .833.833h30a.833.833 0 0 0 .834-.833V27.483c-.03-.152-.078-.3-.142-.441Zm-4.475-3.709 2.225 3.334h-9.4l-.559-3.334h7.734ZM38.75 9.483a20.685 20.685 0 0 1 4.558 12.184h-8.317a38.025 38.025 0 0 0-1.466-9.934 24.867 24.867 0 0 0 5.224-2.25Zm-2.084 18.85v5.317l-2.1-1.058a.802.802 0 0 0-.742-.009l-2.158 1.075v-5.325h5Zm-4.85-1.666.559-3.334h3.583l.558 3.334h-4.7Zm5.817-18.459a24.33 24.33 0 0 1-4.625 1.95 19.305 19.305 0 0 0-4.7-7.658 20.74 20.74 0 0 1 9.325 5.708Zm-14.3-6.475c3.333.492 6.25 3.892 8.058 8.884-2.64.635-5.343.979-8.058 1.025V1.733Zm0 11.575a38.186 38.186 0 0 0 8.575-1.108 36.003 36.003 0 0 1 1.416 9.467h-9.991v-8.359Zm-.383 10.025h7.733l-.559 3.334h-9.4l2.226-3.334Zm-1.284-1.666h-9.992a36.007 36.007 0 0 1 1.417-9.467 38.186 38.186 0 0 0 8.575 1.108v8.359Zm0-19.934v9.909a37.138 37.138 0 0 1-8.058-1.025c1.808-4.992 4.725-8.392 8.058-8.884Zm-4.975.767a19.305 19.305 0 0 0-4.7 7.658 24.333 24.333 0 0 1-4.625-1.95A20.74 20.74 0 0 1 16.692 2.5ZM6.25 9.483a24.866 24.866 0 0 0 5.226 2.25 38.021 38.021 0 0 0-1.467 9.934H1.692A20.685 20.685 0 0 1 6.25 9.483Zm.034 26.009a20.803 20.803 0 0 1-4.575-12.159h8.308c.05 3.36.551 6.699 1.492 9.925a25.098 25.098 0 0 0-5.225 2.234ZM7.4 36.767a23.593 23.593 0 0 1 4.642-1.925 19.279 19.279 0 0 0 4.692 7.658A20.84 20.84 0 0 1 7.4 36.767Zm10.934 4.9a16.666 16.666 0 0 1-4.684-7.275 34.268 34.268 0 0 1 4.684-.825v8.1Zm.142-14.625c-.065.14-.113.289-.142.441v4.409c-1.76.175-3.503.481-5.217.916a35.465 35.465 0 0 1-1.433-9.475h9.258l-2.466 3.709Zm17.358 16.291a.833.833 0 0 0-.834.834v4.166h-1.666v-4.166a.833.833 0 0 0-.834-.834h-.724l2.391-2.866 2.392 2.866h-.725Zm12.5 5H36.667V45h1.667a.833.833 0 0 0 .641-1.367l-4.166-5a.86.86 0 0 0-1.283 0l-4.167 5A.834.834 0 0 0 30 45h1.667v3.333H20v-20h10V35a.833.833 0 0 0 1.2.75l2.992-1.483 2.934 1.475A.834.834 0 0 0 38.334 35v-6.667h10v20Z"/>
</symbol>
<symbol id="instagram" viewBox="0 0 16 16">
  <path d="M11.461.5H4.538A4.043 4.043 0 0 0 .5 4.538v6.923A4.043 4.043 0 0 0 4.538 15.5h6.923a4.043 4.043 0 0 0 4.039-4.039V4.538A4.043 4.043 0 0 0 11.461.5ZM8 11.461a3.462 3.462 0 1 1 0-6.923 3.462 3.462 0 0 1 0 6.923Zm4.327-6.923a.866.866 0 1 1 0-1.731.866.866 0 0 1 0 1.731ZM10.307 8a2.308 2.308 0 1 1-4.615 0 2.308 2.308 0 0 1 4.616 0Z"/>
</symbol>
<symbol id="location" viewBox="0 0 15 18">
  <path d="M7.5 0C5.51 0 3.603.762 2.197 2.117A7.099 7.099 0 0 0 0 7.23c0 3.436 3.865 7.562 7.113 10.42l.399.351.386-.361C11.492 14.302 15 10.76 15 7.229a7.1 7.1 0 0 0-2.197-5.112A7.645 7.645 0 0 0 7.5 0Zm0 16.47c-4.09-3.68-6.346-6.95-6.346-9.24 0-1.622.668-3.178 1.859-4.325A6.469 6.469 0 0 1 7.5 1.112c1.683 0 3.297.645 4.487 1.792a6.007 6.007 0 0 1 1.86 4.325c0 2.975-3.082 6.167-6.347 9.242Z"/>
  <path d="M7.5 4.449a2.97 2.97 0 0 0-1.603.468c-.474.306-.844.74-1.062 1.248a2.687 2.687 0 0 0-.164 1.606 2.75 2.75 0 0 0 .79 1.424 2.92 2.92 0 0 0 1.476.76c.56.108 1.14.053 1.667-.157.527-.21.977-.567 1.294-1.024a2.71 2.71 0 0 0 .486-1.545 2.73 2.73 0 0 0-.844-1.966 2.94 2.94 0 0 0-2.04-.814Zm0 4.448c-.342 0-.677-.098-.962-.281a1.683 1.683 0 0 1-.637-.749 1.612 1.612 0 0 1-.099-.963 1.65 1.65 0 0 1 .474-.855c.242-.233.55-.392.886-.456a1.791 1.791 0 0 1 1 .095c.316.126.587.34.777.614.19.274.292.597.292.927 0 .442-.183.867-.507 1.18a1.764 1.764 0 0 1-1.224.488Z"/>
</symbol>
<symbol id="mark1" viewBox="0 0 12 10">
  <path d="M3.93869 10L0 6.00386L1.79493 4.18275L3.93869 6.36422L10.2051 0L12 1.82111L3.93869 10Z"/>
</symbol>
<symbol id="minus1" viewBox="0 0 12 2">
  <path d="M1.5 0.25C1.08579 0.25 0.75 0.585786 0.75 1C0.75 1.41421 1.08579 1.75 1.5 1.75L10.5 1.75C10.9142 1.75 11.25 1.41421 11.25 1C11.25 0.585788 10.9142 0.25 10.5 0.25H1.5Z"/>
</symbol>
<symbol id="phone" viewBox="0 0 18 18">
  <path d="M17.942 8.012A15.097 15.097 0 0 0 9.939.037a.59.59 0 0 0-.755.337.592.592 0 0 0 .318.78A13.928 13.928 0 0 1 16.88 8.51a.591.591 0 0 0 .768.302.59.59 0 0 0 .295-.799ZM9.195 4.347A8.435 8.435 0 0 1 13.67 8.8a.59.59 0 0 0 .513.343.54.54 0 0 0 .23-.054.59.59 0 0 0 .283-.762A9.569 9.569 0 0 0 9.62 3.27a.59.59 0 0 0-.738.32.592.592 0 0 0 .313.756Zm5.684 7.023a1.364 1.364 0 0 0-2.072 0c-.484.48-.968.964-1.446 1.455a.282.282 0 0 1-.401.07c-.313-.17-.65-.307-.95-.496a14.995 14.995 0 0 1-3.624-3.31 8.634 8.634 0 0 1-1.304-2.081.296.296 0 0 1 .076-.385c.484-.473.956-.952 1.434-1.436a1.383 1.383 0 0 0 0-2.129c-.377-.384-.755-.756-1.139-1.14L4.273.734A1.47 1.47 0 0 0 3.24.268 1.485 1.485 0 0 0 2.201.74c-.49.479-.956.975-1.457 1.448a2.367 2.367 0 0 0-.738 1.597 6.803 6.803 0 0 0 .52 2.908 17.8 17.8 0 0 0 3.133 5.232 19.257 19.257 0 0 0 6.427 5.031 9.243 9.243 0 0 0 3.541 1.04h.23a2.541 2.541 0 0 0 2.013-.857c.413-.466.88-.892 1.322-1.336a1.39 1.39 0 0 0 0-2.116 321.691 321.691 0 0 0-2.313-2.318Zm1.487 3.613-.443.437c-.307.296-.62.591-.927.94a1.351 1.351 0 0 1-1.127.467h-.165a8.118 8.118 0 0 1-3.104-.916 18.3 18.3 0 0 1-6.038-4.73 16.511 16.511 0 0 1-2.95-4.883 5.619 5.619 0 0 1-.45-2.4 1.23 1.23 0 0 1 .379-.834c.306-.295.59-.59.902-.892l.59-.592a.236.236 0 0 1 .426 0c.26.255.513.515.767.775l.39.39.59.591.56.562c.219.219.207.26 0 .461l-.2.201a62.32 62.32 0 0 1-1.234 1.23 1.473 1.473 0 0 0-.325 1.679 9.45 9.45 0 0 0 1.476 2.364 16.153 16.153 0 0 0 3.919 3.548c.23.141.466.26.673.36l.318.16c.225.133.482.204.744.207a1.462 1.462 0 0 0 1.08-.485c.466-.479.938-.946 1.434-1.437a.384.384 0 0 1 .2-.136c.083.02.156.068.207.136a185.24 185.24 0 0 0 2.36 2.324c.137.207.154.26-.052.473Z"/>
</symbol>
<symbol id="plus1" viewBox="0 0 12 11">
  <path d="M6.75 0.90448C6.75 0.490266 6.41421 0.15448 6 0.15448C5.58579 0.15448 5.25 0.490266 5.25 0.90448V4.65448H1.5C1.08579 4.65448 0.75 4.99027 0.75 5.40448C0.75 5.81869 1.08579 6.15448 1.5 6.15448H5.25V9.90448C5.25 10.3187 5.58579 10.6545 6 10.6545C6.41421 10.6545 6.75 10.3187 6.75 9.90448V6.15448H10.5C10.9142 6.15448 11.25 5.81869 11.25 5.40448C11.25 4.99027 10.9142 4.65448 10.5 4.65448H6.75V0.90448Z"/>
</symbol>
<symbol id="search1" viewBox="0 0 20 20">
  <path d="M8.128.01a7.731 7.731 0 0 1 7.333 7.72l-.01.398a7.688 7.688 0 0 1-1.526 4.222L20 18.425l-1.179 1.178-6.03-6.03a7.698 7.698 0 0 1-5.06 1.888l-.399-.01A7.731 7.731 0 0 1 .01 8.127L0 7.73A7.73 7.73 0 0 1 7.73 0l.398.01ZM7.73 2a5.73 5.73 0 1 0 0 11.461A5.73 5.73 0 0 0 7.73 2Z"/>
</symbol>
<symbol id="share" viewBox="0 0 16 16">
  <path d="M13.251 0a2.751 2.751 0 0 0-2.717 3.185L5.28 6.05A2.997 2.997 0 0 0 3.001 5a3 3 0 1 0 2.28 4.948l5.253 2.867A2.746 2.746 0 0 0 13.251 16a2.749 2.749 0 1 0 0-5.499 2.747 2.747 0 0 0-2.376 1.36L5.792 9.09c.133-.34.21-.707.21-1.092 0-.384-.076-.75-.209-1.088l5.082-2.772A2.752 2.752 0 0 0 16 2.75 2.75 2.75 0 0 0 13.251 0Zm0 1a1.75 1.75 0 1 1-.003 3.5 1.75 1.75 0 0 1 .003-3.5ZM3.001 6.002A2 2 0 1 1 1 7.998c0-1.11.902-1.996 2.001-1.996Zm10.25 5.499A1.75 1.75 0 1 1 13.25 15a1.75 1.75 0 0 1 .001-3.499Z"/>
</symbol>
<symbol id="spinner1" viewBox="0 0 27 22">
<path d="M4.71659 9.6673L0.499999 9.6673L6.74934 15.951L12.8613 9.66729L7.49102 9.6673C8.15029 5.74514 11.5291 2.76209 15.6083 2.76209C19.6875 2.76209 23.0663 5.74514 23.7256 9.66729L26.5 9.66729C25.827 4.21218 21.2121 1.00199e-06 15.6083 1.24694e-06C10.0045 1.49189e-06 5.38959 4.21218 4.71659 9.6673ZM24.2887 17.8154C25.5248 16.2134 26.2665 14.349 26.5 12.4294L23.7118 12.4294C23.5058 13.6309 23.0388 14.791 22.2971 15.8267L24.2887 17.8154ZM16.9818 19.2103L16.9818 22C18.8909 21.7652 20.7314 21.0056 22.3246 19.7627L20.3743 17.8154C19.3442 18.5336 18.1904 19.0169 16.9818 19.2103ZM10.8423 17.8016L8.89197 19.7489C10.4852 20.9918 12.3257 21.7652 14.2348 22L14.2348 19.2103C13.0399 19.0169 11.8724 18.5336 10.8423 17.8016Z"/>
</symbol>
<symbol id="telegram" viewBox="0 0 18 14">
  <path d="M15.913.451s1.542-.577 1.413.824c-.043.577-.428 2.598-.728 4.782l-1.027 6.473s-.086.948-.857 1.113c-.77.164-1.927-.577-2.142-.742-.17-.124-3.211-1.98-4.282-2.886-.3-.248-.643-.742.043-1.32l4.496-4.122c.514-.494 1.028-1.649-1.113-.247L5.72 8.242s-.685.413-1.97.042L.966 7.459s-1.028-.618.728-1.237c4.283-1.937 9.55-3.916 14.219-5.771Z"/>
</symbol>
<symbol id="user1" viewBox="0 0 26 26">
  <path d="M26 13.0022C26.0007 10.8401 25.4619 8.71189 24.4325 6.81044C23.403 4.90899 21.9155 3.29434 20.1045 2.11272C18.2935 0.931101 16.2163 0.219846 14.0611 0.0433709C11.9058 -0.133104 9.74055 0.230776 7.76142 1.10206C5.78229 1.97333 4.05181 3.32449 2.72669 5.03314C1.40157 6.7418 0.523684 8.75398 0.172538 10.8874C-0.178609 13.0209 0.00807875 15.2082 0.715691 17.2514C1.4233 19.2945 2.62949 21.1289 4.225 22.5883L4.3875 22.7383C6.76407 24.8399 9.82727 26 13 26C16.1727 26 19.2359 24.8399 21.6125 22.7383L21.775 22.5883C23.1077 21.3724 24.1718 19.8918 24.8993 18.2411C25.6268 16.5904 26.0017 14.8061 26 13.0022ZM2 13.0022C1.99934 11.2209 2.43142 9.46609 3.25909 7.88866C4.08675 6.31124 5.28522 4.95843 6.75145 3.94655C8.21768 2.93468 9.90778 2.29402 11.6764 2.07968C13.445 1.86534 15.2393 2.08373 16.9048 2.71607C18.5704 3.34841 20.0574 4.37577 21.238 5.70981C22.4186 7.04386 23.2575 8.64465 23.6824 10.3745C24.1074 12.1044 24.1058 13.9116 23.6778 15.6408C23.2497 17.3699 22.408 18.9692 21.225 20.3011C20.11 18.6844 18.5392 17.4358 16.7125 16.7142C17.6923 15.9426 18.4072 14.8849 18.7579 13.6882C19.1086 12.4916 19.0776 11.2153 18.6693 10.0371C18.2609 8.85883 17.4955 7.83709 16.4794 7.11395C15.4634 6.39081 14.2472 6.00222 13 6.00222C11.7528 6.00222 10.5366 6.39081 9.52058 7.11395C8.50452 7.83709 7.73909 8.85883 7.33073 10.0371C6.92238 11.2153 6.89139 12.4916 7.24209 13.6882C7.59278 14.8849 8.30773 15.9426 9.2875 16.7142C7.46076 17.4358 5.88999 18.6844 4.775 20.3011C2.98421 18.2919 1.99633 15.6935 2 13.0022ZM9 12.0024C9 11.2114 9.2346 10.4381 9.67412 9.78041C10.1136 9.12271 10.7384 8.6101 11.4693 8.30739C12.2002 8.00469 13.0044 7.92548 13.7804 8.0798C14.5563 8.23412 15.269 8.61503 15.8284 9.17436C16.3878 9.73368 16.7688 10.4463 16.9231 11.2221C17.0775 11.9979 16.9983 12.8021 16.6955 13.5329C16.3928 14.2637 15.8801 14.8883 15.2223 15.3278C14.5645 15.7672 13.7911 16.0018 13 16.0018C11.9401 15.9985 10.9246 15.5761 10.1752 14.8267C9.42578 14.0774 9.0033 13.0621 9 12.0024ZM6.2625 21.6884C6.98615 20.5583 7.98254 19.6283 9.15994 18.9842C10.3373 18.3401 11.6579 18.0025 13 18.0025C14.3421 18.0025 15.6627 18.3401 16.8401 18.9842C18.0175 19.6283 19.0138 20.5583 19.7375 21.6884C17.8111 23.1863 15.4404 23.9996 13 23.9996C10.5596 23.9996 8.18889 23.1863 6.2625 21.6884Z"/>
</symbol>
<symbol id="vk" viewBox="0 0 20 12">
  <path d="M19.53.833c.147-.47 0-.811-.657-.811H16.69c-.55 0-.805.299-.953.619 0 0-1.123 2.733-2.69 4.505-.508.513-.741.684-1.017.684-.148 0-.339-.171-.339-.64V.81c0-.555-.17-.811-.635-.811H7.625c-.34 0-.55.256-.55.513 0 .533.783.662.868 2.156v3.248c0 .704-.125.833-.403.833-.741 0-2.542-2.755-3.622-5.893C3.708.235 3.495 0 2.944 0H.741C.106 0 0 .299 0 .62c0 .576.741 3.48 3.453 7.323 1.8 2.625 4.363 4.036 6.672 4.036 1.398 0 1.567-.32 1.567-.854V9.139c0-.64.127-.747.572-.747.318 0 .89.17 2.182 1.43C15.928 11.317 16.183 12 17.009 12h2.181c.636 0 .932-.32.763-.94-.19-.619-.91-1.515-1.843-2.583-.508-.597-1.27-1.26-1.504-1.58-.317-.427-.233-.598 0-.982-.021 0 2.648-3.8 2.923-5.083"/>
</symbol>
</svg>